G04 PROTEUS GERBER X2 FILE*
%TF.GenerationSoftware,Labcenter,Proteus,8.9-SP2-Build28501*%
%TF.CreationDate,2023-07-27T06:52:36+00:00*%
%TF.FileFunction,Plated,1,2,PTH*%
%TF.FilePolarity,Positive*%
%TF.Part,Single*%
%TF.SameCoordinates,{a6dc1c72-05ea-40b1-9d21-e55aeb3cbc9d}*%
%FSLAX45Y45*%
%MOMM*%
G01*
%TA.AperFunction,ViaDrill*%
%ADD50C,0.381000*%
%TA.AperFunction,ComponentDrill*%
%ADD51C,1.016000*%
%TA.AperFunction,ComponentDrill*%
%ADD52C,1.524000*%
%TA.AperFunction,ComponentDrill*%
%ADD53C,0.762000*%
%TA.AperFunction,ComponentDrill*%
%ADD54C,1.346200*%
%TA.AperFunction,OtherDrill,Unknown*%
%ADD55C,1.800000*%
%TD.AperFunction*%
D50*
X+1387466Y-4576600D03*
X+1370533Y-3569067D03*
D51*
X+990000Y-2340000D03*
X+990000Y-2594000D03*
X+990000Y-2848000D03*
X+990000Y-3102000D03*
X+990000Y-3356000D03*
X+990000Y-3610000D03*
X+990000Y-3864000D03*
X+990000Y-4118000D03*
X+3276000Y-2340000D03*
X+3276000Y-2594000D03*
X+3276000Y-2848000D03*
X+3276000Y-3102000D03*
X+3276000Y-3356000D03*
X+3276000Y-3610000D03*
X+3276000Y-3864000D03*
X+3276000Y-4118000D03*
D52*
X+8220000Y-2950000D03*
X+8220000Y-1750000D03*
X+8420000Y-2350000D03*
X+7000000Y-2950000D03*
X+7000000Y-1750000D03*
X+4514000Y-770000D03*
X+5022000Y-770000D03*
X+5530000Y-770000D03*
X+6038000Y-770000D03*
X+6546000Y-770000D03*
D53*
X+7654000Y-5760000D03*
X+7400000Y-5760000D03*
D54*
X+7840000Y-5000000D03*
X+7670000Y-5220000D03*
X+7500000Y-5000000D03*
X+7330000Y-5220000D03*
X+7160000Y-5000000D03*
D53*
X+7124000Y-3890000D03*
X+6870000Y-3890000D03*
X+4750000Y-5754000D03*
X+4750000Y-5500000D03*
X+3849302Y-4260000D03*
X+3849302Y-4514000D03*
D51*
X+5500000Y-5750000D03*
X+6897000Y-5750000D03*
X+8154000Y-3740000D03*
X+9170000Y-3740000D03*
D53*
X+8330000Y-4380000D03*
X+8330000Y-4634000D03*
D52*
X+6000000Y-2530000D03*
X+4800000Y-2530000D03*
X+5400000Y-2330000D03*
X+6000000Y-3750000D03*
X+4800000Y-3750000D03*
D51*
X+5014000Y-1710000D03*
X+6030000Y-1710000D03*
X+2624000Y-880000D03*
X+2370000Y-880000D03*
X+2116000Y-880000D03*
X+1862000Y-880000D03*
X+490000Y-4094000D03*
X+490000Y-3840000D03*
X+490000Y-3586000D03*
X+490000Y-3332000D03*
X+490000Y-3078000D03*
X+490000Y-2824000D03*
X+490000Y-2570000D03*
D52*
X+7360000Y-820000D03*
X+7868000Y-820000D03*
X+3160000Y-720000D03*
X+3668000Y-720000D03*
D55*
X+320000Y-6010000D03*
X+300000Y-300000D03*
X+9200000Y-6000000D03*
X+9230000Y-300000D03*
M02*
