G04 PROTEUS GERBER X2 FILE*
%TF.GenerationSoftware,Labcenter,Proteus,8.9-SP2-Build28501*%
%TF.CreationDate,2023-07-27T06:52:36+00:00*%
%TF.FileFunction,Legend,Top*%
%TF.FilePolarity,Positive*%
%TF.Part,Single*%
%TF.SameCoordinates,{a6dc1c72-05ea-40b1-9d21-e55aeb3cbc9d}*%
%FSLAX45Y45*%
%MOMM*%
G01*
%TA.AperFunction,Profile*%
%ADD20C,0.203200*%
%TA.AperFunction,Material*%
%ADD23C,0.203200*%
%ADD24C,0.200000*%
%TD.AperFunction*%
D20*
X+0Y-6250000D02*
X+9500000Y-6250000D01*
X+9500000Y+0D01*
X+0Y+0D01*
X+0Y-6250000D01*
D23*
X+863000Y-1578000D02*
X+863000Y-4308500D01*
X+1117000Y-5007000D02*
X+1752000Y-5007000D01*
X+3403000Y-5007000D02*
X+3403000Y-1578000D01*
X+863000Y-1578000D02*
X+3403000Y-1578000D01*
X+863000Y-4308500D02*
X+1117000Y-4308500D01*
X+1117000Y-5007000D01*
X+1117000Y-4816500D02*
X+1053500Y-4816500D01*
X+1053500Y-4562500D01*
X+1117000Y-4562500D01*
X+1752000Y-5007000D02*
X+1752000Y-4943500D01*
X+2514000Y-4943500D01*
X+2514000Y-5007000D01*
X+3403000Y-5007000D01*
X+2006000Y-1445920D02*
X+2006000Y-1522120D01*
X+2021875Y-1537360D01*
X+2085375Y-1537360D01*
X+2101250Y-1522120D01*
X+2101250Y-1445920D01*
X+2164750Y-1476400D02*
X+2196500Y-1445920D01*
X+2196500Y-1537360D01*
X+6420000Y-3181000D02*
X+8670000Y-3181000D01*
X+8670000Y-1541000D01*
X+6420000Y-1541000D01*
X+6420000Y-3181000D01*
X+7354500Y-3313080D02*
X+7354500Y-3221640D01*
X+7433875Y-3221640D01*
X+7449750Y-3236880D01*
X+7449750Y-3252120D01*
X+7433875Y-3267360D01*
X+7354500Y-3267360D01*
X+7433875Y-3267360D02*
X+7449750Y-3282600D01*
X+7449750Y-3313080D01*
X+7481500Y-3221640D02*
X+7481500Y-3313080D01*
X+7576750Y-3313080D01*
X+7624375Y-3236880D02*
X+7640250Y-3221640D01*
X+7687875Y-3221640D01*
X+7703750Y-3236880D01*
X+7703750Y-3252120D01*
X+7687875Y-3267360D01*
X+7640250Y-3267360D01*
X+7624375Y-3282600D01*
X+7624375Y-3313080D01*
X+7703750Y-3313080D01*
X+4260000Y-262000D02*
X+4260000Y-1278000D01*
X+6800000Y-262000D02*
X+6800000Y-1278000D01*
X+6800000Y-262000D02*
X+4260000Y-262000D01*
X+4260000Y-1278000D02*
X+6800000Y-1278000D01*
X+5403000Y-190880D02*
X+5403000Y-206120D01*
X+5418875Y-221360D01*
X+5482375Y-221360D01*
X+5498250Y-206120D01*
X+5498250Y-129920D01*
X+5545875Y-145160D02*
X+5561750Y-129920D01*
X+5609375Y-129920D01*
X+5625250Y-145160D01*
X+5625250Y-160400D01*
X+5609375Y-175640D01*
X+5561750Y-175640D01*
X+5545875Y-190880D01*
X+5545875Y-221360D01*
X+5625250Y-221360D01*
X+7781000Y-5760000D02*
X+7780173Y-5739517D01*
X+7773455Y-5698550D01*
X+7759437Y-5657583D01*
X+7736659Y-5616616D01*
X+7701859Y-5575771D01*
X+7660892Y-5544155D01*
X+7619925Y-5523608D01*
X+7578958Y-5511371D01*
X+7537991Y-5506238D01*
X+7527000Y-5506000D01*
X+7273000Y-5760000D02*
X+7273827Y-5739517D01*
X+7280545Y-5698550D01*
X+7294563Y-5657583D01*
X+7317341Y-5616616D01*
X+7352141Y-5575771D01*
X+7393108Y-5544155D01*
X+7434075Y-5523608D01*
X+7475042Y-5511371D01*
X+7516009Y-5506238D01*
X+7527000Y-5506000D01*
X+7273000Y-5760000D02*
X+7273827Y-5780483D01*
X+7280545Y-5821450D01*
X+7294563Y-5862417D01*
X+7317341Y-5903384D01*
X+7352141Y-5944229D01*
X+7393108Y-5975845D01*
X+7434075Y-5996392D01*
X+7475042Y-6008629D01*
X+7516009Y-6013762D01*
X+7527000Y-6014000D01*
X+7781000Y-5760000D02*
X+7780173Y-5780483D01*
X+7773455Y-5821450D01*
X+7759437Y-5862417D01*
X+7736659Y-5903384D01*
X+7701859Y-5944229D01*
X+7660892Y-5975845D01*
X+7619925Y-5996392D01*
X+7578958Y-6008629D01*
X+7537991Y-6013762D01*
X+7527000Y-6014000D01*
X+7717500Y-5887000D02*
X+7590500Y-5887000D01*
X+7654000Y-5950500D02*
X+7654000Y-5823500D01*
X+7400920Y-6054640D02*
X+7400920Y-6146080D01*
X+7496170Y-6146080D01*
X+7559670Y-6085120D02*
X+7591420Y-6054640D01*
X+7591420Y-6146080D01*
D24*
X+6973000Y-4868000D02*
X+6973000Y-5338000D01*
X+8027000Y-5338000D01*
X+8027000Y-5000000D01*
D23*
X+8073000Y-5128480D02*
X+8073000Y-5204680D01*
X+8088875Y-5219920D01*
X+8152375Y-5219920D01*
X+8168250Y-5204680D01*
X+8168250Y-5128480D01*
X+8215875Y-5143720D02*
X+8231750Y-5128480D01*
X+8279375Y-5128480D01*
X+8295250Y-5143720D01*
X+8295250Y-5158960D01*
X+8279375Y-5174200D01*
X+8295250Y-5189440D01*
X+8295250Y-5204680D01*
X+8279375Y-5219920D01*
X+8231750Y-5219920D01*
X+8215875Y-5204680D01*
X+8247625Y-5174200D02*
X+8279375Y-5174200D01*
X+7251000Y-3890000D02*
X+7250173Y-3869517D01*
X+7243455Y-3828550D01*
X+7229437Y-3787583D01*
X+7206659Y-3746616D01*
X+7171859Y-3705771D01*
X+7130892Y-3674155D01*
X+7089925Y-3653608D01*
X+7048958Y-3641371D01*
X+7007991Y-3636238D01*
X+6997000Y-3636000D01*
X+6743000Y-3890000D02*
X+6743827Y-3869517D01*
X+6750545Y-3828550D01*
X+6764563Y-3787583D01*
X+6787341Y-3746616D01*
X+6822141Y-3705771D01*
X+6863108Y-3674155D01*
X+6904075Y-3653608D01*
X+6945042Y-3641371D01*
X+6986009Y-3636238D01*
X+6997000Y-3636000D01*
X+6743000Y-3890000D02*
X+6743827Y-3910483D01*
X+6750545Y-3951450D01*
X+6764563Y-3992417D01*
X+6787341Y-4033384D01*
X+6822141Y-4074229D01*
X+6863108Y-4105845D01*
X+6904075Y-4126392D01*
X+6945042Y-4138629D01*
X+6986009Y-4143762D01*
X+6997000Y-4144000D01*
X+7251000Y-3890000D02*
X+7250173Y-3910483D01*
X+7243455Y-3951450D01*
X+7229437Y-3992417D01*
X+7206659Y-4033384D01*
X+7171859Y-4074229D01*
X+7130892Y-4105845D01*
X+7089925Y-4126392D01*
X+7048958Y-4138629D01*
X+7007991Y-4143762D01*
X+6997000Y-4144000D01*
X+7187500Y-4017000D02*
X+7060500Y-4017000D01*
X+7124000Y-4080500D02*
X+7124000Y-3953500D01*
X+6966170Y-4260840D02*
X+6950295Y-4276080D01*
X+6902670Y-4276080D01*
X+6870920Y-4245600D01*
X+6870920Y-4215120D01*
X+6902670Y-4184640D01*
X+6950295Y-4184640D01*
X+6966170Y-4199880D01*
X+7029670Y-4215120D02*
X+7061420Y-4184640D01*
X+7061420Y-4276080D01*
X+5004000Y-5627000D02*
X+5003173Y-5606517D01*
X+4996455Y-5565550D01*
X+4982437Y-5524583D01*
X+4959659Y-5483616D01*
X+4924859Y-5442771D01*
X+4883892Y-5411155D01*
X+4842925Y-5390608D01*
X+4801958Y-5378371D01*
X+4760991Y-5373238D01*
X+4750000Y-5373000D01*
X+4496000Y-5627000D02*
X+4496827Y-5606517D01*
X+4503545Y-5565550D01*
X+4517563Y-5524583D01*
X+4540341Y-5483616D01*
X+4575141Y-5442771D01*
X+4616108Y-5411155D01*
X+4657075Y-5390608D01*
X+4698042Y-5378371D01*
X+4739009Y-5373238D01*
X+4750000Y-5373000D01*
X+4496000Y-5627000D02*
X+4496827Y-5647483D01*
X+4503545Y-5688450D01*
X+4517563Y-5729417D01*
X+4540341Y-5770384D01*
X+4575141Y-5811229D01*
X+4616108Y-5842845D01*
X+4657075Y-5863392D01*
X+4698042Y-5875629D01*
X+4739009Y-5880762D01*
X+4750000Y-5881000D01*
X+5004000Y-5627000D02*
X+5003173Y-5647483D01*
X+4996455Y-5688450D01*
X+4982437Y-5729417D01*
X+4959659Y-5770384D01*
X+4924859Y-5811229D01*
X+4883892Y-5842845D01*
X+4842925Y-5863392D01*
X+4801958Y-5875629D01*
X+4760991Y-5880762D01*
X+4750000Y-5881000D01*
X+4623000Y-5817500D02*
X+4623000Y-5690500D01*
X+4559500Y-5754000D02*
X+4686500Y-5754000D01*
X+4440120Y-5659670D02*
X+4455360Y-5675545D01*
X+4455360Y-5723170D01*
X+4424880Y-5754920D01*
X+4394400Y-5754920D01*
X+4363920Y-5723170D01*
X+4363920Y-5675545D01*
X+4379160Y-5659670D01*
X+4379160Y-5612045D02*
X+4363920Y-5596170D01*
X+4363920Y-5548545D01*
X+4379160Y-5532670D01*
X+4394400Y-5532670D01*
X+4409640Y-5548545D01*
X+4409640Y-5596170D01*
X+4424880Y-5612045D01*
X+4455360Y-5612045D01*
X+4455360Y-5532670D01*
X+3849302Y-4133000D02*
X+3875178Y-4138080D01*
X+3899150Y-4152685D01*
X+3920740Y-4175862D01*
X+3939472Y-4206660D01*
X+3954871Y-4244125D01*
X+3966460Y-4287305D01*
X+3973762Y-4335248D01*
X+3976302Y-4387000D01*
X+3849302Y-4641000D02*
X+3875178Y-4635920D01*
X+3899150Y-4621315D01*
X+3920740Y-4598138D01*
X+3939472Y-4567340D01*
X+3954871Y-4529875D01*
X+3966460Y-4486695D01*
X+3973762Y-4438752D01*
X+3976302Y-4387000D01*
X+3849302Y-4133000D02*
X+3823426Y-4138080D01*
X+3799454Y-4152685D01*
X+3777864Y-4175862D01*
X+3759132Y-4206660D01*
X+3743733Y-4244125D01*
X+3732144Y-4287305D01*
X+3724842Y-4335248D01*
X+3722302Y-4387000D01*
X+3849302Y-4641000D02*
X+3823426Y-4635920D01*
X+3799454Y-4621315D01*
X+3777864Y-4598138D01*
X+3759132Y-4567340D01*
X+3743733Y-4529875D01*
X+3732144Y-4486695D01*
X+3724842Y-4438752D01*
X+3722302Y-4387000D01*
X+4103142Y-4428750D02*
X+4118382Y-4444625D01*
X+4118382Y-4492250D01*
X+4087902Y-4524000D01*
X+4057422Y-4524000D01*
X+4026942Y-4492250D01*
X+4026942Y-4444625D01*
X+4042182Y-4428750D01*
X+4042182Y-4381125D02*
X+4026942Y-4365250D01*
X+4026942Y-4317625D01*
X+4042182Y-4301750D01*
X+4057422Y-4301750D01*
X+4072662Y-4317625D01*
X+4087902Y-4301750D01*
X+4103142Y-4301750D01*
X+4118382Y-4317625D01*
X+4118382Y-4365250D01*
X+4103142Y-4381125D01*
X+4072662Y-4349375D02*
X+4072662Y-4317625D01*
X+5728600Y-6016700D02*
X+6668400Y-6016700D01*
X+6668400Y-5483300D01*
X+5728600Y-5483300D01*
X+5728600Y-6016700D01*
X+5728600Y-5750000D02*
X+5652400Y-5750000D01*
X+6668400Y-5750000D02*
X+6744600Y-5750000D01*
X+6516000Y-6016700D02*
X+6516000Y-5496000D01*
X+6071500Y-6148780D02*
X+6071500Y-6057340D01*
X+6135000Y-6057340D01*
X+6166750Y-6087820D01*
X+6166750Y-6118300D01*
X+6135000Y-6148780D01*
X+6071500Y-6148780D01*
X+6230250Y-6087820D02*
X+6262000Y-6057340D01*
X+6262000Y-6148780D01*
X+8402920Y-3874620D02*
X+8921080Y-3874620D01*
X+8921080Y-3607920D01*
X+8402920Y-3607920D01*
X+8402920Y-3874620D01*
X+8839800Y-3872080D02*
X+8839800Y-3610460D01*
X+8992200Y-3740000D02*
X+8921080Y-3740000D01*
X+8402920Y-3740000D02*
X+8331800Y-3740000D01*
X+8535000Y-4006700D02*
X+8535000Y-3915260D01*
X+8598500Y-3915260D01*
X+8630250Y-3945740D01*
X+8630250Y-3976220D01*
X+8598500Y-4006700D01*
X+8535000Y-4006700D01*
X+8677875Y-3930500D02*
X+8693750Y-3915260D01*
X+8741375Y-3915260D01*
X+8757250Y-3930500D01*
X+8757250Y-3945740D01*
X+8741375Y-3960980D01*
X+8693750Y-3960980D01*
X+8677875Y-3976220D01*
X+8677875Y-4006700D01*
X+8757250Y-4006700D01*
X+8330000Y-4253000D02*
X+8355876Y-4258080D01*
X+8379848Y-4272685D01*
X+8401438Y-4295862D01*
X+8420170Y-4326660D01*
X+8435569Y-4364125D01*
X+8447158Y-4407305D01*
X+8454460Y-4455248D01*
X+8457000Y-4507000D01*
X+8330000Y-4761000D02*
X+8355876Y-4755920D01*
X+8379848Y-4741315D01*
X+8401438Y-4718138D01*
X+8420170Y-4687340D01*
X+8435569Y-4649875D01*
X+8447158Y-4606695D01*
X+8454460Y-4558752D01*
X+8457000Y-4507000D01*
X+8330000Y-4253000D02*
X+8304124Y-4258080D01*
X+8280152Y-4272685D01*
X+8258562Y-4295862D01*
X+8239830Y-4326660D01*
X+8224431Y-4364125D01*
X+8212842Y-4407305D01*
X+8205540Y-4455248D01*
X+8203000Y-4507000D01*
X+8330000Y-4761000D02*
X+8304124Y-4755920D01*
X+8280152Y-4741315D01*
X+8258562Y-4718138D01*
X+8239830Y-4687340D01*
X+8224431Y-4649875D01*
X+8212842Y-4606695D01*
X+8205540Y-4558752D01*
X+8203000Y-4507000D01*
X+8573840Y-4538750D02*
X+8589080Y-4554625D01*
X+8589080Y-4602250D01*
X+8558600Y-4634000D01*
X+8528120Y-4634000D01*
X+8497640Y-4602250D01*
X+8497640Y-4554625D01*
X+8512880Y-4538750D01*
X+8558600Y-4411750D02*
X+8558600Y-4507000D01*
X+8497640Y-4443500D01*
X+8589080Y-4443500D01*
X+4591000Y-4330000D02*
X+6231000Y-4330000D01*
X+6231000Y-2080000D01*
X+4591000Y-2080000D01*
X+4591000Y-4330000D01*
X+6363080Y-3395500D02*
X+6271640Y-3395500D01*
X+6271640Y-3316125D01*
X+6286880Y-3300250D01*
X+6302120Y-3300250D01*
X+6317360Y-3316125D01*
X+6317360Y-3395500D01*
X+6317360Y-3316125D02*
X+6332600Y-3300250D01*
X+6363080Y-3300250D01*
X+6271640Y-3268500D02*
X+6363080Y-3268500D01*
X+6363080Y-3173250D01*
X+6302120Y-3109750D02*
X+6271640Y-3078000D01*
X+6363080Y-3078000D01*
X+5262920Y-1844620D02*
X+5781080Y-1844620D01*
X+5781080Y-1577920D01*
X+5262920Y-1577920D01*
X+5262920Y-1844620D01*
X+5699800Y-1842080D02*
X+5699800Y-1580460D01*
X+5852200Y-1710000D02*
X+5781080Y-1710000D01*
X+5262920Y-1710000D02*
X+5191800Y-1710000D01*
X+5395000Y-1976700D02*
X+5395000Y-1885260D01*
X+5458500Y-1885260D01*
X+5490250Y-1915740D01*
X+5490250Y-1946220D01*
X+5458500Y-1976700D01*
X+5395000Y-1976700D01*
X+5537875Y-1900500D02*
X+5553750Y-1885260D01*
X+5601375Y-1885260D01*
X+5617250Y-1900500D01*
X+5617250Y-1915740D01*
X+5601375Y-1930980D01*
X+5617250Y-1946220D01*
X+5617250Y-1961460D01*
X+5601375Y-1976700D01*
X+5553750Y-1976700D01*
X+5537875Y-1961460D01*
X+5569625Y-1930980D02*
X+5601375Y-1930980D01*
X+1735000Y-1007000D02*
X+2751000Y-1007000D01*
X+2751000Y-753000D01*
X+1735000Y-753000D01*
X+1735000Y-1007000D01*
X+2116000Y-1139080D02*
X+2116000Y-1047640D01*
X+2195375Y-1047640D01*
X+2211250Y-1062880D01*
X+2211250Y-1078120D01*
X+2195375Y-1093360D01*
X+2211250Y-1108600D01*
X+2211250Y-1123840D01*
X+2195375Y-1139080D01*
X+2116000Y-1139080D01*
X+2116000Y-1093360D02*
X+2195375Y-1093360D01*
X+2243000Y-1047640D02*
X+2243000Y-1139080D01*
X+2338250Y-1139080D01*
X+363000Y-4221000D02*
X+617000Y-4221000D01*
X+617000Y-2443000D01*
X+363000Y-2443000D01*
X+363000Y-4221000D01*
X+307120Y-3427250D02*
X+322360Y-3443125D01*
X+322360Y-3490750D01*
X+291880Y-3522500D01*
X+261400Y-3522500D01*
X+230920Y-3490750D01*
X+230920Y-3443125D01*
X+246160Y-3427250D01*
X+322360Y-3395500D02*
X+261400Y-3395500D01*
X+230920Y-3363750D01*
X+230920Y-3332000D01*
X+261400Y-3300250D01*
X+322360Y-3300250D01*
X+291880Y-3395500D02*
X+291880Y-3300250D01*
X+322360Y-3268500D02*
X+230920Y-3268500D01*
X+322360Y-3173250D01*
X+230920Y-3173250D01*
X+4200000Y-543200D02*
X+4200000Y-390800D01*
X+4279375Y-390800D01*
X+4295250Y-416200D01*
X+4295250Y-441600D01*
X+4279375Y-467000D01*
X+4200000Y-467000D01*
X+4342875Y-467000D02*
X+4422250Y-467000D01*
X+4469875Y-390800D02*
X+4533375Y-390800D01*
X+4501625Y-390800D02*
X+4501625Y-543200D01*
X+4469875Y-543200D02*
X+4533375Y-543200D01*
X+4581000Y-543200D02*
X+4581000Y-390800D01*
X+4676250Y-543200D01*
X+4676250Y-390800D01*
X+4898500Y-492400D02*
X+4930250Y-492400D01*
X+4930250Y-543200D01*
X+4866750Y-543200D01*
X+4835000Y-492400D01*
X+4835000Y-441600D01*
X+4866750Y-390800D01*
X+4914375Y-390800D01*
X+4930250Y-416200D01*
X+4962000Y-543200D02*
X+4962000Y-390800D01*
X+5057250Y-543200D01*
X+5057250Y-390800D01*
X+5089000Y-543200D02*
X+5089000Y-390800D01*
X+5152500Y-390800D01*
X+5184250Y-441600D01*
X+5184250Y-492400D01*
X+5152500Y-543200D01*
X+5089000Y-543200D01*
X+5374750Y-441600D02*
X+5406500Y-390800D01*
X+5406500Y-543200D01*
X+5485875Y-416200D02*
X+5501750Y-390800D01*
X+5549375Y-390800D01*
X+5565250Y-416200D01*
X+5565250Y-441600D01*
X+5549375Y-467000D01*
X+5501750Y-467000D01*
X+5485875Y-492400D01*
X+5485875Y-543200D01*
X+5565250Y-543200D01*
X+5597000Y-390800D02*
X+5597000Y-467000D01*
X+5644625Y-543200D01*
X+5692250Y-467000D01*
X+5692250Y-390800D01*
X+5851000Y-517800D02*
X+5866875Y-543200D01*
X+5930375Y-543200D01*
X+5946250Y-517800D01*
X+5946250Y-492400D01*
X+5930375Y-467000D01*
X+5866875Y-467000D01*
X+5851000Y-441600D01*
X+5851000Y-416200D01*
X+5866875Y-390800D01*
X+5930375Y-390800D01*
X+5946250Y-416200D01*
X+6041500Y-492400D02*
X+6073250Y-492400D01*
X+6073250Y-543200D01*
X+6009750Y-543200D01*
X+5978000Y-492400D01*
X+5978000Y-441600D01*
X+6009750Y-390800D01*
X+6057375Y-390800D01*
X+6073250Y-416200D01*
X+6105000Y-543200D02*
X+6105000Y-390800D01*
X+6200250Y-543200D01*
X+6200250Y-390800D01*
X+6359000Y-390800D02*
X+6359000Y-467000D01*
X+6406625Y-543200D01*
X+6454250Y-467000D01*
X+6454250Y-390800D01*
X+6581250Y-517800D02*
X+6565375Y-543200D01*
X+6517750Y-543200D01*
X+6486000Y-492400D01*
X+6486000Y-441600D01*
X+6517750Y-390800D01*
X+6565375Y-390800D01*
X+6581250Y-416200D01*
X+6708250Y-517800D02*
X+6692375Y-543200D01*
X+6644750Y-543200D01*
X+6613000Y-492400D01*
X+6613000Y-441600D01*
X+6644750Y-390800D01*
X+6692375Y-390800D01*
X+6708250Y-416200D01*
X+7200000Y-583200D02*
X+7200000Y-430800D01*
X+7295250Y-430800D02*
X+7295250Y-583200D01*
X+7200000Y-507000D02*
X+7295250Y-507000D01*
X+7327000Y-430800D02*
X+7327000Y-507000D01*
X+7374625Y-583200D01*
X+7422250Y-507000D01*
X+7422250Y-430800D01*
X+7469875Y-430800D02*
X+7533375Y-430800D01*
X+7501625Y-430800D02*
X+7501625Y-583200D01*
X+7469875Y-583200D02*
X+7533375Y-583200D01*
X+7708000Y-583200D02*
X+7708000Y-430800D01*
X+7803250Y-430800D02*
X+7803250Y-583200D01*
X+7708000Y-507000D02*
X+7803250Y-507000D01*
X+7835000Y-430800D02*
X+7835000Y-507000D01*
X+7882625Y-583200D01*
X+7930250Y-507000D01*
X+7930250Y-430800D01*
X+7962000Y-481600D02*
X+7993750Y-430800D01*
X+8025500Y-430800D01*
X+8057250Y-481600D01*
X+8057250Y-532400D01*
X+8025500Y-583200D01*
X+7993750Y-583200D01*
X+7962000Y-532400D01*
X+7962000Y-481600D01*
X+7106000Y-312000D02*
X+7106000Y-1328000D01*
X+8122000Y-312000D02*
X+8122000Y-1328000D01*
X+7106000Y-1328000D02*
X+8122000Y-1328000D01*
X+7106000Y-312000D02*
X+8122000Y-312000D01*
X+7487000Y-240880D02*
X+7487000Y-256120D01*
X+7502875Y-271360D01*
X+7566375Y-271360D01*
X+7582250Y-256120D01*
X+7582250Y-179920D01*
X+7709250Y-240880D02*
X+7614000Y-240880D01*
X+7677500Y-179920D01*
X+7677500Y-271360D01*
X+2906000Y-212000D02*
X+2906000Y-1228000D01*
X+3922000Y-212000D02*
X+3922000Y-1228000D01*
X+2906000Y-1228000D02*
X+3922000Y-1228000D01*
X+2906000Y-212000D02*
X+3922000Y-212000D01*
X+3287000Y-140880D02*
X+3287000Y-156120D01*
X+3302875Y-171360D01*
X+3366375Y-171360D01*
X+3382250Y-156120D01*
X+3382250Y-79920D01*
X+3509250Y-79920D02*
X+3429875Y-79920D01*
X+3429875Y-110400D01*
X+3493375Y-110400D01*
X+3509250Y-125640D01*
X+3509250Y-156120D01*
X+3493375Y-171360D01*
X+3445750Y-171360D01*
X+3429875Y-156120D01*
X+3000000Y-473200D02*
X+3000000Y-320800D01*
X+3079375Y-320800D01*
X+3095250Y-346200D01*
X+3095250Y-371600D01*
X+3079375Y-397000D01*
X+3000000Y-397000D01*
X+3079375Y-397000D02*
X+3095250Y-422400D01*
X+3095250Y-473200D01*
X+3127000Y-320800D02*
X+3222250Y-473200D01*
X+3127000Y-473200D02*
X+3222250Y-320800D01*
X+3254000Y-473200D02*
X+3254000Y-320800D01*
X+3317500Y-320800D01*
X+3349250Y-371600D01*
X+3349250Y-422400D01*
X+3317500Y-473200D01*
X+3254000Y-473200D01*
X+3508000Y-320800D02*
X+3603250Y-320800D01*
X+3555625Y-320800D02*
X+3555625Y-473200D01*
X+3635000Y-320800D02*
X+3730250Y-473200D01*
X+3635000Y-473200D02*
X+3730250Y-320800D01*
X+3762000Y-473200D02*
X+3762000Y-320800D01*
X+3825500Y-320800D01*
X+3857250Y-371600D01*
X+3857250Y-422400D01*
X+3825500Y-473200D01*
X+3762000Y-473200D01*
X+70000Y-5454800D02*
X+70000Y-5302400D01*
X+133500Y-5226200D01*
X+197000Y-5226200D01*
X+260500Y-5302400D01*
X+260500Y-5454800D01*
X+70000Y-5378600D02*
X+260500Y-5378600D01*
X+355750Y-5226200D02*
X+482750Y-5226200D01*
X+419250Y-5226200D02*
X+419250Y-5454800D01*
X+355750Y-5454800D02*
X+482750Y-5454800D01*
X+578000Y-5454800D02*
X+578000Y-5226200D01*
X+673250Y-5340500D01*
X+768500Y-5226200D01*
X+768500Y-5454800D01*
X+863750Y-5340500D02*
X+1022500Y-5340500D01*
X+1086000Y-5454800D02*
X+1086000Y-5226200D01*
X+1181250Y-5340500D01*
X+1276500Y-5226200D01*
X+1276500Y-5454800D01*
X+1340000Y-5302400D02*
X+1403500Y-5226200D01*
X+1467000Y-5226200D01*
X+1530500Y-5302400D01*
X+1530500Y-5378600D01*
X+1467000Y-5454800D01*
X+1403500Y-5454800D01*
X+1340000Y-5378600D01*
X+1340000Y-5302400D01*
X+1594000Y-5226200D02*
X+1784500Y-5226200D01*
X+1689250Y-5226200D02*
X+1689250Y-5454800D01*
X+1848000Y-5302400D02*
X+1911500Y-5226200D01*
X+1975000Y-5226200D01*
X+2038500Y-5302400D01*
X+2038500Y-5378600D01*
X+1975000Y-5454800D01*
X+1911500Y-5454800D01*
X+1848000Y-5378600D01*
X+1848000Y-5302400D01*
X+2102000Y-5454800D02*
X+2102000Y-5226200D01*
X+2260750Y-5226200D01*
X+2292500Y-5264300D01*
X+2292500Y-5302400D01*
X+2260750Y-5340500D01*
X+2102000Y-5340500D01*
X+2260750Y-5340500D02*
X+2292500Y-5378600D01*
X+2292500Y-5454800D01*
X+2356000Y-5416700D02*
X+2387750Y-5454800D01*
X+2514750Y-5454800D01*
X+2546500Y-5416700D01*
X+2546500Y-5378600D01*
X+2514750Y-5340500D01*
X+2387750Y-5340500D01*
X+2356000Y-5302400D01*
X+2356000Y-5264300D01*
X+2387750Y-5226200D01*
X+2514750Y-5226200D01*
X+2546500Y-5264300D01*
X+80000Y-5804800D02*
X+80000Y-5576200D01*
X+238750Y-5576200D01*
X+270500Y-5614300D01*
X+270500Y-5652400D01*
X+238750Y-5690500D01*
X+270500Y-5728600D01*
X+270500Y-5766700D01*
X+238750Y-5804800D01*
X+80000Y-5804800D01*
X+80000Y-5690500D02*
X+238750Y-5690500D01*
X+429250Y-5652400D02*
X+429250Y-5804800D01*
X+429250Y-5576200D02*
X+429250Y-5576200D01*
X+588000Y-5576200D02*
X+588000Y-5804800D01*
X+588000Y-5766700D02*
X+778500Y-5652400D01*
X+651500Y-5728600D02*
X+778500Y-5804800D01*
X+842000Y-5728600D02*
X+1032500Y-5728600D01*
X+1032500Y-5690500D01*
X+1000750Y-5652400D01*
X+873750Y-5652400D01*
X+842000Y-5690500D01*
X+842000Y-5766700D01*
X+873750Y-5804800D01*
X+1000750Y-5804800D01*
X+1381750Y-5576200D02*
X+1508750Y-5576200D01*
X+1445250Y-5576200D02*
X+1445250Y-5804800D01*
X+1381750Y-5804800D02*
X+1508750Y-5804800D01*
X+1604000Y-5690500D02*
X+1635750Y-5652400D01*
X+1762750Y-5652400D01*
X+1794500Y-5690500D01*
X+1794500Y-5766700D01*
X+1762750Y-5804800D01*
X+1635750Y-5804800D01*
X+1604000Y-5766700D01*
X+1604000Y-5690500D01*
X+1858000Y-5576200D02*
X+2048500Y-5576200D01*
X+1953250Y-5576200D02*
X+1953250Y-5804800D01*
X+2556500Y-5766700D02*
X+2524750Y-5804800D01*
X+2429500Y-5804800D01*
X+2366000Y-5728600D01*
X+2366000Y-5652400D01*
X+2429500Y-5576200D01*
X+2524750Y-5576200D01*
X+2556500Y-5614300D01*
X+2715250Y-5652400D02*
X+2715250Y-5804800D01*
X+2715250Y-5576200D02*
X+2715250Y-5576200D01*
X+2874000Y-5804800D02*
X+2874000Y-5652400D01*
X+2874000Y-5690500D02*
X+2905750Y-5652400D01*
X+3032750Y-5652400D01*
X+3064500Y-5690500D01*
X+3318500Y-5690500D02*
X+3286750Y-5652400D01*
X+3159750Y-5652400D01*
X+3128000Y-5690500D01*
X+3128000Y-5766700D01*
X+3159750Y-5804800D01*
X+3286750Y-5804800D01*
X+3318500Y-5766700D01*
X+3382000Y-5652400D02*
X+3382000Y-5766700D01*
X+3413750Y-5804800D01*
X+3540750Y-5804800D01*
X+3572500Y-5766700D01*
X+3572500Y-5804800D02*
X+3572500Y-5652400D01*
X+3731250Y-5652400D02*
X+3731250Y-5804800D01*
X+3731250Y-5576200D02*
X+3731250Y-5576200D01*
X+3921750Y-5576200D02*
X+3921750Y-5766700D01*
X+3953500Y-5804800D01*
X+4048750Y-5804800D01*
X+4080500Y-5766700D01*
X+3890000Y-5652400D02*
X+4048750Y-5652400D01*
M02*
