G04 PROTEUS GERBER X2 FILE*
%TF.GenerationSoftware,Labcenter,Proteus,8.9-SP2-Build28501*%
%TF.CreationDate,2023-07-27T06:52:36+00:00*%
%TF.FileFunction,Copper,L2,Bot*%
%TF.FilePolarity,Positive*%
%TF.Part,Single*%
%TF.SameCoordinates,{a6dc1c72-05ea-40b1-9d21-e55aeb3cbc9d}*%
%FSLAX45Y45*%
%MOMM*%
G01*
%TA.AperFunction,Conductor*%
%ADD10C,1.524000*%
%ADD21C,3.556000*%
%ADD22C,1.778000*%
%TA.AperFunction,ViaPad*%
%ADD11C,1.270000*%
%TA.AperFunction,ComponentPad*%
%ADD12R,1.778000X1.778000*%
%ADD13C,1.778000*%
%TA.AperFunction,ComponentPad*%
%ADD14C,2.540000*%
%ADD15C,3.048000*%
%TA.AperFunction,ComponentPad*%
%ADD16C,2.032000*%
%TA.AperFunction,ComponentPad*%
%ADD17R,2.020000X2.020000*%
%ADD18C,2.020000*%
%TA.AperFunction,ComponentPad*%
%ADD19C,2.286000*%
%TA.AperFunction,ComponentPad*%
%ADD70R,2.032000X2.032000*%
%TA.AperFunction,OtherPad,Unknown*%
%ADD71C,2.540000*%
%TA.AperFunction,Profile*%
%ADD20C,0.203200*%
%TD.AperFunction*%
D10*
X+7160000Y-5000000D02*
X+7500000Y-5000000D01*
X+7840000Y-5000000D02*
X+7840000Y-4123375D01*
X+7836000Y-4123375D01*
X+7836000Y-4119375D01*
X+7840000Y-4123375D01*
X+4750000Y-5754000D02*
X+4754877Y-5758877D01*
X+4750000Y-5754000D01*
X+490000Y-3332000D02*
X+966000Y-3332000D01*
X+990000Y-3356000D01*
X+490000Y-3586000D02*
X+494000Y-3590000D01*
X+970000Y-3590000D01*
X+990000Y-3610000D01*
X+490000Y-3840000D02*
X+740000Y-3840000D01*
X+740000Y-4590000D01*
X+1374066Y-4590000D01*
X+1387466Y-4576600D01*
X+1370533Y-3569067D02*
X+1370533Y-3250533D01*
X+1225000Y-3105000D01*
X+1228000Y-3102000D01*
X+990000Y-3102000D01*
X+7330000Y-5220000D02*
X+7200000Y-5350000D01*
X+6640000Y-5350000D01*
X+5920000Y-6070000D01*
X+4927026Y-6070000D01*
X+4754877Y-5897851D01*
X+4754877Y-5758877D01*
X+7500000Y-5000000D02*
X+7500000Y-4234350D01*
X+7485176Y-4219526D01*
X+7051041Y-4219526D01*
X+6870000Y-4038485D01*
X+6870000Y-3890000D01*
X+7166209Y-3894000D02*
X+7128000Y-3894000D01*
X+7124000Y-3890000D01*
X+7124000Y-3851791D01*
X+7166209Y-3894000D01*
X+7610625Y-3894000D01*
X+7764001Y-3894000D01*
X+7836000Y-3965999D01*
X+7836000Y-4119375D01*
X+4750000Y-5500000D02*
X+5130000Y-5500000D01*
X+5250000Y-5500000D01*
X+5500000Y-5750000D01*
X+5760000Y-5740000D01*
X+6510000Y-5005702D01*
X+7154298Y-5005702D01*
X+7160000Y-5000000D01*
X+490000Y-3078000D02*
X+750000Y-3080000D01*
X+750000Y-2200000D01*
X+740000Y-2187345D01*
X+921425Y-2005920D01*
X+1270051Y-2005920D01*
X+1740000Y-2475869D01*
X+1740000Y-3860000D01*
X+994000Y-3860000D01*
X+990000Y-3864000D01*
X+7360000Y-820000D02*
X+7025397Y-1154603D01*
X+7025397Y-1623000D01*
X+7000000Y-1750000D01*
D21*
X+5400000Y-2330000D02*
X+5400000Y-2171875D01*
X+5532500Y-2039375D01*
X+5532500Y-747500D01*
X+5580000Y-700000D01*
X+5530000Y-770000D01*
D10*
X+6000000Y-2530000D02*
X+6000000Y-1740000D01*
X+6038000Y-1702000D01*
X+6030000Y-1710000D01*
X+6038000Y-770000D02*
X+6038000Y-1702000D01*
X+3668000Y-720000D02*
X+4178218Y-1230218D01*
X+4178218Y-2385991D01*
X+4178218Y-2984497D01*
X+4046839Y-3115876D01*
X+3379072Y-3115876D01*
X+3364900Y-3101704D01*
X+3276000Y-3102000D01*
X+3160000Y-720000D02*
X+3160000Y-790000D01*
X+3640000Y-1270000D01*
X+3886264Y-1516264D01*
X+3886264Y-2845818D01*
X+3243966Y-2845818D01*
X+3236667Y-2838519D01*
X+3276000Y-2848000D01*
X+5022000Y-770000D02*
X+5022000Y-1702000D01*
X+5014000Y-1710000D01*
X+4800000Y-2530000D02*
X+4800000Y-1924000D01*
X+5014000Y-1710000D01*
X+6546000Y-2239251D02*
X+6446001Y-2139252D01*
X+6446000Y-2139252D01*
X+6446000Y-870000D01*
X+6546000Y-770000D01*
D21*
X+6546000Y-2239251D01*
D10*
X+7868000Y-820000D02*
X+8749983Y-820000D01*
X+9023352Y-1093369D01*
X+9023352Y-2251311D01*
X+8985999Y-2288664D01*
X+8924663Y-2350000D01*
X+8420000Y-2350000D01*
X+8220000Y-2950000D02*
X+8220000Y-3670000D01*
X+8200000Y-3690000D01*
X+8154000Y-3740000D01*
X+8330000Y-4380000D02*
X+8154000Y-4204000D01*
X+8154000Y-3740000D01*
X+6870000Y-3890000D02*
X+6805077Y-3825077D01*
X+6805077Y-3525447D01*
X+7945033Y-3525447D01*
X+8045286Y-3625700D01*
X+8154000Y-3740000D01*
X+7840000Y-5000000D02*
X+8047321Y-4792679D01*
X+8050174Y-4792679D01*
X+8208853Y-4634000D01*
X+8330000Y-4634000D01*
X+9170000Y-3740000D02*
X+9170000Y-4280000D01*
X+8790000Y-4660000D01*
X+8356000Y-4660000D01*
X+8330000Y-4634000D01*
X+7651302Y-2241302D02*
X+8142604Y-1750000D01*
X+8202584Y-1750000D01*
X+8220000Y-1750000D01*
X+8202584Y-1750000D01*
X+8142604Y-1750000D01*
X+8142603Y-1750000D01*
X+7651302Y-2241302D01*
X+7529235Y-2363368D01*
X+6670117Y-2363368D01*
X+6546000Y-2239251D01*
X+9170000Y-3740000D02*
X+9170000Y-3000001D01*
X+8819999Y-2650000D01*
X+7840000Y-2650000D01*
X+7651302Y-2461302D01*
X+7651302Y-2241302D01*
X+3276000Y-2340000D02*
X+2624000Y-1688000D01*
X+2624000Y-880000D01*
X+490000Y-2824000D02*
X+214000Y-2824000D01*
X+210000Y-2820000D01*
X+170000Y-2780000D01*
X+170000Y-1960222D02*
X+137075Y-1927297D01*
X+1794372Y-270000D01*
X+1810000Y-270000D01*
X+2100000Y-270000D01*
X+2116209Y-270000D01*
X+2116209Y-844950D01*
X+2138160Y-866901D01*
X+2116000Y-880000D01*
D22*
X+5022000Y-770000D02*
X+5022000Y-270000D01*
X+2116209Y-270000D01*
X+210000Y-2820000D02*
X+486000Y-2820000D01*
X+490000Y-2824000D01*
D10*
X+2370000Y-880000D02*
X+2370000Y-2231540D01*
X+2738460Y-2600000D01*
X+3270000Y-2600000D01*
X+3276000Y-2594000D01*
X+1862000Y-880000D02*
X+1680000Y-880000D01*
X+999876Y-1560124D01*
X+993255Y-1560124D01*
X+490000Y-2063379D01*
X+490000Y-2570000D01*
D21*
X+4800000Y-3750000D02*
X+5438744Y-3111256D01*
X+6298639Y-3111256D01*
X+6550000Y-2859895D01*
X+6550000Y-2504827D01*
X+6546000Y-2504827D01*
X+6546000Y-2239251D01*
D10*
X+170000Y-2820000D02*
X+170000Y-2780000D01*
X+170000Y-1960222D01*
X+170000Y-1927297D01*
D22*
X+1810000Y-270000D02*
X+170000Y-1910000D01*
X+170000Y-1927297D01*
X+170000Y-2820000D02*
X+210000Y-2820000D01*
D10*
X+7670000Y-5220000D02*
X+7670000Y-5744000D01*
X+7654000Y-5760000D01*
X+7330000Y-5220000D02*
X+7330000Y-5690000D01*
X+7400000Y-5760000D01*
X+6897000Y-5750000D02*
X+7213326Y-6066326D01*
X+7517340Y-6066326D01*
X+7654000Y-5929666D01*
X+7654000Y-5760000D01*
X+4750000Y-5500000D02*
X+4750000Y-4781196D01*
X+4236748Y-4267944D01*
X+3857246Y-4267944D01*
X+3849302Y-4260000D01*
X+3849302Y-4003302D01*
X+3710000Y-3864000D01*
X+3612688Y-3864000D01*
X+3276000Y-3864000D01*
X+3710000Y-3864000D02*
X+3862528Y-3864000D01*
X+4231120Y-3495408D01*
X+4800000Y-2926528D01*
X+4800000Y-2530000D01*
X+3276000Y-4118000D02*
X+3276000Y-4306000D01*
X+3510000Y-4540000D01*
X+3823302Y-4540000D01*
X+3849302Y-4514000D01*
X+3849302Y-5513693D01*
X+4099066Y-5763457D01*
X+4740543Y-5763457D01*
X+4750000Y-5754000D01*
X+1862000Y-880000D02*
X+1870000Y-2100000D01*
X+2480000Y-2912824D01*
X+2480000Y-3720274D01*
X+2869726Y-4110000D01*
X+3268000Y-4110000D01*
X+3276000Y-4118000D01*
D11*
X+1387466Y-4576600D03*
X+1370533Y-3569067D03*
D12*
X+990000Y-2340000D03*
D13*
X+990000Y-2594000D03*
X+990000Y-2848000D03*
X+990000Y-3102000D03*
X+990000Y-3356000D03*
X+990000Y-3610000D03*
X+990000Y-3864000D03*
X+990000Y-4118000D03*
X+3276000Y-2340000D03*
X+3276000Y-2594000D03*
X+3276000Y-2848000D03*
X+3276000Y-3102000D03*
X+3276000Y-3356000D03*
X+3276000Y-3610000D03*
X+3276000Y-3864000D03*
X+3276000Y-4118000D03*
D14*
X+8220000Y-2950000D03*
X+8220000Y-1750000D03*
X+8420000Y-2350000D03*
X+7000000Y-2950000D03*
X+7000000Y-1750000D03*
D15*
X+4514000Y-770000D03*
X+5022000Y-770000D03*
X+5530000Y-770000D03*
X+6038000Y-770000D03*
X+6546000Y-770000D03*
D16*
X+7654000Y-5760000D03*
X+7400000Y-5760000D03*
D17*
X+7840000Y-5000000D03*
D18*
X+7670000Y-5220000D03*
X+7500000Y-5000000D03*
X+7330000Y-5220000D03*
X+7160000Y-5000000D03*
D16*
X+7124000Y-3890000D03*
X+6870000Y-3890000D03*
X+4750000Y-5754000D03*
X+4750000Y-5500000D03*
D13*
X+3849302Y-4260000D03*
X+3849302Y-4514000D03*
D19*
X+5500000Y-5750000D03*
X+6897000Y-5750000D03*
X+8154000Y-3740000D03*
X+9170000Y-3740000D03*
D13*
X+8330000Y-4380000D03*
X+8330000Y-4634000D03*
D14*
X+6000000Y-2530000D03*
X+4800000Y-2530000D03*
X+5400000Y-2330000D03*
X+6000000Y-3750000D03*
X+4800000Y-3750000D03*
D19*
X+5014000Y-1710000D03*
X+6030000Y-1710000D03*
D70*
X+2624000Y-880000D03*
X+2370000Y-880000D03*
X+2116000Y-880000D03*
X+1862000Y-880000D03*
X+490000Y-4094000D03*
X+490000Y-3840000D03*
X+490000Y-3586000D03*
X+490000Y-3332000D03*
X+490000Y-3078000D03*
X+490000Y-2824000D03*
X+490000Y-2570000D03*
D15*
X+7360000Y-820000D03*
X+7868000Y-820000D03*
X+3160000Y-720000D03*
X+3668000Y-720000D03*
D71*
X+320000Y-6010000D03*
X+300000Y-300000D03*
X+9200000Y-6000000D03*
X+9230000Y-300000D03*
D20*
X+0Y-6250000D02*
X+9500000Y-6250000D01*
X+9500000Y+0D01*
X+0Y+0D01*
X+0Y-6250000D01*
M02*
