G04 PROTEUS GERBER X2 FILE*
%TF.GenerationSoftware,Labcenter,Proteus,8.9-SP2-Build28501*%
%TF.CreationDate,2023-07-27T06:52:36+00:00*%
%TF.FileFunction,Soldermask,Bot*%
%TF.FilePolarity,Negative*%
%TF.Part,Single*%
%TF.SameCoordinates,{a6dc1c72-05ea-40b1-9d21-e55aeb3cbc9d}*%
%FSLAX45Y45*%
%MOMM*%
G01*
%TA.AperFunction,Material*%
%ADD25C,1.524000*%
%AMPPAD018*
4,1,68,
1.143000,0.889000,
1.143000,-0.889000,
1.141720,-0.915400,
1.137950,-0.940930,
1.131800,-0.965490,
1.123400,-0.988960,
1.112870,-1.011220,
1.100300,-1.032150,
1.085840,-1.051650,
1.069580,-1.069580,
1.051640,-1.085840,
1.032150,-1.100300,
1.011220,-1.112860,
0.988960,-1.123400,
0.965490,-1.131800,
0.940930,-1.137950,
0.915400,-1.141720,
0.889000,-1.143000,
-0.889000,-1.143000,
-0.915400,-1.141720,
-0.940930,-1.137950,
-0.965490,-1.131800,
-0.988960,-1.123400,
-1.011220,-1.112860,
-1.032150,-1.100300,
-1.051640,-1.085840,
-1.069580,-1.069580,
-1.085840,-1.051650,
-1.100300,-1.032150,
-1.112870,-1.011220,
-1.123400,-0.988960,
-1.131800,-0.965490,
-1.137950,-0.940930,
-1.141720,-0.915400,
-1.143000,-0.889000,
-1.143000,0.889000,
-1.141720,0.915400,
-1.137950,0.940930,
-1.131800,0.965490,
-1.123400,0.988960,
-1.112870,1.011220,
-1.100300,1.032150,
-1.085840,1.051650,
-1.069580,1.069580,
-1.051640,1.085840,
-1.032150,1.100300,
-1.011220,1.112860,
-0.988960,1.123400,
-0.965490,1.131800,
-0.940930,1.137950,
-0.915400,1.141720,
-0.889000,1.143000,
0.889000,1.143000,
0.915400,1.141720,
0.940930,1.137950,
0.965490,1.131800,
0.988960,1.123400,
1.011220,1.112860,
1.032150,1.100300,
1.051640,1.085840,
1.069580,1.069580,
1.085840,1.051650,
1.100300,1.032150,
1.112870,1.011220,
1.123400,0.988960,
1.131800,0.965490,
1.137950,0.940930,
1.141720,0.915400,
1.143000,0.889000,
0*%
%TA.AperFunction,Material*%
%ADD26PPAD018*%
%ADD27C,2.286000*%
%TA.AperFunction,Material*%
%ADD28C,2.794000*%
%ADD29C,3.302000*%
%AMPPAD022*
4,1,36,
1.010000,-1.060000,
-1.010000,-1.060000,
-1.020220,-1.059000,
-1.029680,-1.056140,
-1.038180,-1.051590,
-1.045540,-1.045540,
-1.051590,-1.038180,
-1.056140,-1.029680,
-1.059000,-1.020220,
-1.060000,-1.010000,
-1.060000,1.010000,
-1.059000,1.020220,
-1.056140,1.029680,
-1.051590,1.038180,
-1.045540,1.045540,
-1.038180,1.051590,
-1.029680,1.056140,
-1.020220,1.059000,
-1.010000,1.060000,
1.010000,1.060000,
1.020220,1.059000,
1.029680,1.056140,
1.038180,1.051590,
1.045540,1.045540,
1.051590,1.038180,
1.056140,1.029680,
1.059000,1.020220,
1.060000,1.010000,
1.060000,-1.010000,
1.059000,-1.020220,
1.056140,-1.029680,
1.051590,-1.038180,
1.045540,-1.045540,
1.038180,-1.051590,
1.029680,-1.056140,
1.020220,-1.059000,
1.010000,-1.060000,
0*%
%ADD72PPAD022*%
%ADD73C,2.120000*%
%TA.AperFunction,Material*%
%ADD30C,2.032000*%
%ADD31C,2.540000*%
%AMPPAD026*
4,1,36,
1.016000,-1.143000,
-1.016000,-1.143000,
-1.041970,-1.140470,
-1.065980,-1.133200,
-1.087580,-1.121650,
-1.106290,-1.106290,
-1.121650,-1.087570,
-1.133200,-1.065980,
-1.140470,-1.041970,
-1.143000,-1.016000,
-1.143000,1.016000,
-1.140470,1.041970,
-1.133200,1.065980,
-1.121650,1.087570,
-1.106290,1.106290,
-1.087580,1.121650,
-1.065980,1.133200,
-1.041970,1.140470,
-1.016000,1.143000,
1.016000,1.143000,
1.041970,1.140470,
1.065980,1.133200,
1.087580,1.121650,
1.106290,1.106290,
1.121650,1.087570,
1.133200,1.065980,
1.140470,1.041970,
1.143000,1.016000,
1.143000,-1.016000,
1.140470,-1.041970,
1.133200,-1.065980,
1.121650,-1.087570,
1.106290,-1.106290,
1.087580,-1.121650,
1.065980,-1.133200,
1.041970,-1.140470,
1.016000,-1.143000,
0*%
%TA.AperFunction,Material*%
%ADD32PPAD026*%
%AMPPAD027*
4,1,36,
-1.143000,-1.016000,
-1.143000,1.016000,
-1.140470,1.041970,
-1.133200,1.065980,
-1.121650,1.087580,
-1.106290,1.106290,
-1.087570,1.121650,
-1.065980,1.133200,
-1.041970,1.140470,
-1.016000,1.143000,
1.016000,1.143000,
1.041970,1.140470,
1.065980,1.133200,
1.087570,1.121650,
1.106290,1.106290,
1.121650,1.087580,
1.133200,1.065980,
1.140470,1.041970,
1.143000,1.016000,
1.143000,-1.016000,
1.140470,-1.041970,
1.133200,-1.065980,
1.121650,-1.087580,
1.106290,-1.106290,
1.087570,-1.121650,
1.065980,-1.133200,
1.041970,-1.140470,
1.016000,-1.143000,
-1.016000,-1.143000,
-1.041970,-1.140470,
-1.065980,-1.133200,
-1.087570,-1.121650,
-1.106290,-1.106290,
-1.121650,-1.087580,
-1.133200,-1.065980,
-1.140470,-1.041970,
-1.143000,-1.016000,
0*%
%TA.AperFunction,Material*%
%ADD33PPAD027*%
%TA.AperFunction,Material*%
%ADD34C,3.048000*%
%TA.AperFunction,Profile*%
%ADD20C,0.203200*%
%TD.AperFunction*%
D25*
X+1387466Y-4576600D03*
X+1370533Y-3569067D03*
D26*
X+990000Y-2340000D03*
D27*
X+990000Y-2594000D03*
X+990000Y-2848000D03*
X+990000Y-3102000D03*
X+990000Y-3356000D03*
X+990000Y-3610000D03*
X+990000Y-3864000D03*
X+990000Y-4118000D03*
X+3276000Y-2340000D03*
X+3276000Y-2594000D03*
X+3276000Y-2848000D03*
X+3276000Y-3102000D03*
X+3276000Y-3356000D03*
X+3276000Y-3610000D03*
X+3276000Y-3864000D03*
X+3276000Y-4118000D03*
D28*
X+8220000Y-2950000D03*
X+8220000Y-1750000D03*
X+8420000Y-2350000D03*
X+7000000Y-2950000D03*
X+7000000Y-1750000D03*
D29*
X+4514000Y-770000D03*
X+5022000Y-770000D03*
X+5530000Y-770000D03*
X+6038000Y-770000D03*
X+6546000Y-770000D03*
D27*
X+7654000Y-5760000D03*
X+7400000Y-5760000D03*
D72*
X+7840000Y-5000000D03*
D73*
X+7670000Y-5220000D03*
X+7500000Y-5000000D03*
X+7330000Y-5220000D03*
X+7160000Y-5000000D03*
D27*
X+7124000Y-3890000D03*
X+6870000Y-3890000D03*
X+4750000Y-5754000D03*
X+4750000Y-5500000D03*
D30*
X+3849302Y-4260000D03*
X+3849302Y-4514000D03*
D31*
X+5500000Y-5750000D03*
X+6897000Y-5750000D03*
X+8154000Y-3740000D03*
X+9170000Y-3740000D03*
D30*
X+8330000Y-4380000D03*
X+8330000Y-4634000D03*
D28*
X+6000000Y-2530000D03*
X+4800000Y-2530000D03*
X+5400000Y-2330000D03*
X+6000000Y-3750000D03*
X+4800000Y-3750000D03*
D31*
X+5014000Y-1710000D03*
X+6030000Y-1710000D03*
D32*
X+2624000Y-880000D03*
X+2370000Y-880000D03*
X+2116000Y-880000D03*
X+1862000Y-880000D03*
D33*
X+490000Y-4094000D03*
X+490000Y-3840000D03*
X+490000Y-3586000D03*
X+490000Y-3332000D03*
X+490000Y-3078000D03*
X+490000Y-2824000D03*
X+490000Y-2570000D03*
D29*
X+7360000Y-820000D03*
X+7868000Y-820000D03*
X+3160000Y-720000D03*
X+3668000Y-720000D03*
D34*
X+320000Y-6010000D03*
X+300000Y-300000D03*
X+9200000Y-6000000D03*
X+9230000Y-300000D03*
D20*
X+0Y-6250000D02*
X+9500000Y-6250000D01*
X+9500000Y+0D01*
X+0Y+0D01*
X+0Y-6250000D01*
M02*
