G04 PROTEUS GERBER X2 FILE*
%TF.GenerationSoftware,Labcenter,Proteus,8.9-SP2-Build28501*%
%TF.CreationDate,2023-07-27T06:52:36+00:00*%
%TF.FileFunction,AssemblyDrawing,Top*%
%TF.FilePolarity,Positive*%
%TF.Part,Single*%
%TF.SameCoordinates,{a6dc1c72-05ea-40b1-9d21-e55aeb3cbc9d}*%
%FSLAX45Y45*%
%MOMM*%
G01*
%TA.AperFunction,Profile*%
%ADD20C,0.203200*%
%TA.AperFunction,Material*%
%ADD23C,0.203200*%
%ADD35C,0.711200*%
%ADD36C,1.149770*%
%ADD37C,0.567580*%
%ADD38C,1.219200*%
%ADD39C,0.621790*%
%ADD40C,0.050800*%
%ADD41C,0.812800*%
%ADD42C,0.191010*%
%ADD43C,0.808000*%
%ADD44C,0.294000*%
%ADD45C,0.164590*%
%ADD46C,0.914400*%
%ADD47C,0.332230*%
%ADD48C,0.172210*%
%ADD49C,0.345440*%
%TD.AperFunction*%
D20*
X+0Y-6250000D02*
X+9500000Y-6250000D01*
X+9500000Y+0D01*
X+0Y+0D01*
X+0Y-6250000D01*
D23*
X+852840Y-5017160D02*
X+3413160Y-5017160D01*
X+3413160Y-1567840D01*
X+852840Y-1567840D01*
X+852840Y-5017160D01*
D35*
X+990000Y-2340000D02*
X+990000Y-2340000D01*
D36*
X+1788068Y-4212318D02*
X+2362955Y-4212318D01*
X+2477932Y-4097341D01*
X+2477932Y-3637432D01*
X+2362955Y-3522455D01*
X+1788068Y-3522455D01*
X+2018023Y-3062546D02*
X+1788068Y-2832591D01*
X+2477932Y-2832591D01*
D23*
X+6409840Y-3191160D02*
X+8680160Y-3191160D01*
X+8680160Y-1530840D01*
X+6409840Y-1530840D01*
X+6409840Y-3191160D01*
D37*
X+6863904Y-2531274D02*
X+6863904Y-2190726D01*
X+7147694Y-2190726D01*
X+7204452Y-2247484D01*
X+7204452Y-2304242D01*
X+7147694Y-2361000D01*
X+6863904Y-2361000D01*
X+7147694Y-2361000D02*
X+7204452Y-2417758D01*
X+7204452Y-2531274D01*
X+7317968Y-2190726D02*
X+7317968Y-2531274D01*
X+7658516Y-2531274D01*
X+7828790Y-2247484D02*
X+7885548Y-2190726D01*
X+8055822Y-2190726D01*
X+8112580Y-2247484D01*
X+8112580Y-2304242D01*
X+8055822Y-2361000D01*
X+7885548Y-2361000D01*
X+7828790Y-2417758D01*
X+7828790Y-2531274D01*
X+8112580Y-2531274D01*
D23*
X+4249840Y-1288160D02*
X+6810160Y-1288160D01*
X+6810160Y-251840D01*
X+4249840Y-251840D01*
X+4249840Y-1288160D01*
D38*
X+4514000Y-770000D02*
X+4514000Y-770000D01*
D39*
X+5032567Y-832180D02*
X+5032567Y-894359D01*
X+5094746Y-956538D01*
X+5343462Y-956538D01*
X+5405641Y-894359D01*
X+5405641Y-583463D01*
X+5592179Y-645642D02*
X+5654358Y-583463D01*
X+5840895Y-583463D01*
X+5903074Y-645642D01*
X+5903074Y-707821D01*
X+5840895Y-770000D01*
X+5654358Y-770000D01*
X+5592179Y-832180D01*
X+5592179Y-956538D01*
X+5903074Y-956538D01*
D40*
X+7811900Y-5760000D02*
X+7810982Y-5737186D01*
X+7803529Y-5691557D01*
X+7787982Y-5645928D01*
X+7762740Y-5600299D01*
X+7724198Y-5554769D01*
X+7678569Y-5519273D01*
X+7632940Y-5496153D01*
X+7587311Y-5482300D01*
X+7541682Y-5476354D01*
X+7527920Y-5476020D01*
X+7243940Y-5760000D02*
X+7244858Y-5737186D01*
X+7252311Y-5691557D01*
X+7267858Y-5645928D01*
X+7293100Y-5600299D01*
X+7331642Y-5554769D01*
X+7377271Y-5519273D01*
X+7422900Y-5496153D01*
X+7468529Y-5482300D01*
X+7514158Y-5476354D01*
X+7527920Y-5476020D01*
X+7243940Y-5760000D02*
X+7244858Y-5782814D01*
X+7252311Y-5828443D01*
X+7267858Y-5874072D01*
X+7293100Y-5919701D01*
X+7331642Y-5965231D01*
X+7377271Y-6000727D01*
X+7422900Y-6023847D01*
X+7468529Y-6037700D01*
X+7514158Y-6043646D01*
X+7527920Y-6043980D01*
X+7811900Y-5760000D02*
X+7810982Y-5782814D01*
X+7803529Y-5828443D01*
X+7787982Y-5874072D01*
X+7762740Y-5919701D01*
X+7724198Y-5965231D01*
X+7678569Y-6000727D01*
X+7632940Y-6023847D01*
X+7587311Y-6037700D01*
X+7541682Y-6043646D01*
X+7527920Y-6043980D01*
D41*
X+7400000Y-5760000D02*
X+7400000Y-5760000D01*
D42*
X+7375110Y-5702696D02*
X+7375110Y-5817304D01*
X+7489717Y-5817304D01*
X+7566122Y-5740899D02*
X+7604325Y-5702696D01*
X+7604325Y-5817304D01*
D23*
X+6963000Y-5348000D02*
X+8037000Y-5348000D01*
X+8037000Y-4858000D01*
X+6963000Y-4858000D01*
X+6963000Y-5348000D01*
D43*
X+7840000Y-5000000D02*
X+7840000Y-5000000D01*
D44*
X+7264800Y-5014800D02*
X+7264800Y-5161800D01*
X+7294200Y-5191200D01*
X+7411800Y-5191200D01*
X+7441200Y-5161800D01*
X+7441200Y-5014800D01*
X+7529400Y-5044200D02*
X+7558800Y-5014800D01*
X+7647000Y-5014800D01*
X+7676400Y-5044200D01*
X+7676400Y-5073600D01*
X+7647000Y-5103000D01*
X+7676400Y-5132400D01*
X+7676400Y-5161800D01*
X+7647000Y-5191200D01*
X+7558800Y-5191200D01*
X+7529400Y-5161800D01*
X+7588200Y-5103000D02*
X+7647000Y-5103000D01*
D40*
X+7281900Y-3890000D02*
X+7280982Y-3867186D01*
X+7273529Y-3821557D01*
X+7257982Y-3775928D01*
X+7232740Y-3730299D01*
X+7194198Y-3684769D01*
X+7148569Y-3649273D01*
X+7102940Y-3626153D01*
X+7057311Y-3612300D01*
X+7011682Y-3606354D01*
X+6997920Y-3606020D01*
X+6713940Y-3890000D02*
X+6714858Y-3867186D01*
X+6722311Y-3821557D01*
X+6737858Y-3775928D01*
X+6763100Y-3730299D01*
X+6801642Y-3684769D01*
X+6847271Y-3649273D01*
X+6892900Y-3626153D01*
X+6938529Y-3612300D01*
X+6984158Y-3606354D01*
X+6997920Y-3606020D01*
X+6713940Y-3890000D02*
X+6714858Y-3912814D01*
X+6722311Y-3958443D01*
X+6737858Y-4004072D01*
X+6763100Y-4049701D01*
X+6801642Y-4095231D01*
X+6847271Y-4130727D01*
X+6892900Y-4153847D01*
X+6938529Y-4167700D01*
X+6984158Y-4173646D01*
X+6997920Y-4173980D01*
X+7281900Y-3890000D02*
X+7280982Y-3912814D01*
X+7273529Y-3958443D01*
X+7257982Y-4004072D01*
X+7232740Y-4049701D01*
X+7194198Y-4095231D01*
X+7148569Y-4130727D01*
X+7102940Y-4153847D01*
X+7057311Y-4167700D01*
X+7011682Y-4173646D01*
X+6997920Y-4173980D01*
D41*
X+6870000Y-3890000D02*
X+6870000Y-3890000D01*
D42*
X+6959717Y-3928203D02*
X+6940616Y-3947304D01*
X+6883312Y-3947304D01*
X+6845110Y-3909101D01*
X+6845110Y-3870899D01*
X+6883312Y-3832696D01*
X+6940616Y-3832696D01*
X+6959717Y-3851797D01*
X+7036122Y-3870899D02*
X+7074325Y-3832696D01*
X+7074325Y-3947304D01*
D40*
X+5033980Y-5627920D02*
X+5033062Y-5605106D01*
X+5025609Y-5559477D01*
X+5010062Y-5513848D01*
X+4984820Y-5468219D01*
X+4946278Y-5422689D01*
X+4900649Y-5387193D01*
X+4855020Y-5364073D01*
X+4809391Y-5350220D01*
X+4763762Y-5344274D01*
X+4750000Y-5343940D01*
X+4466020Y-5627920D02*
X+4466938Y-5605106D01*
X+4474391Y-5559477D01*
X+4489938Y-5513848D01*
X+4515180Y-5468219D01*
X+4553722Y-5422689D01*
X+4599351Y-5387193D01*
X+4644980Y-5364073D01*
X+4690609Y-5350220D01*
X+4736238Y-5344274D01*
X+4750000Y-5343940D01*
X+4466020Y-5627920D02*
X+4466938Y-5650734D01*
X+4474391Y-5696363D01*
X+4489938Y-5741992D01*
X+4515180Y-5787621D01*
X+4553722Y-5833151D01*
X+4599351Y-5868647D01*
X+4644980Y-5891767D01*
X+4690609Y-5905620D01*
X+4736238Y-5911566D01*
X+4750000Y-5911900D01*
X+5033980Y-5627920D02*
X+5033062Y-5650734D01*
X+5025609Y-5696363D01*
X+5010062Y-5741992D01*
X+4984820Y-5787621D01*
X+4946278Y-5833151D01*
X+4900649Y-5868647D01*
X+4855020Y-5891767D01*
X+4809391Y-5905620D01*
X+4763762Y-5911566D01*
X+4750000Y-5911900D01*
D41*
X+4750000Y-5500000D02*
X+4750000Y-5500000D01*
D42*
X+4788203Y-5666123D02*
X+4807304Y-5685224D01*
X+4807304Y-5742528D01*
X+4769101Y-5780730D01*
X+4730899Y-5780730D01*
X+4692696Y-5742528D01*
X+4692696Y-5685224D01*
X+4711797Y-5666123D01*
X+4711797Y-5608819D02*
X+4692696Y-5589718D01*
X+4692696Y-5532414D01*
X+4711797Y-5513313D01*
X+4730899Y-5513313D01*
X+4750000Y-5532414D01*
X+4750000Y-5589718D01*
X+4769101Y-5608819D01*
X+4807304Y-5608819D01*
X+4807304Y-5513313D01*
D23*
X+3712142Y-4651160D02*
X+3986462Y-4651160D01*
X+3986462Y-4122840D01*
X+3712142Y-4122840D01*
X+3712142Y-4651160D01*
D35*
X+3849302Y-4260000D02*
X+3849302Y-4260000D01*
D45*
X+3882221Y-4419919D02*
X+3898680Y-4436378D01*
X+3898680Y-4485755D01*
X+3865762Y-4518673D01*
X+3832843Y-4518673D01*
X+3799925Y-4485755D01*
X+3799925Y-4436378D01*
X+3816384Y-4419919D01*
X+3816384Y-4370541D02*
X+3799925Y-4354082D01*
X+3799925Y-4304705D01*
X+3816384Y-4288246D01*
X+3832843Y-4288246D01*
X+3849302Y-4304705D01*
X+3865762Y-4288246D01*
X+3882221Y-4288246D01*
X+3898680Y-4304705D01*
X+3898680Y-4354082D01*
X+3882221Y-4370541D01*
X+3849302Y-4337623D02*
X+3849302Y-4304705D01*
D23*
X+5385700Y-6026860D02*
X+7011300Y-6026860D01*
X+7011300Y-5473140D01*
X+5385700Y-5473140D01*
X+5385700Y-6026860D01*
D46*
X+6897000Y-5750000D02*
X+6897000Y-5750000D01*
D47*
X+5932715Y-5849670D02*
X+5932715Y-5650331D01*
X+6065607Y-5650331D01*
X+6132053Y-5716777D01*
X+6132053Y-5783224D01*
X+6065607Y-5849670D01*
X+5932715Y-5849670D01*
X+6264946Y-5716777D02*
X+6331392Y-5650331D01*
X+6331392Y-5849670D01*
D23*
X+8039700Y-3884780D02*
X+9284300Y-3884780D01*
X+9284300Y-3597760D01*
X+8039700Y-3597760D01*
X+8039700Y-3884780D01*
D46*
X+9170000Y-3740000D02*
X+9170000Y-3740000D01*
D48*
X+8524231Y-3792934D02*
X+8524231Y-3689607D01*
X+8593115Y-3689607D01*
X+8627557Y-3724049D01*
X+8627557Y-3758492D01*
X+8593115Y-3792934D01*
X+8524231Y-3792934D01*
X+8679221Y-3706828D02*
X+8696442Y-3689607D01*
X+8748105Y-3689607D01*
X+8765326Y-3706828D01*
X+8765326Y-3724049D01*
X+8748105Y-3741270D01*
X+8696442Y-3741270D01*
X+8679221Y-3758492D01*
X+8679221Y-3792934D01*
X+8765326Y-3792934D01*
D23*
X+8192840Y-4771160D02*
X+8467160Y-4771160D01*
X+8467160Y-4242840D01*
X+8192840Y-4242840D01*
X+8192840Y-4771160D01*
D35*
X+8330000Y-4380000D02*
X+8330000Y-4380000D01*
D45*
X+8362919Y-4539919D02*
X+8379378Y-4556378D01*
X+8379378Y-4605755D01*
X+8346460Y-4638673D01*
X+8313541Y-4638673D01*
X+8280623Y-4605755D01*
X+8280623Y-4556378D01*
X+8297082Y-4539919D01*
X+8346460Y-4408246D02*
X+8346460Y-4507000D01*
X+8280623Y-4441164D01*
X+8379378Y-4441164D01*
D23*
X+4580840Y-4340160D02*
X+6241160Y-4340160D01*
X+6241160Y-2069840D01*
X+4580840Y-2069840D01*
X+4580840Y-4340160D01*
D37*
X+5581274Y-3886096D02*
X+5240726Y-3886096D01*
X+5240726Y-3602306D01*
X+5297484Y-3545548D01*
X+5354242Y-3545548D01*
X+5411000Y-3602306D01*
X+5411000Y-3886096D01*
X+5411000Y-3602306D02*
X+5467758Y-3545548D01*
X+5581274Y-3545548D01*
X+5240726Y-3432032D02*
X+5581274Y-3432032D01*
X+5581274Y-3091484D01*
X+5354242Y-2864452D02*
X+5240726Y-2750936D01*
X+5581274Y-2750936D01*
D23*
X+4899700Y-1854780D02*
X+6144300Y-1854780D01*
X+6144300Y-1567760D01*
X+4899700Y-1567760D01*
X+4899700Y-1854780D01*
D46*
X+6030000Y-1710000D02*
X+6030000Y-1710000D01*
D48*
X+5384231Y-1762934D02*
X+5384231Y-1659607D01*
X+5453115Y-1659607D01*
X+5487557Y-1694049D01*
X+5487557Y-1728492D01*
X+5453115Y-1762934D01*
X+5384231Y-1762934D01*
X+5539221Y-1676828D02*
X+5556442Y-1659607D01*
X+5608105Y-1659607D01*
X+5625326Y-1676828D01*
X+5625326Y-1694049D01*
X+5608105Y-1711270D01*
X+5625326Y-1728492D01*
X+5625326Y-1745713D01*
X+5608105Y-1762934D01*
X+5556442Y-1762934D01*
X+5539221Y-1745713D01*
X+5573663Y-1711270D02*
X+5608105Y-1711270D01*
D23*
X+1724840Y-1017160D02*
X+2761160Y-1017160D01*
X+2761160Y-742840D01*
X+1724840Y-742840D01*
X+1724840Y-1017160D01*
D41*
X+2624000Y-880000D02*
X+2624000Y-880000D01*
D45*
X+2111327Y-929378D02*
X+2111327Y-830623D01*
X+2193622Y-830623D01*
X+2210081Y-847082D01*
X+2210081Y-863541D01*
X+2193622Y-880000D01*
X+2210081Y-896460D01*
X+2210081Y-912919D01*
X+2193622Y-929378D01*
X+2111327Y-929378D01*
X+2111327Y-880000D02*
X+2193622Y-880000D01*
X+2243000Y-830623D02*
X+2243000Y-929378D01*
X+2341754Y-929378D01*
D23*
X+352840Y-4231160D02*
X+627160Y-4231160D01*
X+627160Y-2432840D01*
X+352840Y-2432840D01*
X+352840Y-4231160D01*
D41*
X+490000Y-4094000D02*
X+490000Y-4094000D01*
D45*
X+522919Y-3430755D02*
X+539378Y-3447214D01*
X+539378Y-3496591D01*
X+506460Y-3529509D01*
X+473541Y-3529509D01*
X+440623Y-3496591D01*
X+440623Y-3447214D01*
X+457082Y-3430755D01*
X+539378Y-3397836D02*
X+473541Y-3397836D01*
X+440623Y-3364918D01*
X+440623Y-3332000D01*
X+473541Y-3299082D01*
X+539378Y-3299082D01*
X+506460Y-3397836D02*
X+506460Y-3299082D01*
X+539378Y-3266163D02*
X+440623Y-3266163D01*
X+539378Y-3167409D01*
X+440623Y-3167409D01*
D23*
X+7095840Y-1338160D02*
X+8132160Y-1338160D01*
X+8132160Y-301840D01*
X+7095840Y-301840D01*
X+7095840Y-1338160D01*
D38*
X+7360000Y-820000D02*
X+7360000Y-820000D01*
D49*
X+7337648Y-854544D02*
X+7337648Y-889088D01*
X+7372192Y-923632D01*
X+7510368Y-923632D01*
X+7544912Y-889088D01*
X+7544912Y-716368D01*
X+7821264Y-854544D02*
X+7614000Y-854544D01*
X+7752176Y-716368D01*
X+7752176Y-923632D01*
D23*
X+2895840Y-1238160D02*
X+3932160Y-1238160D01*
X+3932160Y-201840D01*
X+2895840Y-201840D01*
X+2895840Y-1238160D01*
D38*
X+3160000Y-720000D02*
X+3160000Y-720000D01*
D49*
X+3137648Y-754544D02*
X+3137648Y-789088D01*
X+3172192Y-823632D01*
X+3310368Y-823632D01*
X+3344912Y-789088D01*
X+3344912Y-616368D01*
X+3621264Y-616368D02*
X+3448544Y-616368D01*
X+3448544Y-685456D01*
X+3586720Y-685456D01*
X+3621264Y-720000D01*
X+3621264Y-789088D01*
X+3586720Y-823632D01*
X+3483088Y-823632D01*
X+3448544Y-789088D01*
M02*
