M48
METRIC,LZ,000.000
;FILE_FORMAT=3:3
;TYPE=PLATED
;Layer: PTH_Through
;EasyEDA v6.5.15, 2023-07-15 19:13:26
;7a4bf17ae9984c6ea0cf7d4767ac866e,10
;Gerber Generator version 0.2
;Holesize 1 = 0.800 mm
T01C0.800
;Holesize 2 = 0.889 mm
T02C0.889
;Holesize 3 = 0.900 mm
T03C0.900
;Holesize 4 = 1.000 mm
T04C1.000
;Holesize 5 = 1.016 mm
T05C1.016
;Holesize 6 = 1.118 mm
T06C1.118
;Holesize 7 = 1.200 mm
T07C1.200
;Holesize 8 = 1.301 mm
T08C1.301
%
G05
G90
T01
X004620Y-054737
X006620Y-054737
X008620Y-054737
X010620Y-054737
X040813Y-023622
X032512Y-023495
X077343Y-037338
X068453Y-037338
X075946Y-032258
X068580Y-032258
X052070Y-024638
X043053Y-024638
T02
X095504Y-052832
X098044Y-052832
X100584Y-052832
X058293Y-052197
X060833Y-052197
X063373Y-052197
T03
X088011Y-032131
X080391Y-032131
X066294Y-021336
X066294Y-028956
T04
X100589Y-015367
X100579Y-007747
X098039Y-007747
X098049Y-015367
X051692Y-054102G85X051686Y-054102
X049191Y-054102G85X049186Y-054102
X069728Y-015113
X069718Y-007493
X067178Y-007493
X067188Y-015113
T05
X026416Y-039497
X003556Y-021717
X003556Y-024257
X003556Y-026797
X003556Y-029337
X003556Y-031877
X003556Y-034417
X003556Y-036957
X003556Y-039497
X026416Y-021717
X026416Y-024257
X026416Y-026797
X026416Y-029337
X026416Y-031877
X026416Y-034417
X026416Y-036957
T06
X043053Y-005464G85X043053Y-005458
X045593Y-005464G85X045593Y-005458
X048133Y-005464G85X048133Y-005458
X050673Y-005464G85X050673Y-005458
X053213Y-005464G85X053213Y-005458
X055753Y-005464G85X055753Y-005458
X058293Y-005464G85X058293Y-005458
X051943Y-034039G85X051943Y-034033
X049403Y-034039G85X049403Y-034033
X062103Y-035944G85X062103Y-035938
X062103Y-033404G85X062103Y-033398
T07
X109186Y-001778G85X109191Y-001778
X117886Y-001778G85X117891Y-001778
X080529Y-001905G85X080534Y-001905
X089229Y-001905G85X089234Y-001905
T08
X111597Y-050927
X106589Y-050927
X108681Y-024416
X120681Y-024414
X114681Y-026416
X108681Y-012216
X120681Y-012216
X087467Y-051943
X082459Y-051943
X123027Y-050800
X118019Y-050800
X079598Y-024289
X091598Y-024287
X085598Y-026289
X079598Y-012089
X091598Y-012089
M30
