G04 Layer: BottomSolderMaskLayer*
G04 EasyEDA v6.5.15, 2023-07-15 19:13:26*
G04 7a4bf17ae9984c6ea0cf7d4767ac866e,10*
G04 Gerber Generator version 0.2*
G04 Scale: 100 percent, Rotated: No, Reflected: No *
G04 Dimensions in millimeters *
G04 leading zeros omitted , absolute positions ,4 integer and 5 decimal *
%FSLAX45Y45*%
%MOMM*%

%AMMACRO1*1,1,$1,$2,$3*1,1,$1,$4,$5*1,1,$1,0-$2,0-$3*1,1,$1,0-$4,0-$5*20,1,$1,$2,$3,$4,$5,0*20,1,$1,$4,$5,0-$2,0-$3,0*20,1,$1,0-$2,0-$3,0-$4,0-$5,0*20,1,$1,0-$4,0-$5,$2,$3,0*4,1,4,$2,$3,$4,$5,0-$2,0-$3,0-$4,0-$5,$2,$3,0*%
%ADD10C,2.1016*%
%ADD11C,1.6764*%
%ADD12MACRO1,0.1016X0.7874X-0.7874X-0.7874X-0.7874*%
%ADD13C,1.9812*%
%ADD14C,2.6016*%
%ADD15C,3.1016*%
%ADD16C,1.9016*%
%ADD17MACRO1,0.1016X0.9X-0.9X-0.9X-0.9*%
%ADD18MACRO1,0.1016X0.875X-0.875X-0.875X-0.875*%
%ADD19C,1.8516*%
%ADD20C,2.0320*%
%ADD21MACRO1,0.1X-0.7X0.7X0.7X0.7*%
%ADD22C,1.5000*%
%ADD23MACRO1,0.2032X-1.6459X0.9144X1.6459X0.9144*%
%ADD24MACRO1,0.2032X1.6459X-0.9144X-1.6459X-0.9144*%

%LPD*%
D10*
G01*
X11159743Y-5092700D03*
G01*
X10658856Y-5092700D03*
G01*
X10918799Y-177800D03*
G01*
X11788800Y-177800D03*
D11*
G01*
X9550400Y-5283200D03*
G01*
X9804400Y-5283200D03*
D12*
G01*
X10058400Y-5283200D03*
D13*
G01*
X8801100Y-3213100D03*
G01*
X8039100Y-3213100D03*
D14*
G01*
X10868101Y-2441600D03*
G01*
X12068098Y-2441397D03*
D15*
G01*
X11468100Y-2641600D03*
G01*
X10868101Y-1221612D03*
G01*
X12068098Y-1221612D03*
D16*
G01*
X10058908Y-1536687D03*
G01*
X10057892Y-774687D03*
G01*
X9803892Y-774687D03*
D17*
G01*
X9804905Y-1536707D03*
D10*
G01*
X8746741Y-5194300D03*
G01*
X8245853Y-5194300D03*
G01*
X12302743Y-5080000D03*
G01*
X11801856Y-5080000D03*
D11*
G01*
X5829297Y-5219700D03*
G01*
X6083297Y-5219700D03*
D12*
G01*
X6337300Y-5219700D03*
D18*
G01*
X5168900Y-5410200D03*
D19*
G01*
X4918885Y-5410200D03*
D20*
G01*
X4305297Y-546100D03*
G01*
X4559297Y-546100D03*
G01*
X4813297Y-546100D03*
G01*
X5067297Y-546100D03*
G01*
X5321297Y-546100D03*
G01*
X5575297Y-546100D03*
G01*
X5829297Y-546100D03*
G01*
X5194297Y-3403600D03*
G01*
X4940297Y-3403600D03*
G01*
X6210297Y-3594100D03*
G01*
X6210297Y-3340100D03*
D21*
G01*
X462000Y-5473700D03*
D22*
G01*
X661997Y-5473700D03*
G01*
X861997Y-5473700D03*
G01*
X1061996Y-5473700D03*
D10*
G01*
X8053169Y-190500D03*
G01*
X8923169Y-190500D03*
D13*
G01*
X6629400Y-2133600D03*
G01*
X6629400Y-2895600D03*
D23*
G01*
X2641600Y-3949700D03*
D24*
G01*
X355600Y-2171700D03*
G01*
X355600Y-2425700D03*
G01*
X355600Y-2679700D03*
G01*
X355600Y-2933700D03*
G01*
X355600Y-3187700D03*
G01*
X355600Y-3441700D03*
G01*
X355600Y-3695700D03*
G01*
X355600Y-3949700D03*
D23*
G01*
X2641600Y-2171700D03*
G01*
X2641600Y-2425700D03*
G01*
X2641600Y-2679700D03*
G01*
X2641600Y-2933700D03*
G01*
X2641600Y-3187700D03*
G01*
X2641600Y-3441700D03*
G01*
X2641600Y-3695700D03*
D16*
G01*
X6972805Y-1511274D03*
G01*
X6971789Y-749274D03*
G01*
X6717789Y-749274D03*
D17*
G01*
X6718805Y-1511307D03*
D14*
G01*
X7959798Y-2428900D03*
G01*
X9159796Y-2428697D03*
D15*
G01*
X8559797Y-2628900D03*
G01*
X7959798Y-1208912D03*
G01*
X9159796Y-1208912D03*
D22*
G01*
X4081269Y-2362200D03*
G01*
X3251197Y-2349500D03*
G01*
X7734300Y-3733800D03*
G01*
X6845300Y-3733800D03*
G01*
X7594600Y-3225800D03*
G01*
X6858000Y-3225800D03*
G01*
X5207000Y-2463800D03*
G01*
X4305300Y-2463800D03*
M02*
