G04 Layer: BottomLayer*
G04 EasyEDA v6.5.15, 2023-07-15 19:13:26*
G04 7a4bf17ae9984c6ea0cf7d4767ac866e,10*
G04 Gerber Generator version 0.2*
G04 Scale: 100 percent, Rotated: No, Reflected: No *
G04 Dimensions in millimeters *
G04 leading zeros omitted , absolute positions ,4 integer and 5 decimal *
%FSLAX45Y45*%
%MOMM*%

%ADD10C,1.0000*%
%ADD11C,1.5000*%
%ADD12C,2.0000*%
%ADD13C,1.5748*%
%ADD14R,1.5748X1.5748*%
%ADD15C,1.8796*%
%ADD16C,2.5000*%
%ADD17C,3.0000*%
%ADD18C,1.8000*%
%ADD19R,1.8000X1.8000*%
%ADD20R,1.7500X1.7500*%
%ADD21C,1.7500*%
%ADD22C,1.9304*%
%ADD23R,1.4000X1.4000*%
%ADD24C,1.4000*%
%ADD25R,3.2918X1.8288*%
%ADD26R,0.0122X1.8288*%

%LPD*%
D10*
X12302741Y-5080000D02*
G01*
X12302741Y-3438144D01*
X12115797Y-3251200D01*
X11645897Y-3251200D01*
X11480797Y-3086100D01*
X11480797Y-2654300D01*
X11468097Y-2641600D01*
X5943597Y-5778500D02*
G01*
X9931400Y-5765800D01*
X10058397Y-5664200D01*
X10058397Y-5283200D01*
X10058913Y-1536687D02*
G01*
X10058913Y-2096007D01*
X10502905Y-2540000D01*
X10502905Y-3606800D01*
X9550397Y-4559307D01*
X9550397Y-5283200D01*
X10658853Y-5092700D02*
G01*
X10658853Y-4327151D01*
X11137905Y-3848100D01*
X11137905Y-1447800D01*
X10911710Y-1221612D01*
X10868103Y-1221612D01*
X11801853Y-5080000D02*
G01*
X11172446Y-5080000D01*
X11159746Y-5092700D01*
X1731769Y-4051300D02*
G01*
X1731769Y-2628900D01*
X1934969Y-2425700D01*
X2641597Y-2425700D01*
X9804908Y-1536712D02*
G01*
X9804908Y-2882392D01*
X9486900Y-3200400D01*
X8813800Y-3200400D01*
X8801100Y-3213100D01*
X6858000Y-3225800D02*
G01*
X6858000Y-2590800D01*
X6731000Y-2463800D01*
X5207000Y-2463800D01*
X4305300Y-2463800D02*
G01*
X3327400Y-3441700D01*
X2641597Y-3441700D01*
X8039100Y-3213100D02*
G01*
X8026400Y-3225800D01*
X7594600Y-3225800D01*
X7959849Y-1208786D02*
G01*
X7959849Y-1260347D01*
X8267697Y-1568195D01*
X8267697Y-5181600D01*
X8216897Y-5181600D01*
X8053067Y-190500D02*
G01*
X8053067Y-316229D01*
X7861297Y-508000D01*
X7429497Y-508000D01*
X7302497Y-635000D01*
X7302497Y-4203700D01*
X6730997Y-4775200D01*
X6718805Y-1511300D02*
G01*
X6629400Y-1600705D01*
X6629400Y-2133600D01*
X6629397Y-2895600D02*
G01*
X6299205Y-2895600D01*
X355597Y-3441700D02*
G01*
X457197Y-3441700D01*
X1536697Y-4521200D01*
X3187697Y-4521200D01*
X4813297Y-2895600D01*
X6299197Y-2895600D01*
X5575297Y-546100D02*
G01*
X5283197Y-254000D01*
X1701797Y-254000D01*
X685797Y-1270000D01*
X685797Y-2273300D01*
X533397Y-2425700D01*
X355597Y-2425700D01*
D11*
X355597Y-2171700D02*
G01*
X355597Y-1130300D01*
X1460497Y-25400D01*
X5372097Y-25400D01*
X5829297Y-482600D01*
X5829297Y-546100D01*
D10*
X5321297Y-546100D02*
G01*
X5321297Y-2006600D01*
X2946397Y-4381500D01*
X2855211Y-4381500D01*
X5067297Y-546100D02*
G01*
X5067297Y-1981200D01*
X2857497Y-4191000D01*
X2150869Y-4191000D01*
X1884169Y-3898900D01*
X6845300Y-3733800D02*
G01*
X6857403Y-3721696D01*
X7073897Y-3721696D01*
X7950200Y-5549900D02*
G01*
X7734300Y-5334000D01*
X7734300Y-3733800D01*
X9550397Y-5283200D02*
G01*
X9283697Y-5549900D01*
X7950205Y-5549900D01*
X10057889Y-774700D02*
G01*
X10058905Y-1536700D01*
X6464297Y-4559300D02*
G01*
X5994400Y-4559300D01*
X5842000Y-4711700D01*
X5842000Y-5207000D01*
X5829300Y-5219700D01*
X6337300Y-5219700D02*
G01*
X6337300Y-5384800D01*
X5943600Y-5778500D01*
X596900Y-5778500D01*
X462000Y-5643600D01*
X462000Y-5473700D01*
X10868103Y-2441600D02*
G01*
X10868103Y-3559093D01*
X9804397Y-4622802D01*
X9804397Y-5283200D01*
X10868149Y-2441702D02*
G01*
X10502897Y-2076450D01*
X10502897Y-241300D01*
X10566397Y-177800D01*
X10706351Y-177800D01*
X11788899Y-177800D02*
G01*
X12268197Y-177800D01*
X12420597Y-330200D01*
X12420597Y-2362200D01*
X12341349Y-2441447D01*
X12068045Y-2441447D01*
X10918695Y-177800D02*
G01*
X10045697Y-177800D01*
X9803889Y-419607D01*
X9803889Y-774700D01*
X11788899Y-177800D02*
G01*
X11788899Y-66802D01*
X11645897Y76200D01*
X8625837Y76200D01*
X8625837Y76200D01*
X8603231Y76200D01*
X8610600Y76200D01*
X4559297Y-546100D02*
G01*
X4559297Y-1524000D01*
X2895597Y-3187700D01*
X2641597Y-3187700D01*
X355597Y-3187700D02*
G01*
X647697Y-3187700D01*
X927097Y-2908300D01*
X927097Y-1562100D01*
X1460497Y-1028700D01*
X4152897Y-1028700D01*
X4305297Y-876300D01*
X4305297Y-546100D01*
X6972805Y-1511300D02*
G01*
X7073897Y-1612392D01*
X7073897Y-3949700D01*
X6464297Y-4559300D01*
X6718300Y-4775200D02*
G01*
X6718297Y-4775200D01*
X6121397Y-4775200D01*
X6057897Y-4838700D01*
X6057897Y-5194300D01*
X6083297Y-5219700D01*
X8923271Y-190500D02*
G01*
X8864597Y-190500D01*
X8864597Y-2133600D01*
X9159745Y-2428747D01*
X8559800Y-2628900D02*
G01*
X8559800Y-5016500D01*
X8724900Y-5181600D01*
X8053067Y-190500D02*
G01*
X7518397Y-725170D01*
X7518397Y-1987550D01*
X7959849Y-2429002D01*
X1884169Y-3898900D02*
G01*
X1884169Y-3149600D01*
X2100069Y-2933700D01*
X2641597Y-2933700D01*
X1731769Y-4051300D02*
G01*
X2061969Y-4381500D01*
X2855173Y-4381500D01*
X4813297Y-546100D02*
G01*
X4813297Y-1630171D01*
X4081269Y-2362200D01*
X5194300Y-3403600D02*
G01*
X5194300Y-3263900D01*
X5054600Y-3124200D01*
X4889500Y-3124200D01*
X4749800Y-3263900D01*
X4749800Y-5241112D01*
X4918887Y-5410200D01*
X4940297Y-3403600D02*
G01*
X4940297Y-3556000D01*
X5168897Y-3784600D01*
X5168897Y-5410200D01*
D11*
X5829300Y-546100D02*
G01*
X5829300Y-342900D01*
X6223000Y50800D01*
X8681869Y50800D01*
X8923169Y-190500D01*
X2641600Y-2679700D02*
G01*
X2921000Y-2679700D01*
X3251200Y-2349500D01*
D10*
X5575297Y-546100D02*
G01*
X6299197Y-1270000D01*
X6870697Y-1270000D01*
X6972297Y-1371600D01*
X6972805Y-1511300D01*
D11*
X6717789Y-749300D02*
G01*
X6717789Y-533907D01*
X7073897Y-177800D01*
X8040367Y-177800D01*
X8053067Y-190500D01*
D10*
X6971789Y-749300D02*
G01*
X6972805Y-1511300D01*
X5867405Y-5181600D02*
G01*
X5829305Y-5219700D01*
X6070605Y-5207000D02*
G01*
X6083305Y-5219700D01*
X5829300Y-5219700D02*
G01*
X5461000Y-5588000D01*
X1176299Y-5588000D01*
X1061999Y-5473700D01*
X355597Y-3695700D02*
G01*
X482597Y-3695700D01*
X863597Y-4076700D01*
X862073Y-5473700D01*
X355600Y-3949700D02*
G01*
X662000Y-4256100D01*
X662000Y-5473700D01*
X355597Y-2171700D02*
G01*
X88897Y-2171700D01*
X-38102Y-2298700D01*
X-38102Y-5397500D01*
X38097Y-5473700D01*
X462023Y-5473700D01*
D12*
G01*
X11159743Y-5092700D03*
G01*
X10658856Y-5092700D03*
G01*
X10918799Y-177800D03*
G01*
X11788800Y-177800D03*
D13*
G01*
X9550400Y-5283200D03*
G01*
X9804400Y-5283200D03*
D14*
G01*
X10058400Y-5283200D03*
D15*
G01*
X8801100Y-3213100D03*
G01*
X8039100Y-3213100D03*
D16*
G01*
X10868101Y-2441600D03*
G01*
X12068098Y-2441397D03*
D17*
G01*
X11468100Y-2641600D03*
G01*
X10868101Y-1221612D03*
G01*
X12068098Y-1221612D03*
D18*
G01*
X10058908Y-1536687D03*
G01*
X10057892Y-774687D03*
G01*
X9803892Y-774687D03*
D19*
G01*
X9804908Y-1536712D03*
D12*
G01*
X8746741Y-5194300D03*
G01*
X8245853Y-5194300D03*
G01*
X12302743Y-5080000D03*
G01*
X11801856Y-5080000D03*
D13*
G01*
X5829297Y-5219700D03*
G01*
X6083297Y-5219700D03*
D14*
G01*
X6337297Y-5219700D03*
D20*
G01*
X5168897Y-5410200D03*
D21*
G01*
X4918885Y-5410200D03*
D22*
G01*
X4305297Y-546100D03*
G01*
X4559297Y-546100D03*
G01*
X4813297Y-546100D03*
G01*
X5067297Y-546100D03*
G01*
X5321297Y-546100D03*
G01*
X5575297Y-546100D03*
G01*
X5829297Y-546100D03*
G01*
X5194297Y-3403600D03*
G01*
X4940297Y-3403600D03*
G01*
X6210297Y-3594100D03*
G01*
X6210297Y-3340100D03*
D23*
G01*
X461998Y-5473700D03*
D24*
G01*
X661997Y-5473700D03*
G01*
X861997Y-5473700D03*
G01*
X1061996Y-5473700D03*
D12*
G01*
X8053169Y-190500D03*
G01*
X8923169Y-190500D03*
D15*
G01*
X6629400Y-2133600D03*
G01*
X6629400Y-2895600D03*
D25*
G01*
X2641597Y-3949700D03*
G01*
X355597Y-2171700D03*
G01*
X355597Y-2425700D03*
G01*
X355597Y-2679700D03*
G01*
X355597Y-2933700D03*
G01*
X355597Y-3187700D03*
G01*
X355597Y-3441700D03*
G01*
X355597Y-3695700D03*
G01*
X355597Y-3949700D03*
G01*
X2641597Y-2171700D03*
G01*
X2641597Y-2425700D03*
G01*
X2641597Y-2679700D03*
G01*
X2641597Y-2933700D03*
G01*
X2641597Y-3187700D03*
G01*
X2641597Y-3441700D03*
G01*
X2641597Y-3695700D03*
D18*
G01*
X6972805Y-1511274D03*
G01*
X6971789Y-749274D03*
G01*
X6717789Y-749274D03*
D19*
G01*
X6718805Y-1511300D03*
D16*
G01*
X7959798Y-2428900D03*
G01*
X9159796Y-2428697D03*
D17*
G01*
X8559797Y-2628900D03*
G01*
X7959798Y-1208912D03*
G01*
X9159796Y-1208912D03*
D24*
G01*
X4081269Y-2362200D03*
G01*
X3251197Y-2349500D03*
G01*
X7734300Y-3733800D03*
G01*
X6845300Y-3733800D03*
G01*
X7594600Y-3225800D03*
G01*
X6858000Y-3225800D03*
G01*
X5207000Y-2463800D03*
G01*
X4305300Y-2463800D03*
M02*
