M48
METRIC,LZ,000.000
;FILE_FORMAT=3:3
;TYPE=PLATED
;Layer: PTH_Through
;EasyEDA v6.5.40, 2024-02-15 13:07:32
;3051d7fe94b74b85aaa247d59f2a5175,7a4bf17ae9984c6ea0cf7d4767ac866e,10
;Gerber Generator version 0.2
;Holesize 1 = 0.889 mm
T01C0.889
;Holesize 2 = 0.901 mm
T02C0.901
;Holesize 3 = 0.915 mm
T03C0.915
;Holesize 4 = 1.000 mm
T04C1.000
;Holesize 5 = 1.016 mm
T05C1.016
;Holesize 6 = 1.101 mm
T06C1.101
;Holesize 7 = 1.200 mm
T07C1.200
;Holesize 8 = 1.600 mm
T08C1.600
%
G05
G90
T01
X041148Y-026670
X041148Y-024130
X041148Y-021590
X041148Y-019050
X041148Y-016510
X041148Y-013970
X041148Y-011430
X041148Y-008890
T02
X040132Y-051308
X035052Y-051308
X008890Y-039243
X003810Y-039243
T03
X021757Y-041529
X026757Y-041529
X007112Y-031817
X007112Y-029317
X007112Y-026817
X007112Y-024317
T04
X003810Y-047244
X008890Y-047244
T05
X036322Y-026924
X013462Y-009144
X013462Y-011684
X013462Y-014224
X013462Y-016764
X013462Y-019304
X013462Y-021844
X013462Y-024384
X013462Y-026924
X036322Y-009144
X036322Y-011684
X036322Y-014224
X036322Y-016764
X036322Y-019304
X036322Y-021844
X036322Y-024384
T06
X037719Y-039537
X037719Y-044537
T07
X021980Y-050800
X023690Y-050800
X025400Y-050800
X027110Y-050800
X028820Y-050800
T08
X014732Y-050488
X014732Y-036888
M30
