G04 Layer: TopSolderMaskLayer*
G04 EasyEDA v6.5.40, 2024-02-15 13:07:32*
G04 3051d7fe94b74b85aaa247d59f2a5175,7a4bf17ae9984c6ea0cf7d4767ac866e,10*
G04 Gerber Generator version 0.2*
G04 Scale: 100 percent, Rotated: No, Reflected: No *
G04 Dimensions in millimeters *
G04 leading zeros omitted , absolute positions ,4 integer and 5 decimal *
%FSLAX45Y45*%
%MOMM*%

%AMMACRO1*1,1,$1,$2,$3*1,1,$1,$4,$5*1,1,$1,0-$2,0-$3*1,1,$1,0-$4,0-$5*20,1,$1,$2,$3,$4,$5,0*20,1,$1,$4,$5,0-$2,0-$3,0*20,1,$1,0-$2,0-$3,0-$4,0-$5,0*20,1,$1,0-$4,0-$5,$2,$3,0*4,1,4,$2,$3,$4,$5,0-$2,0-$3,0-$4,0-$5,$2,$3,0*%
%ADD10C,1.6016*%
%ADD11C,1.6256*%
%ADD12MACRO1,0.2032X-1.6459X0.9144X1.6459X0.9144*%
%ADD13MACRO1,0.2032X1.6459X-0.9144X-1.6459X-0.9144*%
%ADD14R,1.6766X1.6764*%
%ADD15C,1.6764*%
%ADD16C,2.5016*%
%ADD17C,1.9016*%
%ADD18C,1.7016*%
%ADD19R,1.7272X1.7272*%

%LPD*%
D10*
G01*
X2197981Y-5079992D03*
G01*
X2368999Y-5079992D03*
G01*
X2539992Y-5079992D03*
G01*
X2710985Y-5079992D03*
G01*
X2882003Y-5079992D03*
D11*
G01*
X2175705Y-4152892D03*
G01*
X2675704Y-4152892D03*
D12*
G01*
X3632200Y-2692400D03*
D13*
G01*
X1346200Y-914400D03*
G01*
X1346200Y-1168400D03*
G01*
X1346200Y-1422400D03*
G01*
X1346200Y-1676400D03*
G01*
X1346200Y-1930400D03*
G01*
X1346200Y-2184400D03*
G01*
X1346200Y-2438400D03*
G01*
X1346200Y-2692400D03*
D12*
G01*
X3632200Y-914400D03*
G01*
X3632200Y-1168400D03*
G01*
X3632200Y-1422400D03*
G01*
X3632200Y-1676400D03*
G01*
X3632200Y-1930400D03*
G01*
X3632200Y-2184400D03*
G01*
X3632200Y-2438400D03*
D14*
G01*
X4114792Y-2666992D03*
D15*
G01*
X4114792Y-2412992D03*
G01*
X4114792Y-2158992D03*
G01*
X4114792Y-1904992D03*
G01*
X4114792Y-1650992D03*
G01*
X4114792Y-1396992D03*
G01*
X4114792Y-1142992D03*
G01*
X4114792Y-888992D03*
D16*
G01*
X1473192Y-5048826D03*
G01*
X1473192Y-3688808D03*
D17*
G01*
X4013192Y-5130792D03*
G01*
X3505192Y-5130792D03*
G01*
X3771892Y-3953705D03*
G01*
X3771892Y-4453704D03*
D18*
G01*
X380992Y-4724392D03*
G01*
X888992Y-4724392D03*
G01*
X888992Y-3924292D03*
G01*
X380992Y-3924292D03*
D19*
G01*
X711217Y-3181697D03*
D11*
G01*
X711217Y-2931711D03*
G01*
X711217Y-2681698D03*
G01*
X711217Y-2431712D03*
M02*
