G04 Layer: BottomLayer*
G04 EasyEDA v6.5.40, 2024-02-15 13:07:32*
G04 3051d7fe94b74b85aaa247d59f2a5175,7a4bf17ae9984c6ea0cf7d4767ac866e,10*
G04 Gerber Generator version 0.2*
G04 Scale: 100 percent, Rotated: No, Reflected: No *
G04 Dimensions in millimeters *
G04 leading zeros omitted , absolute positions ,4 integer and 5 decimal *
%FSLAX45Y45*%
%MOMM*%

%ADD10C,0.5000*%
%ADD11C,1.0000*%
%ADD12C,2.0000*%
%ADD13C,1.5000*%
%ADD14C,1.5240*%
%ADD15R,3.2918X1.8288*%
%ADD16R,1.5750X1.5748*%
%ADD17C,1.5748*%
%ADD18C,2.4000*%
%ADD19C,1.8000*%
%ADD20C,1.6000*%
%ADD21R,1.5240X1.5240*%

%LPD*%
D10*
X8307656Y-2531574D02*
G01*
X8307656Y-2865666D01*
X8307656Y-2531574D02*
G01*
X8084929Y-2865666D01*
X8084929Y-2531574D02*
G01*
X8084929Y-2865666D01*
X7979930Y-2531574D02*
G01*
X7979930Y-2865666D01*
X7979930Y-2531574D02*
G01*
X7773111Y-2531574D01*
X7979930Y-2690665D02*
G01*
X7852658Y-2690665D01*
X7979930Y-2865666D02*
G01*
X7773111Y-2865666D01*
X7668112Y-2531574D02*
G01*
X7668112Y-2865666D01*
X7668112Y-2531574D02*
G01*
X7556748Y-2531574D01*
X7509022Y-2547485D01*
X7477203Y-2579303D01*
X7461295Y-2611120D01*
X7445385Y-2658849D01*
X7445385Y-2738394D01*
X7461295Y-2786120D01*
X7477203Y-2817939D01*
X7509022Y-2849758D01*
X7556748Y-2865666D01*
X7668112Y-2865666D01*
X7095385Y-2531574D02*
G01*
X7095385Y-2770210D01*
X7079477Y-2817939D01*
X7047659Y-2849758D01*
X6999932Y-2865666D01*
X6968114Y-2865666D01*
X6920387Y-2849758D01*
X6888568Y-2817939D01*
X6872660Y-2770210D01*
X6872660Y-2531574D01*
X6767659Y-2642938D02*
G01*
X6767659Y-2865666D01*
X6767659Y-2706575D02*
G01*
X6719933Y-2658849D01*
X6688114Y-2642938D01*
X6640388Y-2642938D01*
X6608569Y-2658849D01*
X6592661Y-2706575D01*
X6592661Y-2865666D01*
X6487660Y-2531574D02*
G01*
X6471752Y-2547485D01*
X6455841Y-2531574D01*
X6471752Y-2515666D01*
X6487660Y-2531574D01*
X6471752Y-2642938D02*
G01*
X6471752Y-2865666D01*
X6350843Y-2642938D02*
G01*
X6255387Y-2865666D01*
X6159934Y-2642938D02*
G01*
X6255387Y-2865666D01*
X6054933Y-2738394D02*
G01*
X5864024Y-2738394D01*
X5864024Y-2706575D01*
X5879934Y-2674757D01*
X5895842Y-2658849D01*
X5927661Y-2642938D01*
X5975388Y-2642938D01*
X6007206Y-2658849D01*
X6039025Y-2690665D01*
X6054933Y-2738394D01*
X6054933Y-2770210D01*
X6039025Y-2817939D01*
X6007206Y-2849758D01*
X5975388Y-2865666D01*
X5927661Y-2865666D01*
X5895842Y-2849758D01*
X5864024Y-2817939D01*
X5759025Y-2642938D02*
G01*
X5759025Y-2865666D01*
X5759025Y-2738394D02*
G01*
X5743115Y-2690665D01*
X5711299Y-2658849D01*
X5679480Y-2642938D01*
X5631754Y-2642938D01*
X5351754Y-2690665D02*
G01*
X5367662Y-2658849D01*
X5415389Y-2642938D01*
X5463115Y-2642938D01*
X5510844Y-2658849D01*
X5526752Y-2690665D01*
X5510844Y-2722483D01*
X5479026Y-2738394D01*
X5399481Y-2754302D01*
X5367662Y-2770210D01*
X5351754Y-2802028D01*
X5351754Y-2817939D01*
X5367662Y-2849758D01*
X5415389Y-2865666D01*
X5463115Y-2865666D01*
X5510844Y-2849758D01*
X5526752Y-2817939D01*
X5246753Y-2531574D02*
G01*
X5230845Y-2547485D01*
X5214934Y-2531574D01*
X5230845Y-2515666D01*
X5246753Y-2531574D01*
X5230845Y-2642938D02*
G01*
X5230845Y-2865666D01*
X5062209Y-2531574D02*
G01*
X5062209Y-2802028D01*
X5046299Y-2849758D01*
X5014480Y-2865666D01*
X4982662Y-2865666D01*
X5109936Y-2642938D02*
G01*
X4998572Y-2642938D01*
X4861755Y-2642938D02*
G01*
X4766299Y-2865666D01*
X4670846Y-2642938D02*
G01*
X4766299Y-2865666D01*
X4798118Y-2929303D01*
X4829936Y-2961119D01*
X4861755Y-2977029D01*
X4877663Y-2977029D01*
D11*
X711217Y-2681698D02*
G01*
X810801Y-2681698D01*
X952500Y-2540000D01*
X952500Y-2298700D01*
X1066817Y-2184392D01*
X1346192Y-2184392D01*
X711141Y-2431737D02*
G01*
X711141Y-2108141D01*
X888941Y-1930341D01*
X1346192Y-1930392D01*
X2882003Y-5079992D02*
G01*
X3454387Y-5079992D01*
X3505194Y-5130800D01*
X3771900Y-4453699D02*
G01*
X3636200Y-4453699D01*
X3467100Y-4622800D01*
X3467100Y-5092700D01*
X3505200Y-5130800D01*
X4114792Y-1396992D02*
G01*
X4102092Y-1396992D01*
X3873494Y-1168394D01*
X3632194Y-1168394D01*
X3632194Y-1930394D02*
G01*
X3886194Y-1930394D01*
X4114792Y-2158992D01*
X4114792Y-1650992D02*
G01*
X3657597Y-1650992D01*
X3632194Y-1676394D01*
X3632141Y-1422341D02*
G01*
X3378141Y-1422341D01*
X3162241Y-1638241D01*
X3162241Y-2755841D01*
X3403541Y-2997141D01*
X4190941Y-2997141D01*
X4267141Y-2920941D01*
X4267141Y-2057341D01*
X4114741Y-1904941D01*
X888994Y-4724394D02*
G01*
X1148760Y-4724394D01*
X1473192Y-5048826D01*
X4114741Y-1142941D02*
G01*
X4292541Y-965141D01*
X4292541Y-761941D01*
X3987741Y-457141D01*
X1231841Y-457141D01*
X990541Y-698441D01*
X990541Y-1092141D01*
X1066741Y-1168341D01*
X1346141Y-1168341D01*
X2539941Y-5079941D02*
G01*
X2539941Y-5219641D01*
X2705100Y-5308600D01*
X2882900Y-5245100D01*
X2882079Y-5079941D01*
D12*
X711212Y-3181687D02*
G01*
X526712Y-3181687D01*
X393700Y-3314700D01*
X393700Y-3911584D01*
X380992Y-3924292D01*
X380992Y-3924292D02*
G01*
X380992Y-4724392D01*
X380941Y-4724341D02*
G01*
X380941Y-4889441D01*
X863541Y-5372041D01*
X1752541Y-5372041D01*
X2026099Y-5098483D01*
D13*
X2197981Y-5079992D02*
G01*
X2026099Y-5079992D01*
X1346141Y-914341D02*
G01*
X2209741Y-914341D01*
X2675831Y-1380431D01*
X2675831Y-4152841D01*
X2675714Y-4152900D02*
G01*
X2710985Y-4188172D01*
X2710985Y-5079992D01*
X2675704Y-4152892D02*
G01*
X2806707Y-4152892D01*
X2997200Y-3962400D01*
X3763197Y-3962400D01*
X3771892Y-3953705D01*
X3771900Y-3953700D02*
G01*
X3864800Y-3953700D01*
X4051300Y-4140200D01*
X4051300Y-5092700D01*
X4013200Y-5130800D01*
X1346194Y-914394D02*
G01*
X1346194Y-762000D01*
X1422394Y-685800D01*
X3911600Y-685800D01*
X4114792Y-888992D01*
D11*
X2175705Y-4152841D02*
G01*
X2175705Y-3941005D01*
X1923483Y-3688783D01*
X1473141Y-3688783D01*
X2368999Y-5079941D02*
G01*
X2368999Y-4705799D01*
X2175705Y-4512505D01*
X2175705Y-4151825D01*
D13*
X711212Y-2931701D02*
G01*
X874301Y-2931701D01*
X927100Y-2984500D01*
X927100Y-3886184D01*
X888992Y-3924292D01*
D11*
X1346141Y-1168341D02*
G01*
X1866841Y-1168341D01*
X2311341Y-1612841D01*
X2311341Y-3644841D01*
X2451041Y-3784541D01*
X2425641Y-4394141D01*
X2539941Y-4508441D01*
X2539941Y-5079941D01*
X888992Y-3924292D02*
G01*
X888992Y-4724392D01*
X711212Y-2931701D02*
G01*
X607601Y-2931701D01*
X469900Y-2794000D01*
X469900Y-1358900D01*
X673100Y-1155700D01*
X685792Y-1168392D01*
X1346192Y-1168392D01*
D13*
G01*
X2197981Y-5079992D03*
G01*
X2368999Y-5079992D03*
G01*
X2539992Y-5079992D03*
G01*
X2710985Y-5079992D03*
G01*
X2882003Y-5079992D03*
D14*
G01*
X2175705Y-4152892D03*
G01*
X2675704Y-4152892D03*
D15*
G01*
X3632192Y-2692392D03*
G01*
X1346192Y-914392D03*
G01*
X1346192Y-1168392D03*
G01*
X1346192Y-1422392D03*
G01*
X1346192Y-1676392D03*
G01*
X1346192Y-1930392D03*
G01*
X1346192Y-2184392D03*
G01*
X1346192Y-2438392D03*
G01*
X1346192Y-2692392D03*
G01*
X3632192Y-914392D03*
G01*
X3632192Y-1168392D03*
G01*
X3632192Y-1422392D03*
G01*
X3632192Y-1676392D03*
G01*
X3632192Y-1930392D03*
G01*
X3632192Y-2184392D03*
G01*
X3632192Y-2438392D03*
D16*
G01*
X4114792Y-2666992D03*
D17*
G01*
X4114792Y-2412992D03*
G01*
X4114792Y-2158992D03*
G01*
X4114792Y-1904992D03*
G01*
X4114792Y-1650992D03*
G01*
X4114792Y-1396992D03*
G01*
X4114792Y-1142992D03*
G01*
X4114792Y-888992D03*
D18*
G01*
X1473192Y-5048826D03*
G01*
X1473192Y-3688808D03*
D19*
G01*
X4013192Y-5130792D03*
G01*
X3505192Y-5130792D03*
G01*
X3771892Y-3953705D03*
G01*
X3771892Y-4453704D03*
D20*
G01*
X380992Y-4724392D03*
G01*
X888992Y-4724392D03*
G01*
X888992Y-3924292D03*
G01*
X380992Y-3924292D03*
D21*
G01*
X711217Y-3181697D03*
D14*
G01*
X711217Y-2931711D03*
G01*
X711217Y-2681698D03*
G01*
X711217Y-2431712D03*
M02*
