G04 Layer: TopSilkscreenLayer*
G04 EasyEDA v6.5.40, 2024-02-15 13:07:32*
G04 3051d7fe94b74b85aaa247d59f2a5175,7a4bf17ae9984c6ea0cf7d4767ac866e,10*
G04 Gerber Generator version 0.2*
G04 Scale: 100 percent, Rotated: No, Reflected: No *
G04 Dimensions in millimeters *
G04 leading zeros omitted , absolute positions ,4 integer and 5 decimal *
%FSLAX45Y45*%
%MOMM*%

%ADD10C,0.1524*%
%ADD11C,0.2032*%
%ADD12C,0.2581*%
%ADD13C,0.2540*%
%ADD14C,0.2030*%
%ADD15C,0.0144*%

%LPD*%
G36*
X5748172Y-3284524D02*
G01*
X5747004Y-3285794D01*
X5738063Y-3287572D01*
X5717540Y-3295802D01*
X5692698Y-3307537D01*
X5691581Y-3307537D01*
X5679338Y-3313734D01*
X5642051Y-3333546D01*
X5619648Y-3346805D01*
X5587288Y-3367633D01*
X5559044Y-3388207D01*
X5544769Y-3399231D01*
X5517083Y-3422954D01*
X5516168Y-3424021D01*
X5502198Y-3436975D01*
X5478830Y-3461004D01*
X5464911Y-3477006D01*
X5453481Y-3490976D01*
X5440578Y-3507994D01*
X5427218Y-3527298D01*
X5418988Y-3540963D01*
X5405882Y-3566972D01*
X5396484Y-3586987D01*
X5390743Y-3600602D01*
X5390743Y-3601974D01*
X5388203Y-3607257D01*
X5384190Y-3619957D01*
X5382514Y-3623970D01*
X5375706Y-3645966D01*
X5374132Y-3649979D01*
X5371947Y-3656939D01*
X5366410Y-3678936D01*
X5363616Y-3691940D01*
X5360924Y-3707942D01*
X5355386Y-3745941D01*
X5353405Y-3766921D01*
X5353507Y-3835908D01*
X5355336Y-3857904D01*
X5357977Y-3878884D01*
X5366461Y-3923893D01*
X5369153Y-3935882D01*
X5374182Y-3954881D01*
X5379821Y-3972864D01*
X5381142Y-3974896D01*
X5384444Y-3985869D01*
X5399278Y-4023868D01*
X5408015Y-4042867D01*
X5415940Y-4057091D01*
X5415940Y-4059174D01*
X5417464Y-4059834D01*
X5435854Y-4092854D01*
X5436920Y-4093819D01*
X5444388Y-4105859D01*
X5455462Y-4121861D01*
X5476290Y-4147820D01*
X5493816Y-4168800D01*
X5503265Y-4178808D01*
X5515356Y-4190796D01*
X5526430Y-4201160D01*
X5553506Y-4224883D01*
X5562803Y-4231741D01*
X5573064Y-4239869D01*
X5580481Y-4244746D01*
X5582970Y-4247286D01*
X5585460Y-4247286D01*
X5586120Y-4248912D01*
X5603798Y-4260291D01*
X5607608Y-4262069D01*
X5624322Y-4272788D01*
X5647639Y-4284980D01*
X5657900Y-4290060D01*
X5676544Y-4298340D01*
X5679795Y-4300270D01*
X5681827Y-4300270D01*
X5687720Y-4303064D01*
X5703570Y-4309008D01*
X5725007Y-4316222D01*
X5735269Y-4319473D01*
X5738977Y-4321048D01*
X5755335Y-4324908D01*
X5777230Y-4329430D01*
X5795873Y-4332325D01*
X5814517Y-4334154D01*
X5852769Y-4335424D01*
X5893765Y-4332224D01*
X5911494Y-4329430D01*
X5927344Y-4326432D01*
X5940399Y-4323435D01*
X5962904Y-4317542D01*
X5966815Y-4315307D01*
X5970828Y-4315307D01*
X5974892Y-4312767D01*
X5982360Y-4310380D01*
X5973013Y-4311192D01*
X5950661Y-4315155D01*
X5934811Y-4317187D01*
X5913374Y-4318457D01*
X5891885Y-4316171D01*
X5880709Y-4314596D01*
X5870346Y-4311497D01*
X5861151Y-4308195D01*
X5844336Y-4299305D01*
X5833922Y-4289806D01*
X5825490Y-4277817D01*
X5822442Y-4270756D01*
X5818733Y-4256786D01*
X5818733Y-4236110D01*
X5821680Y-4221784D01*
X5824575Y-4212793D01*
X5830976Y-4196842D01*
X5838444Y-4182008D01*
X5849772Y-4163822D01*
X5860440Y-4148836D01*
X5874105Y-4131818D01*
X5909614Y-4093718D01*
X5930138Y-4074922D01*
X5931052Y-4073753D01*
X5949696Y-4057700D01*
X5973013Y-4038447D01*
X6001816Y-4015841D01*
X6005017Y-4013860D01*
X6056884Y-3976878D01*
X6113322Y-3940403D01*
X6114592Y-3940403D01*
X6117539Y-3937609D01*
X6130594Y-3930040D01*
X6136182Y-3926382D01*
X6138976Y-3925011D01*
X6145530Y-3920744D01*
X6174435Y-3903675D01*
X6224778Y-3875125D01*
X6236868Y-3867454D01*
X6243675Y-3860901D01*
X6252260Y-3845661D01*
X6252260Y-3842816D01*
X6253937Y-3840886D01*
X6258102Y-3823919D01*
X6258052Y-3794912D01*
X6256121Y-3784904D01*
X6254089Y-3776218D01*
X6248552Y-3763518D01*
X6248552Y-3761435D01*
X6246825Y-3761435D01*
X6246215Y-3758437D01*
X6236868Y-3746652D01*
X6227826Y-3740200D01*
X6217310Y-3736238D01*
X6197701Y-3737051D01*
X6185611Y-3743401D01*
X6160414Y-3758133D01*
X6153912Y-3762400D01*
X6151118Y-3763772D01*
X6135268Y-3773170D01*
X6128715Y-3777386D01*
X6125921Y-3778758D01*
X6101689Y-3793744D01*
X6083350Y-3805428D01*
X6082690Y-3805428D01*
X6032804Y-3837533D01*
X5992622Y-3864914D01*
X5951575Y-3894175D01*
X5937605Y-3904792D01*
X5922568Y-3915867D01*
X5879795Y-3949700D01*
X5878880Y-3950970D01*
X5858357Y-3967734D01*
X5835040Y-3988815D01*
X5818276Y-4004360D01*
X5802426Y-4019854D01*
X5772505Y-4051858D01*
X5756808Y-4070451D01*
X5739790Y-4092854D01*
X5729579Y-4107840D01*
X5725109Y-4115815D01*
X5724042Y-4116832D01*
X5720892Y-4122165D01*
X5709462Y-4145534D01*
X5704789Y-4158843D01*
X5701436Y-4171797D01*
X5700115Y-4180840D01*
X5698693Y-4182821D01*
X5697575Y-4187799D01*
X5692292Y-4194606D01*
X5682132Y-4195521D01*
X5672785Y-4193438D01*
X5664403Y-4191304D01*
X5660694Y-4189526D01*
X5651347Y-4186072D01*
X5637377Y-4178960D01*
X5623407Y-4169918D01*
X5612231Y-4161129D01*
X5599125Y-4146804D01*
X5593334Y-4137812D01*
X5590387Y-4130852D01*
X5587390Y-4121200D01*
X5587034Y-4108399D01*
X5589371Y-4105960D01*
X5589371Y-4102506D01*
X5595924Y-4083862D01*
X5597550Y-4079849D01*
X5609132Y-4053840D01*
X5618581Y-4036872D01*
X5629808Y-4017873D01*
X5651246Y-3986885D01*
X5656935Y-3979824D01*
X5664403Y-3970020D01*
X5680151Y-3950868D01*
X5725007Y-3902913D01*
X5756706Y-3872636D01*
X5774385Y-3856888D01*
X5780938Y-3850792D01*
X5812637Y-3823766D01*
X5837834Y-3803345D01*
X5858764Y-3786936D01*
X5890056Y-3763111D01*
X5935319Y-3730447D01*
X5936335Y-3730447D01*
X5942990Y-3724960D01*
X5968339Y-3707536D01*
X6003798Y-3683609D01*
X6078372Y-3635501D01*
X6082131Y-3633673D01*
X6104128Y-3619449D01*
X6104940Y-3619449D01*
X6123787Y-3607460D01*
X6124752Y-3607460D01*
X6135268Y-3600653D01*
X6156706Y-3588258D01*
X6158585Y-3586734D01*
X6183731Y-3572205D01*
X6188405Y-3568801D01*
X6197600Y-3563975D01*
X6203442Y-3557981D01*
X6207048Y-3551986D01*
X6207048Y-3525977D01*
X6202883Y-3514445D01*
X6197955Y-3503980D01*
X6187998Y-3487572D01*
X6179058Y-3477209D01*
X6175502Y-3474008D01*
X6169202Y-3467506D01*
X6168288Y-3467506D01*
X6162294Y-3462985D01*
X6161379Y-3461765D01*
X6147358Y-3454704D01*
X6138062Y-3451148D01*
X6113830Y-3451047D01*
X6094222Y-3461664D01*
X6073698Y-3473196D01*
X6001308Y-3515461D01*
X5958128Y-3541776D01*
X5950102Y-3547465D01*
X5949086Y-3547465D01*
X5926429Y-3561842D01*
X5904280Y-3576574D01*
X5888177Y-3586987D01*
X5847181Y-3615232D01*
X5830824Y-3626764D01*
X5804255Y-3646119D01*
X5774791Y-3668369D01*
X5738063Y-3697732D01*
X5737148Y-3699103D01*
X5721146Y-3712159D01*
X5706262Y-3725011D01*
X5677255Y-3751122D01*
X5665368Y-3760876D01*
X5660796Y-3765296D01*
X5647639Y-3772255D01*
X5629910Y-3774592D01*
X5615025Y-3771341D01*
X5606592Y-3768090D01*
X5594502Y-3759454D01*
X5587898Y-3752799D01*
X5580989Y-3743706D01*
X5580989Y-3741420D01*
X5579567Y-3741420D01*
X5573217Y-3725926D01*
X5571642Y-3716934D01*
X5569915Y-3703929D01*
X5573115Y-3684930D01*
X5575046Y-3678936D01*
X5581345Y-3664965D01*
X5591911Y-3649979D01*
X5601360Y-3641445D01*
X5629910Y-3616960D01*
X5642051Y-3607054D01*
X5644184Y-3604971D01*
X5671312Y-3583178D01*
X5688126Y-3569970D01*
X5714746Y-3549853D01*
X5743651Y-3528669D01*
X5776315Y-3506012D01*
X5792165Y-3495548D01*
X5810808Y-3482543D01*
X5816396Y-3479647D01*
X5835954Y-3466642D01*
X5868619Y-3446221D01*
X5902147Y-3426206D01*
X5923584Y-3414014D01*
X5924550Y-3412998D01*
X5940399Y-3404463D01*
X5955334Y-3395421D01*
X5960414Y-3393084D01*
X5960414Y-3391509D01*
X5962802Y-3391509D01*
X5965596Y-3388004D01*
X5969762Y-3380790D01*
X5969762Y-3368141D01*
X5965698Y-3359048D01*
X5959957Y-3351072D01*
X5957163Y-3348024D01*
X5945479Y-3338525D01*
X5942838Y-3338525D01*
X5941618Y-3336493D01*
X5933846Y-3332835D01*
X5926429Y-3329635D01*
X5913374Y-3326028D01*
X5885383Y-3326079D01*
X5876391Y-3329584D01*
X5831332Y-3353562D01*
X5815431Y-3362502D01*
X5813298Y-3362502D01*
X5812637Y-3364026D01*
X5801461Y-3370275D01*
X5778144Y-3383787D01*
X5766968Y-3390036D01*
X5766358Y-3391509D01*
X5764834Y-3391509D01*
X5723737Y-3417011D01*
X5688634Y-3439871D01*
X5671261Y-3452012D01*
X5649518Y-3465982D01*
X5636158Y-3472383D01*
X5624880Y-3473754D01*
X5610961Y-3472332D01*
X5601106Y-3465982D01*
X5595112Y-3457549D01*
X5592724Y-3446272D01*
X5594858Y-3432962D01*
X5598972Y-3423005D01*
X5605983Y-3412032D01*
X5612231Y-3404819D01*
X5621578Y-3396030D01*
X5627725Y-3391001D01*
X5629910Y-3388918D01*
X5632704Y-3387496D01*
X5638292Y-3383534D01*
X5641086Y-3382111D01*
X5647639Y-3377336D01*
X5651347Y-3375507D01*
X5656935Y-3371596D01*
X5664403Y-3367278D01*
X5684266Y-3354527D01*
X5685434Y-3354527D01*
X5692851Y-3349498D01*
X5713831Y-3337306D01*
X5757672Y-3313277D01*
X5769762Y-3305556D01*
X5772708Y-3303066D01*
X5774893Y-3296259D01*
X5772708Y-3288436D01*
X5765241Y-3284524D01*
G37*
G36*
X6335522Y-3662426D02*
G01*
X6329172Y-3662578D01*
X6322212Y-3667455D01*
X6317843Y-3674973D01*
X6314846Y-3684930D01*
X6312916Y-3701592D01*
X6311849Y-3703421D01*
X6314795Y-3737914D01*
X6316421Y-3743909D01*
X6317589Y-3751935D01*
X6319266Y-3756914D01*
X6323330Y-3771595D01*
X6331559Y-3789629D01*
X6334302Y-3792575D01*
X6334302Y-3793896D01*
X6340348Y-3800957D01*
X6347104Y-3805428D01*
X6356858Y-3805428D01*
X6363919Y-3798214D01*
X6368542Y-3787901D01*
X6371590Y-3775608D01*
X6372707Y-3750919D01*
X6370726Y-3731920D01*
X6368846Y-3719931D01*
X6366764Y-3711956D01*
X6363055Y-3699916D01*
X6357315Y-3685946D01*
X6351320Y-3675938D01*
X6345021Y-3668776D01*
G37*
G36*
X6490004Y-3946296D02*
G01*
X6489039Y-3948887D01*
X6489321Y-4005529D01*
X6501028Y-4005529D01*
X6504076Y-3998620D01*
X6513779Y-3991508D01*
X6519367Y-3990848D01*
X6526479Y-3992118D01*
X6530949Y-3996639D01*
X6534759Y-4009694D01*
X6534759Y-4021429D01*
X6531051Y-4032758D01*
X6525310Y-4039108D01*
X6519316Y-4040174D01*
X6511696Y-4038650D01*
X6501688Y-4029151D01*
X6501028Y-4005529D01*
X6489321Y-4005529D01*
X6489547Y-4050842D01*
X6499707Y-4050842D01*
X6501231Y-4044340D01*
X6502806Y-4044340D01*
X6507276Y-4048048D01*
X6513220Y-4051350D01*
X6528307Y-4051350D01*
X6535369Y-4047490D01*
X6542125Y-4039463D01*
X6545681Y-4031538D01*
X6548170Y-4015232D01*
X6545884Y-3998112D01*
X6541160Y-3988155D01*
X6536181Y-3983177D01*
X6529222Y-3979367D01*
X6514287Y-3979367D01*
X6504482Y-3985768D01*
X6502196Y-3988866D01*
X6501790Y-3987850D01*
X6500723Y-3946906D01*
G37*
G36*
X6598564Y-3946398D02*
G01*
X6596329Y-3948785D01*
X6596329Y-4048963D01*
X6598564Y-4051350D01*
X6607251Y-4051350D01*
X6609486Y-4048455D01*
X6609283Y-3948074D01*
X6608318Y-3946398D01*
G37*
G36*
X6566865Y-3952392D02*
G01*
X6562750Y-3955491D01*
X6562750Y-3964990D01*
X6564985Y-3967378D01*
X6574637Y-3967378D01*
X6576974Y-3964381D01*
X6577177Y-3956558D01*
X6573621Y-3952392D01*
G37*
G36*
X6632600Y-3952392D02*
G01*
X6627977Y-3957269D01*
X6627977Y-3962908D01*
X6630924Y-3967378D01*
X6640677Y-3967378D01*
X6643878Y-3961587D01*
X6643878Y-3957624D01*
X6639966Y-3952392D01*
G37*
G36*
X6295186Y-3955389D02*
G01*
X6292392Y-3959961D01*
X6292291Y-4048556D01*
X6294424Y-4051350D01*
X6303162Y-4051350D01*
X6305397Y-4048963D01*
X6305397Y-3974490D01*
X6307277Y-3973271D01*
X6307277Y-3975557D01*
X6309969Y-3981856D01*
X6316726Y-4000855D01*
X6325006Y-4022140D01*
X6325006Y-4024172D01*
X6329629Y-4034840D01*
X6334455Y-4048861D01*
X6336385Y-4051350D01*
X6346444Y-4051350D01*
X6354368Y-4031843D01*
X6372453Y-3984853D01*
X6376263Y-3975506D01*
X6376263Y-3973372D01*
X6377940Y-3973372D01*
X6378956Y-3979875D01*
X6379159Y-4049674D01*
X6380124Y-4051350D01*
X6390132Y-4051350D01*
X6391148Y-4049623D01*
X6391300Y-3959453D01*
X6389268Y-3955389D01*
X6373774Y-3955389D01*
X6369964Y-3959860D01*
X6366002Y-3969258D01*
X6366002Y-3970223D01*
X6360414Y-3983177D01*
X6360414Y-3984498D01*
X6355994Y-3994861D01*
X6344716Y-4023868D01*
X6343497Y-4028338D01*
X6340348Y-4028338D01*
X6336030Y-4015841D01*
X6333540Y-4009847D01*
X6330340Y-4000855D01*
X6327952Y-3994861D01*
X6319113Y-3970883D01*
X6316573Y-3964584D01*
X6316573Y-3962857D01*
X6310884Y-3955389D01*
G37*
G36*
X6666484Y-3961282D02*
G01*
X6665315Y-3964533D01*
X6665315Y-3978148D01*
X6661099Y-3979367D01*
X6655053Y-3979367D01*
X6653885Y-3984498D01*
X6655917Y-3989374D01*
X6663181Y-3989374D01*
X6665163Y-3991864D01*
X6665772Y-4039870D01*
X6670090Y-4047236D01*
X6676593Y-4051350D01*
X6692036Y-4051350D01*
X6696049Y-4046728D01*
X6696049Y-4040428D01*
X6692595Y-4038447D01*
X6686245Y-4040327D01*
X6680860Y-4038752D01*
X6677406Y-4031894D01*
X6677456Y-3993845D01*
X6678574Y-3989222D01*
X6693204Y-3989679D01*
X6696049Y-3987139D01*
X6696049Y-3981602D01*
X6693662Y-3979468D01*
X6677863Y-3978859D01*
X6676948Y-3961892D01*
G37*
G36*
X6630771Y-3979265D02*
G01*
X6629857Y-3981907D01*
X6630314Y-4050842D01*
X6641541Y-4050842D01*
X6641541Y-3979875D01*
G37*
G36*
X6451346Y-3979367D02*
G01*
X6431737Y-3979468D01*
X6421882Y-3984294D01*
X6414668Y-3992118D01*
X6411925Y-3997858D01*
X6409788Y-4005783D01*
X6422593Y-4005783D01*
X6425742Y-3998671D01*
X6432042Y-3992168D01*
X6438290Y-3990492D01*
X6448501Y-3991457D01*
X6453174Y-3994708D01*
X6455562Y-3997858D01*
X6459270Y-4006240D01*
X6459270Y-4024477D01*
X6455562Y-4033062D01*
X6449212Y-4039108D01*
X6440678Y-4040479D01*
X6433616Y-4039158D01*
X6427063Y-4034637D01*
X6422694Y-4025188D01*
X6422593Y-4005783D01*
X6409788Y-4005783D01*
X6408877Y-4009186D01*
X6408928Y-4023868D01*
X6412280Y-4035399D01*
X6414516Y-4037736D01*
X6414516Y-4039971D01*
X6420561Y-4046169D01*
X6430670Y-4051350D01*
X6448958Y-4051350D01*
X6456934Y-4048048D01*
X6465570Y-4041089D01*
X6470345Y-4030878D01*
X6473240Y-4018584D01*
X6473240Y-4010863D01*
X6470142Y-3996639D01*
X6463436Y-3985971D01*
G37*
G36*
X6575602Y-3979367D02*
G01*
X6566001Y-3979519D01*
X6563664Y-3980535D01*
X6563664Y-4048963D01*
X6565900Y-4051350D01*
X6574485Y-4051350D01*
X6576720Y-4048963D01*
X6576720Y-3982516D01*
G37*
G36*
X6702907Y-3979367D02*
G01*
X6701688Y-3980687D01*
X6702806Y-3985869D01*
X6717995Y-4030370D01*
X6723583Y-4046118D01*
X6725259Y-4050334D01*
X6725107Y-4056481D01*
X6722160Y-4061256D01*
X6722160Y-4063847D01*
X6719265Y-4069740D01*
X6718198Y-4078325D01*
X6729679Y-4078325D01*
X6733235Y-4069842D01*
X6738975Y-4054094D01*
X6738975Y-4052163D01*
X6741668Y-4045864D01*
X6754266Y-4007358D01*
X6759397Y-3992372D01*
X6762394Y-3982212D01*
X6761378Y-3979367D01*
X6751116Y-3979367D01*
X6747357Y-3987749D01*
X6747357Y-3990543D01*
X6744614Y-3996842D01*
X6735013Y-4027881D01*
X6732066Y-4033875D01*
X6729780Y-4025849D01*
X6722973Y-4005884D01*
X6722008Y-4001871D01*
X6719366Y-3995572D01*
X6719366Y-3993591D01*
X6716572Y-3987850D01*
X6716572Y-3984294D01*
X6713575Y-3979367D01*
G37*
G36*
X6370726Y-4126331D02*
G01*
X6368796Y-4130192D01*
X6368796Y-4218432D01*
X6370726Y-4222292D01*
X6417868Y-4222292D01*
X6420104Y-4219905D01*
X6420104Y-4214672D01*
X6417767Y-4211320D01*
X6381851Y-4211167D01*
X6380835Y-4206798D01*
X6381394Y-4177842D01*
X6412026Y-4177284D01*
X6414516Y-4175099D01*
X6414516Y-4169460D01*
X6411569Y-4166311D01*
X6382410Y-4166311D01*
X6380937Y-4163822D01*
X6380937Y-4140504D01*
X6382054Y-4137355D01*
X6417056Y-4137355D01*
X6418884Y-4134815D01*
X6419900Y-4130446D01*
X6417208Y-4126331D01*
G37*
G36*
X6008471Y-4126382D02*
G01*
X5996178Y-4132579D01*
X5988913Y-4137914D01*
X5981852Y-4147820D01*
X5978347Y-4155846D01*
X5975350Y-4168952D01*
X5975350Y-4182821D01*
X5978855Y-4195876D01*
X5982970Y-4204512D01*
X5990640Y-4213453D01*
X5998210Y-4218178D01*
X6009335Y-4222292D01*
X6030518Y-4222292D01*
X6041085Y-4219194D01*
X6047943Y-4216095D01*
X6050026Y-4210761D01*
X6050127Y-4176826D01*
X6048146Y-4171340D01*
X6014720Y-4171340D01*
X6013602Y-4174490D01*
X6013602Y-4178960D01*
X6015990Y-4182516D01*
X6035751Y-4182313D01*
X6036868Y-4185462D01*
X6036868Y-4206189D01*
X6030823Y-4209592D01*
X6014720Y-4210558D01*
X6003798Y-4206189D01*
X5996178Y-4199483D01*
X5990031Y-4186021D01*
X5989116Y-4168648D01*
X5993333Y-4154017D01*
X6003798Y-4142435D01*
X6013653Y-4138320D01*
X6028944Y-4138320D01*
X6039205Y-4142943D01*
X6046927Y-4147261D01*
X6049924Y-4143654D01*
X6049924Y-4137761D01*
X6046876Y-4133087D01*
X6034582Y-4126890D01*
G37*
G36*
X6071362Y-4150207D02*
G01*
X6070447Y-4152849D01*
X6070904Y-4221784D01*
X6082131Y-4221784D01*
X6083046Y-4175658D01*
X6088481Y-4167225D01*
X6094171Y-4162094D01*
X6106566Y-4163415D01*
X6107734Y-4160164D01*
X6107734Y-4153662D01*
X6104331Y-4150309D01*
X6091275Y-4150309D01*
X6082588Y-4159504D01*
X6081725Y-4156811D01*
X6081166Y-4150817D01*
G37*
G36*
X6261557Y-4150207D02*
G01*
X6260642Y-4152849D01*
X6261100Y-4221784D01*
X6272326Y-4221784D01*
X6273241Y-4173220D01*
X6283807Y-4162348D01*
X6290970Y-4161942D01*
X6295390Y-4162247D01*
X6299047Y-4165803D01*
X6302146Y-4171797D01*
X6303060Y-4221784D01*
X6314287Y-4221784D01*
X6314287Y-4164837D01*
X6309360Y-4156811D01*
X6305854Y-4153814D01*
X6300012Y-4150309D01*
X6286296Y-4150360D01*
X6275324Y-4156303D01*
X6272885Y-4159808D01*
X6271920Y-4156811D01*
X6271361Y-4150817D01*
G37*
G36*
X6438950Y-4150207D02*
G01*
X6437731Y-4153662D01*
X6437833Y-4220718D01*
X6440119Y-4222343D01*
X6450380Y-4221784D01*
X6451346Y-4172813D01*
X6456832Y-4166209D01*
X6462877Y-4162196D01*
X6472377Y-4161993D01*
X6477406Y-4166006D01*
X6480200Y-4173829D01*
X6481165Y-4221784D01*
X6492341Y-4221784D01*
X6492849Y-4169816D01*
X6491274Y-4165803D01*
X6487160Y-4156760D01*
X6478016Y-4150309D01*
X6464147Y-4150309D01*
X6456934Y-4153509D01*
X6450990Y-4158335D01*
X6449110Y-4158335D01*
X6448501Y-4150817D01*
G37*
G36*
X6585102Y-4150207D02*
G01*
X6584137Y-4152849D01*
X6584645Y-4221784D01*
X6595821Y-4221784D01*
X6596786Y-4175810D01*
X6603187Y-4166260D01*
X6609334Y-4162196D01*
X6621018Y-4162806D01*
X6621576Y-4152900D01*
X6618325Y-4150309D01*
X6605879Y-4150309D01*
X6597142Y-4158589D01*
X6596075Y-4157421D01*
X6594856Y-4150817D01*
G37*
G36*
X6741109Y-4150258D02*
G01*
X6739128Y-4152849D01*
X6735165Y-4165803D01*
X6733489Y-4169816D01*
X6727545Y-4189831D01*
X6723125Y-4202328D01*
X6720535Y-4202328D01*
X6718604Y-4194810D01*
X6711797Y-4174845D01*
X6710832Y-4170832D01*
X6709156Y-4166819D01*
X6705142Y-4153814D01*
X6702298Y-4150309D01*
X6692290Y-4150309D01*
X6691172Y-4153357D01*
X6697116Y-4171797D01*
X6699554Y-4177842D01*
X6705600Y-4195826D01*
X6708190Y-4202125D01*
X6708190Y-4205173D01*
X6709918Y-4206341D01*
X6711238Y-4212793D01*
X6714032Y-4219803D01*
X6715607Y-4223207D01*
X6708038Y-4243374D01*
X6707733Y-4248810D01*
X6718553Y-4249420D01*
X6722109Y-4244797D01*
X6722160Y-4242003D01*
X6728510Y-4224832D01*
X6731762Y-4213809D01*
X6733336Y-4211929D01*
X6733336Y-4208119D01*
X6737908Y-4196435D01*
X6742785Y-4180840D01*
X6747357Y-4169257D01*
X6747357Y-4166819D01*
X6749897Y-4161637D01*
X6751370Y-4153814D01*
X6751523Y-4150817D01*
G37*
G36*
X6152337Y-4150309D02*
G01*
X6135268Y-4150360D01*
X6124244Y-4156354D01*
X6118098Y-4163822D01*
X6117996Y-4166870D01*
X6115456Y-4170832D01*
X6114043Y-4179315D01*
X6127343Y-4179315D01*
X6127343Y-4174591D01*
X6130340Y-4166870D01*
X6134150Y-4163822D01*
X6141770Y-4160418D01*
X6146698Y-4160316D01*
X6153607Y-4163415D01*
X6156960Y-4166819D01*
X6159703Y-4175607D01*
X6158788Y-4179315D01*
X6114043Y-4179315D01*
X6113018Y-4185513D01*
X6115405Y-4203801D01*
X6121806Y-4214114D01*
X6127800Y-4218940D01*
X6135776Y-4222292D01*
X6154318Y-4222292D01*
X6164834Y-4218838D01*
X6169304Y-4214418D01*
X6169253Y-4208830D01*
X6167526Y-4205884D01*
X6157620Y-4210304D01*
X6152591Y-4210304D01*
X6151473Y-4212336D01*
X6144920Y-4212336D01*
X6136182Y-4209948D01*
X6130848Y-4205833D01*
X6127394Y-4198518D01*
X6126886Y-4189831D01*
X6170168Y-4189272D01*
X6172301Y-4185005D01*
X6171031Y-4169359D01*
X6166307Y-4159808D01*
X6160516Y-4154119D01*
G37*
G36*
X6224524Y-4150309D02*
G01*
X6206134Y-4150461D01*
X6203340Y-4152239D01*
X6196228Y-4155592D01*
X6189776Y-4164076D01*
X6185154Y-4176268D01*
X6198920Y-4176318D01*
X6200089Y-4169664D01*
X6205677Y-4162907D01*
X6211722Y-4160570D01*
X6216497Y-4160316D01*
X6224981Y-4163415D01*
X6229096Y-4168140D01*
X6230721Y-4175709D01*
X6228892Y-4179315D01*
X6199987Y-4179315D01*
X6198920Y-4176318D01*
X6185154Y-4176318D01*
X6185154Y-4198264D01*
X6188151Y-4205833D01*
X6190996Y-4211828D01*
X6196736Y-4217619D01*
X6206642Y-4222292D01*
X6225692Y-4222242D01*
X6236766Y-4218279D01*
X6241084Y-4213961D01*
X6241084Y-4208576D01*
X6238189Y-4205986D01*
X6228486Y-4210202D01*
X6216954Y-4212691D01*
X6208928Y-4210151D01*
X6202781Y-4206951D01*
X6199327Y-4200804D01*
X6198158Y-4190542D01*
X6201156Y-4189323D01*
X6241948Y-4189323D01*
X6243878Y-4185462D01*
X6243878Y-4178096D01*
X6240932Y-4166006D01*
X6235090Y-4156354D01*
G37*
G36*
X6530492Y-4150309D02*
G01*
X6520891Y-4155440D01*
X6514287Y-4162704D01*
X6509308Y-4173829D01*
X6509288Y-4176166D01*
X6521856Y-4176166D01*
X6524701Y-4168800D01*
X6529628Y-4163161D01*
X6535216Y-4160469D01*
X6540804Y-4160367D01*
X6548272Y-4163110D01*
X6554368Y-4171492D01*
X6554368Y-4176166D01*
X6553200Y-4179315D01*
X6525107Y-4179315D01*
X6521856Y-4176166D01*
X6509288Y-4176166D01*
X6509105Y-4197807D01*
X6512763Y-4209288D01*
X6522161Y-4218990D01*
X6530644Y-4222292D01*
X6549593Y-4222292D01*
X6560159Y-4218838D01*
X6564731Y-4214266D01*
X6564122Y-4208018D01*
X6561175Y-4206036D01*
X6554825Y-4209389D01*
X6542125Y-4212488D01*
X6529984Y-4209897D01*
X6523990Y-4202785D01*
X6521551Y-4191152D01*
X6522821Y-4189831D01*
X6565087Y-4189272D01*
X6567424Y-4185920D01*
X6567424Y-4178655D01*
X6565239Y-4166819D01*
X6559499Y-4157268D01*
X6552946Y-4152900D01*
X6547612Y-4150309D01*
G37*
G36*
X6682638Y-4150309D02*
G01*
X6645249Y-4150410D01*
X6637528Y-4154271D01*
X6630111Y-4163314D01*
X6628942Y-4170832D01*
X6628942Y-4180128D01*
X6640779Y-4180128D01*
X6640779Y-4169460D01*
X6644640Y-4162958D01*
X6650837Y-4160570D01*
X6656070Y-4160316D01*
X6663181Y-4164228D01*
X6666433Y-4171594D01*
X6665315Y-4180433D01*
X6662013Y-4185158D01*
X6655917Y-4188307D01*
X6651802Y-4188307D01*
X6644894Y-4185716D01*
X6640779Y-4180128D01*
X6628942Y-4180128D01*
X6628942Y-4181805D01*
X6631736Y-4187545D01*
X6631736Y-4190136D01*
X6627114Y-4198823D01*
X6627063Y-4207002D01*
X6632549Y-4215079D01*
X6628028Y-4219651D01*
X6624269Y-4227931D01*
X6624269Y-4230014D01*
X6636664Y-4230014D01*
X6638594Y-4223207D01*
X6644843Y-4217314D01*
X6648297Y-4217314D01*
X6667652Y-4219346D01*
X6671818Y-4224426D01*
X6671818Y-4230522D01*
X6665722Y-4237024D01*
X6652514Y-4239564D01*
X6642455Y-4237024D01*
X6638798Y-4234332D01*
X6636664Y-4230014D01*
X6624269Y-4230014D01*
X6624269Y-4233164D01*
X6627774Y-4241901D01*
X6633108Y-4245813D01*
X6641541Y-4249318D01*
X6663893Y-4249216D01*
X6674154Y-4245457D01*
X6682943Y-4236161D01*
X6684162Y-4227169D01*
X6683044Y-4218228D01*
X6679742Y-4213453D01*
X6669582Y-4207865D01*
X6642100Y-4206748D01*
X6638239Y-4202988D01*
X6638239Y-4199483D01*
X6639407Y-4196334D01*
X6643725Y-4196334D01*
X6644894Y-4198315D01*
X6661454Y-4198315D01*
X6670446Y-4193235D01*
X6674408Y-4188663D01*
X6677609Y-4182059D01*
X6676847Y-4163822D01*
X6675374Y-4160316D01*
X6682638Y-4160316D01*
X6684873Y-4157929D01*
X6684873Y-4152747D01*
G37*
D10*
X445203Y-2203508D02*
G01*
X540707Y-2203508D01*
X445203Y-2235258D02*
G01*
X445203Y-2171504D01*
X445203Y-2141532D02*
G01*
X540707Y-2078032D01*
X445203Y-2078032D02*
G01*
X540707Y-2141532D01*
X445203Y-2451158D02*
G01*
X540707Y-2451158D01*
X445203Y-2451158D02*
G01*
X445203Y-2410264D01*
X449775Y-2396548D01*
X454347Y-2391976D01*
X463491Y-2387404D01*
X472381Y-2387404D01*
X481525Y-2391976D01*
X486097Y-2396548D01*
X490669Y-2410264D01*
X490669Y-2451158D01*
X490669Y-2419408D02*
G01*
X540707Y-2387404D01*
X445203Y-2357432D02*
G01*
X540707Y-2293932D01*
X445203Y-2293932D02*
G01*
X540707Y-2357432D01*
X467809Y-2725732D02*
G01*
X458919Y-2730304D01*
X449775Y-2739448D01*
X445203Y-2748592D01*
X445203Y-2766626D01*
X449775Y-2775770D01*
X458919Y-2784914D01*
X467809Y-2789486D01*
X481525Y-2794058D01*
X504385Y-2794058D01*
X517847Y-2789486D01*
X526991Y-2784914D01*
X536135Y-2775770D01*
X540707Y-2766626D01*
X540707Y-2748592D01*
X536135Y-2739448D01*
X526991Y-2730304D01*
X517847Y-2725732D01*
X504385Y-2725732D01*
X504385Y-2748592D02*
G01*
X504385Y-2725732D01*
X445203Y-2695760D02*
G01*
X540707Y-2695760D01*
X445203Y-2695760D02*
G01*
X540707Y-2632260D01*
X445203Y-2632260D02*
G01*
X540707Y-2632260D01*
X445203Y-2602288D02*
G01*
X540707Y-2602288D01*
X445203Y-2602288D02*
G01*
X445203Y-2570284D01*
X449775Y-2556822D01*
X458919Y-2547678D01*
X467809Y-2543106D01*
X481525Y-2538534D01*
X504385Y-2538534D01*
X517847Y-2543106D01*
X526991Y-2547678D01*
X536135Y-2556822D01*
X540707Y-2570284D01*
X540707Y-2602288D01*
X476191Y-3086158D02*
G01*
X471619Y-3077014D01*
X457903Y-3063298D01*
X553407Y-3063298D01*
X457903Y-2978716D02*
G01*
X457903Y-3024182D01*
X498797Y-3028754D01*
X494225Y-3024182D01*
X489653Y-3010720D01*
X489653Y-2997004D01*
X494225Y-2983288D01*
X503369Y-2974398D01*
X517085Y-2969826D01*
X525975Y-2969826D01*
X539691Y-2974398D01*
X548835Y-2983288D01*
X553407Y-2997004D01*
X553407Y-3010720D01*
X548835Y-3024182D01*
X544263Y-3028754D01*
X535119Y-3033326D01*
X457903Y-2939854D02*
G01*
X553407Y-2903278D01*
X457903Y-2866956D02*
G01*
X553407Y-2903278D01*
X3898841Y-3214565D02*
G01*
X3898841Y-3405319D01*
X4026095Y-3214565D02*
G01*
X4026095Y-3405319D01*
X3898841Y-3305497D02*
G01*
X4026095Y-3305497D01*
X4213547Y-3241743D02*
G01*
X4195259Y-3223455D01*
X4168081Y-3214565D01*
X4131505Y-3214565D01*
X4104327Y-3223455D01*
X4086293Y-3241743D01*
X4086293Y-3260031D01*
X4095183Y-3278065D01*
X4104327Y-3287209D01*
X4122615Y-3296353D01*
X4176971Y-3314387D01*
X4195259Y-3323531D01*
X4204403Y-3332675D01*
X4213547Y-3350963D01*
X4213547Y-3378141D01*
X4195259Y-3396175D01*
X4168081Y-3405319D01*
X4131505Y-3405319D01*
X4104327Y-3396175D01*
X4086293Y-3378141D01*
D11*
X4818263Y-4590171D02*
G01*
X4744349Y-4784227D01*
X4818263Y-4590171D02*
G01*
X4892177Y-4784227D01*
X4772035Y-4719457D02*
G01*
X4864491Y-4719457D01*
X4953137Y-4590171D02*
G01*
X4953137Y-4784227D01*
X5014097Y-4590171D02*
G01*
X5014097Y-4784227D01*
X5014097Y-4590171D02*
G01*
X5088011Y-4784227D01*
X5161925Y-4590171D02*
G01*
X5088011Y-4784227D01*
X5161925Y-4590171D02*
G01*
X5161925Y-4784227D01*
X5222885Y-4700915D02*
G01*
X5389001Y-4700915D01*
X5449961Y-4590171D02*
G01*
X5449961Y-4784227D01*
X5449961Y-4590171D02*
G01*
X5523875Y-4784227D01*
X5597789Y-4590171D02*
G01*
X5523875Y-4784227D01*
X5597789Y-4590171D02*
G01*
X5597789Y-4784227D01*
X5704977Y-4654941D02*
G01*
X5686435Y-4664085D01*
X5668147Y-4682627D01*
X5658749Y-4710313D01*
X5658749Y-4728601D01*
X5668147Y-4756541D01*
X5686435Y-4774829D01*
X5704977Y-4784227D01*
X5732663Y-4784227D01*
X5751205Y-4774829D01*
X5769747Y-4756541D01*
X5778891Y-4728601D01*
X5778891Y-4710313D01*
X5769747Y-4682627D01*
X5751205Y-4664085D01*
X5732663Y-4654941D01*
X5704977Y-4654941D01*
X5867537Y-4590171D02*
G01*
X5867537Y-4747143D01*
X5876681Y-4774829D01*
X5895223Y-4784227D01*
X5913765Y-4784227D01*
X5839851Y-4654941D02*
G01*
X5904621Y-4654941D01*
X6020953Y-4654941D02*
G01*
X6002411Y-4664085D01*
X5983869Y-4682627D01*
X5974725Y-4710313D01*
X5974725Y-4728601D01*
X5983869Y-4756541D01*
X6002411Y-4774829D01*
X6020953Y-4784227D01*
X6048639Y-4784227D01*
X6067181Y-4774829D01*
X6085469Y-4756541D01*
X6094867Y-4728601D01*
X6094867Y-4710313D01*
X6085469Y-4682627D01*
X6067181Y-4664085D01*
X6048639Y-4654941D01*
X6020953Y-4654941D01*
X6155827Y-4654941D02*
G01*
X6155827Y-4784227D01*
X6155827Y-4710313D02*
G01*
X6164971Y-4682627D01*
X6183513Y-4664085D01*
X6201801Y-4654941D01*
X6229741Y-4654941D01*
X6392301Y-4682627D02*
G01*
X6382903Y-4664085D01*
X6355217Y-4654941D01*
X6327531Y-4654941D01*
X6299845Y-4664085D01*
X6290701Y-4682627D01*
X6299845Y-4700915D01*
X6318387Y-4710313D01*
X6364361Y-4719457D01*
X6382903Y-4728601D01*
X6392301Y-4747143D01*
X6392301Y-4756541D01*
X6382903Y-4774829D01*
X6355217Y-4784227D01*
X6327531Y-4784227D01*
X6299845Y-4774829D01*
X6290701Y-4756541D01*
X4744349Y-4894971D02*
G01*
X4744349Y-5089027D01*
X4744349Y-4894971D02*
G01*
X4827661Y-4894971D01*
X4855347Y-4904115D01*
X4864491Y-4913513D01*
X4873635Y-4931801D01*
X4873635Y-4950343D01*
X4864491Y-4968885D01*
X4855347Y-4978029D01*
X4827661Y-4987427D01*
X4744349Y-4987427D02*
G01*
X4827661Y-4987427D01*
X4855347Y-4996571D01*
X4864491Y-5005715D01*
X4873635Y-5024257D01*
X4873635Y-5051943D01*
X4864491Y-5070485D01*
X4855347Y-5079629D01*
X4827661Y-5089027D01*
X4744349Y-5089027D01*
X5045593Y-4959741D02*
G01*
X5045593Y-5089027D01*
X5045593Y-4987427D02*
G01*
X5027051Y-4968885D01*
X5008509Y-4959741D01*
X4980823Y-4959741D01*
X4962281Y-4968885D01*
X4943993Y-4987427D01*
X4934595Y-5015113D01*
X4934595Y-5033401D01*
X4943993Y-5061341D01*
X4962281Y-5079629D01*
X4980823Y-5089027D01*
X5008509Y-5089027D01*
X5027051Y-5079629D01*
X5045593Y-5061341D01*
X5134239Y-4894971D02*
G01*
X5134239Y-5051943D01*
X5143383Y-5079629D01*
X5161925Y-5089027D01*
X5180467Y-5089027D01*
X5106553Y-4959741D02*
G01*
X5171069Y-4959741D01*
X5269113Y-4894971D02*
G01*
X5269113Y-5051943D01*
X5278257Y-5079629D01*
X5296799Y-5089027D01*
X5315341Y-5089027D01*
X5241427Y-4959741D02*
G01*
X5305943Y-4959741D01*
X5376301Y-5015113D02*
G01*
X5487045Y-5015113D01*
X5487045Y-4996571D01*
X5477901Y-4978029D01*
X5468503Y-4968885D01*
X5449961Y-4959741D01*
X5422275Y-4959741D01*
X5403987Y-4968885D01*
X5385445Y-4987427D01*
X5376301Y-5015113D01*
X5376301Y-5033401D01*
X5385445Y-5061341D01*
X5403987Y-5079629D01*
X5422275Y-5089027D01*
X5449961Y-5089027D01*
X5468503Y-5079629D01*
X5487045Y-5061341D01*
X5548005Y-4959741D02*
G01*
X5548005Y-5089027D01*
X5548005Y-5015113D02*
G01*
X5557149Y-4987427D01*
X5575691Y-4968885D01*
X5594233Y-4959741D01*
X5621919Y-4959741D01*
X5692023Y-4959741D02*
G01*
X5747395Y-5089027D01*
X5803021Y-4959741D02*
G01*
X5747395Y-5089027D01*
X5729107Y-5125857D01*
X5710565Y-5144399D01*
X5692023Y-5153543D01*
X5682879Y-5153543D01*
X6006221Y-4894971D02*
G01*
X6006221Y-5089027D01*
X6113155Y-4959741D02*
G01*
X6094867Y-4968885D01*
X6076325Y-4987427D01*
X6067181Y-5015113D01*
X6067181Y-5033401D01*
X6076325Y-5061341D01*
X6094867Y-5079629D01*
X6113155Y-5089027D01*
X6140841Y-5089027D01*
X6159383Y-5079629D01*
X6177925Y-5061341D01*
X6187069Y-5033401D01*
X6187069Y-5015113D01*
X6177925Y-4987427D01*
X6159383Y-4968885D01*
X6140841Y-4959741D01*
X6113155Y-4959741D01*
X6312799Y-4894971D02*
G01*
X6312799Y-5089027D01*
X6248029Y-4894971D02*
G01*
X6377315Y-4894971D01*
X6719199Y-4941199D02*
G01*
X6709801Y-4922657D01*
X6691513Y-4904115D01*
X6672971Y-4894971D01*
X6636141Y-4894971D01*
X6617599Y-4904115D01*
X6599057Y-4922657D01*
X6589913Y-4941199D01*
X6580515Y-4968885D01*
X6580515Y-5015113D01*
X6589913Y-5042799D01*
X6599057Y-5061341D01*
X6617599Y-5079629D01*
X6636141Y-5089027D01*
X6672971Y-5089027D01*
X6691513Y-5079629D01*
X6709801Y-5061341D01*
X6719199Y-5042799D01*
X6780159Y-4894971D02*
G01*
X6789303Y-4904115D01*
X6798701Y-4894971D01*
X6789303Y-4885827D01*
X6780159Y-4894971D01*
X6789303Y-4959741D02*
G01*
X6789303Y-5089027D01*
X6859661Y-4959741D02*
G01*
X6859661Y-5089027D01*
X6859661Y-5015113D02*
G01*
X6868805Y-4987427D01*
X6887347Y-4968885D01*
X6905635Y-4959741D01*
X6933321Y-4959741D01*
X7105279Y-4987427D02*
G01*
X7086737Y-4968885D01*
X7068195Y-4959741D01*
X7040509Y-4959741D01*
X7022221Y-4968885D01*
X7003679Y-4987427D01*
X6994281Y-5015113D01*
X6994281Y-5033401D01*
X7003679Y-5061341D01*
X7022221Y-5079629D01*
X7040509Y-5089027D01*
X7068195Y-5089027D01*
X7086737Y-5079629D01*
X7105279Y-5061341D01*
X7166239Y-4959741D02*
G01*
X7166239Y-5051943D01*
X7175383Y-5079629D01*
X7193925Y-5089027D01*
X7221611Y-5089027D01*
X7240153Y-5079629D01*
X7267839Y-5051943D01*
X7267839Y-4959741D02*
G01*
X7267839Y-5089027D01*
X7328799Y-4894971D02*
G01*
X7337943Y-4904115D01*
X7347341Y-4894971D01*
X7337943Y-4885827D01*
X7328799Y-4894971D01*
X7337943Y-4959741D02*
G01*
X7337943Y-5089027D01*
X7435987Y-4894971D02*
G01*
X7435987Y-5051943D01*
X7445131Y-5079629D01*
X7463673Y-5089027D01*
X7481961Y-5089027D01*
X7408301Y-4959741D02*
G01*
X7472817Y-4959741D01*
X4744349Y-5199771D02*
G01*
X4818263Y-5393827D01*
X4892177Y-5199771D02*
G01*
X4818263Y-5393827D01*
X5008509Y-5199771D02*
G01*
X4980823Y-5208915D01*
X4962281Y-5236601D01*
X4953137Y-5282829D01*
X4953137Y-5310515D01*
X4962281Y-5356743D01*
X4980823Y-5384429D01*
X5008509Y-5393827D01*
X5027051Y-5393827D01*
X5054737Y-5384429D01*
X5073279Y-5356743D01*
X5082423Y-5310515D01*
X5082423Y-5282829D01*
X5073279Y-5236601D01*
X5054737Y-5208915D01*
X5027051Y-5199771D01*
X5008509Y-5199771D01*
X5152781Y-5347599D02*
G01*
X5143383Y-5356743D01*
X5152781Y-5366141D01*
X5161925Y-5356743D01*
X5152781Y-5347599D01*
X5232029Y-5245999D02*
G01*
X5232029Y-5236601D01*
X5241427Y-5218313D01*
X5250571Y-5208915D01*
X5269113Y-5199771D01*
X5305943Y-5199771D01*
X5324485Y-5208915D01*
X5333629Y-5218313D01*
X5343027Y-5236601D01*
X5343027Y-5255143D01*
X5333629Y-5273685D01*
X5315341Y-5301371D01*
X5222885Y-5393827D01*
X5352171Y-5393827D01*
X4336171Y-869833D02*
G01*
X4372493Y-965337D01*
X4408815Y-869833D02*
G01*
X4372493Y-965337D01*
X4507113Y-892439D02*
G01*
X4502541Y-883295D01*
X4493397Y-874405D01*
X4484253Y-869833D01*
X4466219Y-869833D01*
X4457075Y-874405D01*
X4447931Y-883295D01*
X4443359Y-892439D01*
X4438787Y-906155D01*
X4438787Y-928761D01*
X4443359Y-942477D01*
X4447931Y-951621D01*
X4457075Y-960765D01*
X4466219Y-965337D01*
X4484253Y-965337D01*
X4493397Y-960765D01*
X4502541Y-951621D01*
X4507113Y-942477D01*
X4605157Y-892439D02*
G01*
X4600839Y-883295D01*
X4591695Y-874405D01*
X4582551Y-869833D01*
X4564263Y-869833D01*
X4555373Y-874405D01*
X4546229Y-883295D01*
X4541657Y-892439D01*
X4537085Y-906155D01*
X4537085Y-928761D01*
X4541657Y-942477D01*
X4546229Y-951621D01*
X4555373Y-960765D01*
X4564263Y-965337D01*
X4582551Y-965337D01*
X4591695Y-960765D01*
X4600839Y-951621D01*
X4605157Y-942477D01*
X4391601Y-1133797D02*
G01*
X4387029Y-1124653D01*
X4378139Y-1115509D01*
X4368995Y-1110937D01*
X4350707Y-1110937D01*
X4341563Y-1115509D01*
X4332673Y-1124653D01*
X4328101Y-1133797D01*
X4323529Y-1147513D01*
X4323529Y-1170119D01*
X4328101Y-1183835D01*
X4332673Y-1192979D01*
X4341563Y-1201869D01*
X4350707Y-1206441D01*
X4368995Y-1206441D01*
X4378139Y-1201869D01*
X4387029Y-1192979D01*
X4391601Y-1183835D01*
X4391601Y-1170119D01*
X4368995Y-1170119D02*
G01*
X4391601Y-1170119D01*
X4421573Y-1110937D02*
G01*
X4421573Y-1206441D01*
X4421573Y-1110937D02*
G01*
X4485327Y-1206441D01*
X4485327Y-1110937D02*
G01*
X4485327Y-1206441D01*
X4515299Y-1110937D02*
G01*
X4515299Y-1206441D01*
X4515299Y-1110937D02*
G01*
X4547049Y-1110937D01*
X4560765Y-1115509D01*
X4569909Y-1124653D01*
X4574481Y-1133797D01*
X4578799Y-1147513D01*
X4578799Y-1170119D01*
X4574481Y-1183835D01*
X4569909Y-1192979D01*
X4560765Y-1201869D01*
X4547049Y-1206441D01*
X4515299Y-1206441D01*
X4404301Y-1375097D02*
G01*
X4399729Y-1365953D01*
X4390839Y-1356809D01*
X4381695Y-1352237D01*
X4363407Y-1352237D01*
X4354263Y-1356809D01*
X4345373Y-1365953D01*
X4340801Y-1375097D01*
X4336229Y-1388813D01*
X4336229Y-1411419D01*
X4340801Y-1425135D01*
X4345373Y-1434279D01*
X4354263Y-1443169D01*
X4363407Y-1447741D01*
X4381695Y-1447741D01*
X4390839Y-1443169D01*
X4399729Y-1434279D01*
X4404301Y-1425135D01*
X4498027Y-1365953D02*
G01*
X4488883Y-1356809D01*
X4475167Y-1352237D01*
X4457133Y-1352237D01*
X4443417Y-1356809D01*
X4434273Y-1365953D01*
X4434273Y-1375097D01*
X4438845Y-1384241D01*
X4443417Y-1388813D01*
X4452561Y-1393385D01*
X4479739Y-1402275D01*
X4488883Y-1406847D01*
X4493455Y-1411419D01*
X4498027Y-1420563D01*
X4498027Y-1434279D01*
X4488883Y-1443169D01*
X4475167Y-1447741D01*
X4457133Y-1447741D01*
X4443417Y-1443169D01*
X4434273Y-1434279D01*
X4412429Y-1861253D02*
G01*
X4403539Y-1852109D01*
X4389823Y-1847537D01*
X4371535Y-1847537D01*
X4358073Y-1852109D01*
X4348929Y-1861253D01*
X4348929Y-1870397D01*
X4353501Y-1879541D01*
X4358073Y-1884113D01*
X4366963Y-1888685D01*
X4394395Y-1897575D01*
X4403539Y-1902147D01*
X4407857Y-1906719D01*
X4412429Y-1915863D01*
X4412429Y-1929579D01*
X4403539Y-1938469D01*
X4389823Y-1943041D01*
X4371535Y-1943041D01*
X4358073Y-1938469D01*
X4348929Y-1929579D01*
X4442401Y-1847537D02*
G01*
X4442401Y-1943041D01*
X4332673Y-2364681D02*
G01*
X4332673Y-2460185D01*
X4362645Y-2364681D02*
G01*
X4362645Y-2460185D01*
X4362645Y-2364681D02*
G01*
X4426145Y-2460185D01*
X4426145Y-2364681D02*
G01*
X4426145Y-2460185D01*
X4488121Y-2364681D02*
G01*
X4488121Y-2460185D01*
X4456117Y-2364681D02*
G01*
X4519871Y-2364681D01*
X4387029Y-2127953D02*
G01*
X4378139Y-2118809D01*
X4364423Y-2114237D01*
X4346135Y-2114237D01*
X4332673Y-2118809D01*
X4323529Y-2127953D01*
X4323529Y-2137097D01*
X4328101Y-2146241D01*
X4332673Y-2150813D01*
X4341563Y-2155385D01*
X4368995Y-2164275D01*
X4378139Y-2168847D01*
X4382457Y-2173419D01*
X4387029Y-2182563D01*
X4387029Y-2196279D01*
X4378139Y-2205169D01*
X4364423Y-2209741D01*
X4346135Y-2209741D01*
X4332673Y-2205169D01*
X4323529Y-2196279D01*
X4485327Y-2137097D02*
G01*
X4480755Y-2127953D01*
X4471611Y-2118809D01*
X4462467Y-2114237D01*
X4444433Y-2114237D01*
X4435289Y-2118809D01*
X4426145Y-2127953D01*
X4421573Y-2137097D01*
X4417001Y-2150813D01*
X4417001Y-2173419D01*
X4421573Y-2187135D01*
X4426145Y-2196279D01*
X4435289Y-2205169D01*
X4444433Y-2209741D01*
X4462467Y-2209741D01*
X4471611Y-2205169D01*
X4480755Y-2196279D01*
X4485327Y-2187135D01*
X4515299Y-2114237D02*
G01*
X4515299Y-2209741D01*
X4578799Y-2114237D02*
G01*
X4515299Y-2177991D01*
X4537905Y-2155385D02*
G01*
X4578799Y-2209741D01*
X4399729Y-1619953D02*
G01*
X4390839Y-1610809D01*
X4377123Y-1606237D01*
X4358835Y-1606237D01*
X4345373Y-1610809D01*
X4336229Y-1619953D01*
X4336229Y-1629097D01*
X4340801Y-1638241D01*
X4345373Y-1642813D01*
X4354263Y-1647385D01*
X4381695Y-1656275D01*
X4390839Y-1660847D01*
X4395157Y-1665419D01*
X4399729Y-1674563D01*
X4399729Y-1688279D01*
X4390839Y-1697169D01*
X4377123Y-1701741D01*
X4358835Y-1701741D01*
X4345373Y-1697169D01*
X4336229Y-1688279D01*
X4457133Y-1606237D02*
G01*
X4447989Y-1610809D01*
X4438845Y-1619953D01*
X4434273Y-1629097D01*
X4429701Y-1642813D01*
X4429701Y-1665419D01*
X4434273Y-1679135D01*
X4438845Y-1688279D01*
X4447989Y-1697169D01*
X4457133Y-1701741D01*
X4475167Y-1701741D01*
X4484311Y-1697169D01*
X4493455Y-1688279D01*
X4498027Y-1679135D01*
X4502599Y-1665419D01*
X4502599Y-1642813D01*
X4498027Y-1629097D01*
X4493455Y-1619953D01*
X4484311Y-1610809D01*
X4475167Y-1606237D01*
X4457133Y-1606237D01*
X5600700Y-1283970D02*
G01*
X5600700Y-1474978D01*
X5600700Y-1283970D02*
G01*
X5673343Y-1474978D01*
X5746241Y-1283970D02*
G01*
X5673343Y-1474978D01*
X5746241Y-1283970D02*
G01*
X5746241Y-1474978D01*
X5942584Y-1329436D02*
G01*
X5933440Y-1311402D01*
X5915152Y-1293113D01*
X5897118Y-1283970D01*
X5860795Y-1283970D01*
X5842508Y-1293113D01*
X5824220Y-1311402D01*
X5815329Y-1329436D01*
X5806186Y-1356868D01*
X5806186Y-1402334D01*
X5815329Y-1429512D01*
X5824220Y-1447800D01*
X5842508Y-1465834D01*
X5860795Y-1474978D01*
X5897118Y-1474978D01*
X5915152Y-1465834D01*
X5933440Y-1447800D01*
X5942584Y-1429512D01*
X6002527Y-1283970D02*
G01*
X6002527Y-1474978D01*
X6002527Y-1283970D02*
G01*
X6084315Y-1283970D01*
X6111493Y-1293113D01*
X6120638Y-1302257D01*
X6129781Y-1320545D01*
X6129781Y-1347723D01*
X6120638Y-1366012D01*
X6111493Y-1374902D01*
X6084315Y-1384045D01*
X6002527Y-1384045D01*
X6198870Y-1329436D02*
G01*
X6198870Y-1320545D01*
X6208013Y-1302257D01*
X6217158Y-1293113D01*
X6235191Y-1283970D01*
X6271513Y-1283970D01*
X6289802Y-1293113D01*
X6298945Y-1302257D01*
X6308090Y-1320545D01*
X6308090Y-1338579D01*
X6298945Y-1356868D01*
X6280658Y-1384045D01*
X6189725Y-1474978D01*
X6316979Y-1474978D01*
X6486143Y-1283970D02*
G01*
X6395211Y-1283970D01*
X6386068Y-1366012D01*
X6395211Y-1356868D01*
X6422390Y-1347723D01*
X6449822Y-1347723D01*
X6477000Y-1356868D01*
X6495288Y-1374902D01*
X6504431Y-1402334D01*
X6504431Y-1420368D01*
X6495288Y-1447800D01*
X6477000Y-1465834D01*
X6449822Y-1474978D01*
X6422390Y-1474978D01*
X6395211Y-1465834D01*
X6386068Y-1456689D01*
X6377177Y-1438655D01*
X6564375Y-1320545D02*
G01*
X6582409Y-1311402D01*
X6609841Y-1283970D01*
X6609841Y-1474978D01*
X6779006Y-1283970D02*
G01*
X6688074Y-1283970D01*
X6678929Y-1366012D01*
X6688074Y-1356868D01*
X6715252Y-1347723D01*
X6742429Y-1347723D01*
X6769861Y-1356868D01*
X6787895Y-1374902D01*
X6797040Y-1402334D01*
X6797040Y-1420368D01*
X6787895Y-1447800D01*
X6769861Y-1465834D01*
X6742429Y-1474978D01*
X6715252Y-1474978D01*
X6688074Y-1465834D01*
X6678929Y-1456689D01*
X6669786Y-1438655D01*
X5737097Y-1631187D02*
G01*
X5727954Y-1612900D01*
X5709665Y-1594865D01*
X5691631Y-1585721D01*
X5655309Y-1585721D01*
X5637022Y-1594865D01*
X5618988Y-1612900D01*
X5609843Y-1631187D01*
X5600700Y-1658365D01*
X5600700Y-1703831D01*
X5609843Y-1731010D01*
X5618988Y-1749297D01*
X5637022Y-1767586D01*
X5655309Y-1776476D01*
X5691631Y-1776476D01*
X5709665Y-1767586D01*
X5727954Y-1749297D01*
X5737097Y-1731010D01*
X5869686Y-1585721D02*
G01*
X5797041Y-1776476D01*
X5869686Y-1585721D02*
G01*
X5942584Y-1776476D01*
X5824220Y-1712976D02*
G01*
X5915152Y-1712976D01*
X6002527Y-1585721D02*
G01*
X6002527Y-1776476D01*
X6002527Y-1585721D02*
G01*
X6129781Y-1776476D01*
X6129781Y-1585721D02*
G01*
X6129781Y-1776476D01*
X6329679Y-1585721D02*
G01*
X6329679Y-1776476D01*
X6329679Y-1585721D02*
G01*
X6402577Y-1776476D01*
X6475222Y-1585721D02*
G01*
X6402577Y-1776476D01*
X6475222Y-1585721D02*
G01*
X6475222Y-1776476D01*
X6589775Y-1585721D02*
G01*
X6571488Y-1594865D01*
X6553454Y-1612900D01*
X6544309Y-1631187D01*
X6535165Y-1658365D01*
X6535165Y-1703831D01*
X6544309Y-1731010D01*
X6553454Y-1749297D01*
X6571488Y-1767586D01*
X6589775Y-1776476D01*
X6626097Y-1776476D01*
X6644386Y-1767586D01*
X6662420Y-1749297D01*
X6671563Y-1731010D01*
X6680708Y-1703831D01*
X6680708Y-1658365D01*
X6671563Y-1631187D01*
X6662420Y-1612900D01*
X6644386Y-1594865D01*
X6626097Y-1585721D01*
X6589775Y-1585721D01*
X6740652Y-1585721D02*
G01*
X6740652Y-1776476D01*
X6740652Y-1585721D02*
G01*
X6804406Y-1585721D01*
X6831584Y-1594865D01*
X6849872Y-1612900D01*
X6858761Y-1631187D01*
X6867906Y-1658365D01*
X6867906Y-1703831D01*
X6858761Y-1731010D01*
X6849872Y-1749297D01*
X6831584Y-1767586D01*
X6804406Y-1776476D01*
X6740652Y-1776476D01*
X6927850Y-1585721D02*
G01*
X6927850Y-1722120D01*
X6936993Y-1749297D01*
X6955281Y-1767586D01*
X6982459Y-1776476D01*
X7000747Y-1776476D01*
X7027925Y-1767586D01*
X7046213Y-1749297D01*
X7055358Y-1722120D01*
X7055358Y-1585721D01*
X7115302Y-1585721D02*
G01*
X7115302Y-1776476D01*
X7115302Y-1776476D02*
G01*
X7224268Y-1776476D01*
X7284211Y-1585721D02*
G01*
X7284211Y-1776476D01*
X7284211Y-1585721D02*
G01*
X7402575Y-1585721D01*
X7284211Y-1676654D02*
G01*
X7357109Y-1676654D01*
X7284211Y-1776476D02*
G01*
X7402575Y-1776476D01*
X5050985Y-111955D02*
G01*
X5050985Y-302963D01*
X5050985Y-111955D02*
G01*
X5178239Y-302963D01*
X5178239Y-111955D02*
G01*
X5178239Y-302963D01*
X5238183Y-111955D02*
G01*
X5238183Y-302963D01*
X5238183Y-111955D02*
G01*
X5356547Y-111955D01*
X5238183Y-202887D02*
G01*
X5311081Y-202887D01*
X5238183Y-302963D02*
G01*
X5356547Y-302963D01*
X5416491Y-111955D02*
G01*
X5416491Y-302963D01*
X5416491Y-111955D02*
G01*
X5479991Y-111955D01*
X5507423Y-121099D01*
X5525457Y-139387D01*
X5534601Y-157421D01*
X5543745Y-184853D01*
X5543745Y-230319D01*
X5534601Y-257497D01*
X5525457Y-275785D01*
X5507423Y-293819D01*
X5479991Y-302963D01*
X5416491Y-302963D01*
X5743643Y-111955D02*
G01*
X5743643Y-248353D01*
X5752787Y-275785D01*
X5771075Y-293819D01*
X5798253Y-302963D01*
X5816541Y-302963D01*
X5843719Y-293819D01*
X5862007Y-275785D01*
X5870897Y-248353D01*
X5870897Y-111955D01*
X5931095Y-175709D02*
G01*
X5931095Y-302963D01*
X5931095Y-212031D02*
G01*
X5958273Y-184853D01*
X5976561Y-175709D01*
X6003739Y-175709D01*
X6021773Y-184853D01*
X6030917Y-212031D01*
X6030917Y-302963D01*
X6090861Y-111955D02*
G01*
X6100005Y-121099D01*
X6109149Y-111955D01*
X6100005Y-103065D01*
X6090861Y-111955D01*
X6100005Y-175709D02*
G01*
X6100005Y-302963D01*
X6169093Y-175709D02*
G01*
X6223703Y-302963D01*
X6278313Y-175709D02*
G01*
X6223703Y-302963D01*
X6338257Y-230319D02*
G01*
X6447223Y-230319D01*
X6447223Y-212031D01*
X6438333Y-193997D01*
X6429189Y-184853D01*
X6410901Y-175709D01*
X6383723Y-175709D01*
X6365435Y-184853D01*
X6347401Y-202887D01*
X6338257Y-230319D01*
X6338257Y-248353D01*
X6347401Y-275785D01*
X6365435Y-293819D01*
X6383723Y-302963D01*
X6410901Y-302963D01*
X6429189Y-293819D01*
X6447223Y-275785D01*
X6507421Y-175709D02*
G01*
X6507421Y-302963D01*
X6507421Y-230319D02*
G01*
X6516311Y-202887D01*
X6534599Y-184853D01*
X6552887Y-175709D01*
X6580065Y-175709D01*
X6740085Y-202887D02*
G01*
X6730941Y-184853D01*
X6703763Y-175709D01*
X6676331Y-175709D01*
X6649153Y-184853D01*
X6640009Y-202887D01*
X6649153Y-221175D01*
X6667441Y-230319D01*
X6712907Y-239463D01*
X6730941Y-248353D01*
X6740085Y-266641D01*
X6740085Y-275785D01*
X6730941Y-293819D01*
X6703763Y-302963D01*
X6676331Y-302963D01*
X6649153Y-293819D01*
X6640009Y-275785D01*
X6800029Y-111955D02*
G01*
X6809173Y-121099D01*
X6818317Y-111955D01*
X6809173Y-103065D01*
X6800029Y-111955D01*
X6809173Y-175709D02*
G01*
X6809173Y-302963D01*
X6905439Y-111955D02*
G01*
X6905439Y-266641D01*
X6914583Y-293819D01*
X6932871Y-302963D01*
X6950905Y-302963D01*
X6878261Y-175709D02*
G01*
X6942015Y-175709D01*
X7019993Y-175709D02*
G01*
X7074603Y-302963D01*
X7129213Y-175709D02*
G01*
X7074603Y-302963D01*
X7056315Y-339285D01*
X7038281Y-357573D01*
X7019993Y-366717D01*
X7011103Y-366717D01*
D10*
X2434785Y-5354769D02*
G01*
X2434785Y-5432747D01*
X2439865Y-5448241D01*
X2450279Y-5458655D01*
X2466027Y-5463735D01*
X2476441Y-5463735D01*
X2491935Y-5458655D01*
X2502349Y-5448241D01*
X2507429Y-5432747D01*
X2507429Y-5354769D01*
X2604203Y-5370263D02*
G01*
X2598869Y-5359849D01*
X2583375Y-5354769D01*
X2572961Y-5354769D01*
X2557467Y-5359849D01*
X2547053Y-5375597D01*
X2541719Y-5401505D01*
X2541719Y-5427413D01*
X2547053Y-5448241D01*
X2557467Y-5458655D01*
X2572961Y-5463735D01*
X2578295Y-5463735D01*
X2593789Y-5458655D01*
X2604203Y-5448241D01*
X2609283Y-5432747D01*
X2609283Y-5427413D01*
X2604203Y-5411919D01*
X2593789Y-5401505D01*
X2578295Y-5396425D01*
X2572961Y-5396425D01*
X2557467Y-5401505D01*
X2547053Y-5411919D01*
X2541719Y-5427413D01*
X2320485Y-4148269D02*
G01*
X2320485Y-4226247D01*
X2325565Y-4241741D01*
X2335979Y-4252155D01*
X2351727Y-4257235D01*
X2362141Y-4257235D01*
X2377635Y-4252155D01*
X2388049Y-4241741D01*
X2393129Y-4226247D01*
X2393129Y-4148269D01*
X2500317Y-4148269D02*
G01*
X2448247Y-4257235D01*
X2427419Y-4148269D02*
G01*
X2500317Y-4148269D01*
X2537386Y-2104585D02*
G01*
X2459408Y-2104585D01*
X2443914Y-2109665D01*
X2433500Y-2120079D01*
X2428420Y-2135827D01*
X2428420Y-2146241D01*
X2433500Y-2161735D01*
X2443914Y-2172149D01*
X2459408Y-2177229D01*
X2537386Y-2177229D01*
X2537386Y-2237681D02*
G01*
X2532306Y-2221933D01*
X2521892Y-2216853D01*
X2511478Y-2216853D01*
X2501064Y-2221933D01*
X2495730Y-2232347D01*
X2490650Y-2253175D01*
X2485570Y-2268669D01*
X2475156Y-2279083D01*
X2464742Y-2284417D01*
X2448994Y-2284417D01*
X2438580Y-2279083D01*
X2433500Y-2274003D01*
X2428420Y-2258255D01*
X2428420Y-2237681D01*
X2433500Y-2221933D01*
X2438580Y-2216853D01*
X2448994Y-2211519D01*
X2464742Y-2211519D01*
X2475156Y-2216853D01*
X2485570Y-2227267D01*
X2490650Y-2242761D01*
X2495730Y-2263589D01*
X2501064Y-2274003D01*
X2511478Y-2279083D01*
X2521892Y-2279083D01*
X2532306Y-2274003D01*
X2537386Y-2258255D01*
X2537386Y-2237681D01*
X1930400Y-698500D02*
G01*
X1930400Y-620776D01*
X1930400Y-698500D02*
G01*
X1904491Y-698500D01*
X1893570Y-694689D01*
X1885950Y-687323D01*
X1882393Y-679957D01*
X1878584Y-668781D01*
X1878584Y-650239D01*
X1882393Y-639318D01*
X1885950Y-631952D01*
X1893570Y-624586D01*
X1904491Y-620776D01*
X1930400Y-620776D01*
X1854200Y-683513D02*
G01*
X1846834Y-687323D01*
X1835911Y-698500D01*
X1835911Y-620776D01*
X1697736Y-672592D02*
G01*
X1697736Y-620776D01*
X1697736Y-657860D02*
G01*
X1686559Y-668781D01*
X1679193Y-672592D01*
X1668018Y-672592D01*
X1660652Y-668781D01*
X1657095Y-657860D01*
X1657095Y-620776D01*
X1657095Y-657860D02*
G01*
X1645920Y-668781D01*
X1638554Y-672592D01*
X1627377Y-672592D01*
X1620011Y-668781D01*
X1616456Y-657860D01*
X1616456Y-620776D01*
X1592072Y-698500D02*
G01*
X1588261Y-694689D01*
X1584706Y-698500D01*
X1588261Y-702055D01*
X1592072Y-698500D01*
X1588261Y-672592D02*
G01*
X1588261Y-620776D01*
X1560322Y-672592D02*
G01*
X1560322Y-620776D01*
X1560322Y-657860D02*
G01*
X1549145Y-668781D01*
X1541779Y-672592D01*
X1530604Y-672592D01*
X1523238Y-668781D01*
X1519681Y-657860D01*
X1519681Y-620776D01*
X1495297Y-698500D02*
G01*
X1491488Y-694689D01*
X1487677Y-698500D01*
X1491488Y-702055D01*
X1495297Y-698500D01*
X1491488Y-672592D02*
G01*
X1491488Y-620776D01*
X1873504Y-515620D02*
G01*
X1844040Y-437895D01*
X1814322Y-515620D02*
G01*
X1844040Y-437895D01*
X1786381Y-497078D02*
G01*
X1786381Y-500634D01*
X1782572Y-508000D01*
X1779015Y-511810D01*
X1771650Y-515620D01*
X1756663Y-515620D01*
X1749297Y-511810D01*
X1745741Y-508000D01*
X1741931Y-500634D01*
X1741931Y-493268D01*
X1745741Y-485902D01*
X1753108Y-474979D01*
X1789938Y-437895D01*
X1738375Y-437895D01*
X1710181Y-456437D02*
G01*
X1713991Y-452628D01*
X1710181Y-449071D01*
X1706625Y-452628D01*
X1710181Y-456437D01*
X1674622Y-515620D02*
G01*
X1633981Y-515620D01*
X1656334Y-485902D01*
X1645158Y-485902D01*
X1637791Y-482345D01*
X1633981Y-478536D01*
X1630425Y-467360D01*
X1630425Y-459994D01*
X1633981Y-449071D01*
X1641602Y-441705D01*
X1652524Y-437895D01*
X1663700Y-437895D01*
X1674622Y-441705D01*
X1678431Y-445262D01*
X1682241Y-452628D01*
X1602231Y-456437D02*
G01*
X1606041Y-452628D01*
X1602231Y-449071D01*
X1598675Y-452628D01*
X1602231Y-456437D01*
X1552193Y-515620D02*
G01*
X1563115Y-511810D01*
X1570481Y-500634D01*
X1574291Y-482345D01*
X1574291Y-471170D01*
X1570481Y-452628D01*
X1563115Y-441705D01*
X1552193Y-437895D01*
X1544574Y-437895D01*
X1533652Y-441705D01*
X1526286Y-452628D01*
X1522475Y-471170D01*
X1522475Y-482345D01*
X1526286Y-500634D01*
X1533652Y-511810D01*
X1544574Y-515620D01*
X1552193Y-515620D01*
X1930400Y-332739D02*
G01*
X1911858Y-255015D01*
X1893570Y-332739D02*
G01*
X1911858Y-255015D01*
X1893570Y-332739D02*
G01*
X1875027Y-255015D01*
X1856486Y-332739D02*
G01*
X1875027Y-255015D01*
X1832102Y-332739D02*
G01*
X1832102Y-255015D01*
X1832102Y-332739D02*
G01*
X1784095Y-332739D01*
X1832102Y-295655D02*
G01*
X1802638Y-295655D01*
X1832102Y-255015D02*
G01*
X1784095Y-255015D01*
X1759711Y-332739D02*
G01*
X1759711Y-255015D01*
X1759711Y-332739D02*
G01*
X1730247Y-255015D01*
X1700529Y-332739D02*
G01*
X1730247Y-255015D01*
X1700529Y-332739D02*
G01*
X1700529Y-255015D01*
X1654047Y-332739D02*
G01*
X1661413Y-328929D01*
X1668779Y-321563D01*
X1672590Y-314197D01*
X1676145Y-303021D01*
X1676145Y-284479D01*
X1672590Y-273557D01*
X1668779Y-266192D01*
X1661413Y-258826D01*
X1654047Y-255015D01*
X1639315Y-255015D01*
X1631950Y-258826D01*
X1624584Y-266192D01*
X1620774Y-273557D01*
X1617218Y-284479D01*
X1617218Y-303021D01*
X1620774Y-314197D01*
X1624584Y-321563D01*
X1631950Y-328929D01*
X1639315Y-332739D01*
X1654047Y-332739D01*
X1541018Y-321563D02*
G01*
X1548384Y-328929D01*
X1559559Y-332739D01*
X1574291Y-332739D01*
X1585213Y-328929D01*
X1592834Y-321563D01*
X1592834Y-314197D01*
X1589024Y-306831D01*
X1585213Y-303021D01*
X1577847Y-299465D01*
X1555750Y-292100D01*
X1548384Y-288289D01*
X1544574Y-284479D01*
X1541018Y-277113D01*
X1541018Y-266192D01*
X1548384Y-258826D01*
X1559559Y-255015D01*
X1574291Y-255015D01*
X1585213Y-258826D01*
X1592834Y-266192D01*
X1512824Y-273557D02*
G01*
X1516634Y-269747D01*
X1512824Y-266192D01*
X1509268Y-269747D01*
X1512824Y-273557D01*
X1429511Y-314197D02*
G01*
X1433068Y-321563D01*
X1440434Y-328929D01*
X1447800Y-332739D01*
X1462786Y-332739D01*
X1470152Y-328929D01*
X1477518Y-321563D01*
X1481074Y-314197D01*
X1484884Y-303021D01*
X1484884Y-284479D01*
X1481074Y-273557D01*
X1477518Y-266192D01*
X1470152Y-258826D01*
X1462786Y-255015D01*
X1447800Y-255015D01*
X1440434Y-258826D01*
X1433068Y-266192D01*
X1429511Y-273557D01*
X1349502Y-314197D02*
G01*
X1353311Y-321563D01*
X1360677Y-328929D01*
X1368043Y-332739D01*
X1382775Y-332739D01*
X1390141Y-328929D01*
X1397761Y-321563D01*
X1401318Y-314197D01*
X1405127Y-303021D01*
X1405127Y-284479D01*
X1401318Y-273557D01*
X1397761Y-266192D01*
X1390141Y-258826D01*
X1382775Y-255015D01*
X1368043Y-255015D01*
X1360677Y-258826D01*
X1353311Y-266192D01*
X1349502Y-273557D01*
X3429000Y-2729484D02*
G01*
X3429000Y-2656586D01*
X3429000Y-2729484D02*
G01*
X3397758Y-2729484D01*
X3387343Y-2725928D01*
X3384041Y-2722371D01*
X3380486Y-2715513D01*
X3380486Y-2708655D01*
X3384041Y-2701797D01*
X3387343Y-2698242D01*
X3397758Y-2694686D01*
X3429000Y-2694686D01*
X3404870Y-2694686D02*
G01*
X3380486Y-2656586D01*
X3309111Y-2719070D02*
G01*
X3315970Y-2725928D01*
X3326384Y-2729484D01*
X3340354Y-2729484D01*
X3350768Y-2725928D01*
X3357625Y-2719070D01*
X3357625Y-2711957D01*
X3354070Y-2705100D01*
X3350768Y-2701797D01*
X3343909Y-2698242D01*
X3323081Y-2691384D01*
X3315970Y-2687828D01*
X3312668Y-2684271D01*
X3309111Y-2677413D01*
X3309111Y-2667000D01*
X3315970Y-2660142D01*
X3326384Y-2656586D01*
X3340354Y-2656586D01*
X3350768Y-2660142D01*
X3357625Y-2667000D01*
X3262122Y-2729484D02*
G01*
X3262122Y-2656586D01*
X3286252Y-2729484D02*
G01*
X3237738Y-2729484D01*
X3401313Y-2475484D02*
G01*
X3429000Y-2402586D01*
X3401313Y-2475484D02*
G01*
X3373627Y-2402586D01*
X3418586Y-2426970D02*
G01*
X3384041Y-2426970D01*
X3329940Y-2475484D02*
G01*
X3340354Y-2471928D01*
X3347211Y-2461513D01*
X3350768Y-2444242D01*
X3350768Y-2433828D01*
X3347211Y-2416555D01*
X3340354Y-2406142D01*
X3329940Y-2402586D01*
X3323081Y-2402586D01*
X3312668Y-2406142D01*
X3305809Y-2416555D01*
X3302254Y-2433828D01*
X3302254Y-2444242D01*
X3305809Y-2461513D01*
X3312668Y-2471928D01*
X3323081Y-2475484D01*
X3329940Y-2475484D01*
X3429000Y-2221484D02*
G01*
X3429000Y-2148586D01*
X3429000Y-2221484D02*
G01*
X3404870Y-2221484D01*
X3394456Y-2217928D01*
X3387343Y-2211070D01*
X3384041Y-2203957D01*
X3380486Y-2193797D01*
X3380486Y-2176271D01*
X3384041Y-2165857D01*
X3387343Y-2159000D01*
X3394456Y-2152142D01*
X3404870Y-2148586D01*
X3429000Y-2148586D01*
X3336797Y-2221484D02*
G01*
X3347211Y-2217928D01*
X3354070Y-2207513D01*
X3357625Y-2190242D01*
X3357625Y-2179828D01*
X3354070Y-2162555D01*
X3347211Y-2152142D01*
X3336797Y-2148586D01*
X3329940Y-2148586D01*
X3319525Y-2152142D01*
X3312668Y-2162555D01*
X3309111Y-2179828D01*
X3309111Y-2190242D01*
X3312668Y-2207513D01*
X3319525Y-2217928D01*
X3329940Y-2221484D01*
X3336797Y-2221484D01*
X3429000Y-1967484D02*
G01*
X3429000Y-1894586D01*
X3429000Y-1967484D02*
G01*
X3404870Y-1967484D01*
X3394456Y-1963928D01*
X3387343Y-1957070D01*
X3384041Y-1949957D01*
X3380486Y-1939797D01*
X3380486Y-1922271D01*
X3384041Y-1911857D01*
X3387343Y-1905000D01*
X3394456Y-1898142D01*
X3404870Y-1894586D01*
X3429000Y-1894586D01*
X3315970Y-1967484D02*
G01*
X3350768Y-1967484D01*
X3354070Y-1936242D01*
X3350768Y-1939797D01*
X3340354Y-1943100D01*
X3329940Y-1943100D01*
X3319525Y-1939797D01*
X3312668Y-1932686D01*
X3309111Y-1922271D01*
X3309111Y-1915413D01*
X3312668Y-1905000D01*
X3319525Y-1898142D01*
X3329940Y-1894586D01*
X3340354Y-1894586D01*
X3350768Y-1898142D01*
X3354070Y-1901697D01*
X3357625Y-1908555D01*
X3429000Y-1713484D02*
G01*
X3429000Y-1640586D01*
X3429000Y-1713484D02*
G01*
X3404870Y-1713484D01*
X3394456Y-1709928D01*
X3387343Y-1703070D01*
X3384041Y-1695957D01*
X3380486Y-1685797D01*
X3380486Y-1668271D01*
X3384041Y-1657857D01*
X3387343Y-1651000D01*
X3394456Y-1644142D01*
X3404870Y-1640586D01*
X3429000Y-1640586D01*
X3315970Y-1703070D02*
G01*
X3319525Y-1709928D01*
X3329940Y-1713484D01*
X3336797Y-1713484D01*
X3347211Y-1709928D01*
X3354070Y-1699513D01*
X3357625Y-1682242D01*
X3357625Y-1664970D01*
X3354070Y-1651000D01*
X3347211Y-1644142D01*
X3336797Y-1640586D01*
X3333495Y-1640586D01*
X3323081Y-1644142D01*
X3315970Y-1651000D01*
X3312668Y-1661413D01*
X3312668Y-1664970D01*
X3315970Y-1675384D01*
X3323081Y-1682242D01*
X3333495Y-1685797D01*
X3336797Y-1685797D01*
X3347211Y-1682242D01*
X3354070Y-1675384D01*
X3357625Y-1664970D01*
X3429000Y-1459484D02*
G01*
X3429000Y-1386586D01*
X3429000Y-1459484D02*
G01*
X3404870Y-1459484D01*
X3394456Y-1455928D01*
X3387343Y-1449070D01*
X3384041Y-1441957D01*
X3380486Y-1431797D01*
X3380486Y-1414271D01*
X3384041Y-1403857D01*
X3387343Y-1397000D01*
X3394456Y-1390142D01*
X3404870Y-1386586D01*
X3429000Y-1386586D01*
X3309111Y-1459484D02*
G01*
X3343909Y-1386586D01*
X3357625Y-1459484D02*
G01*
X3309111Y-1459484D01*
X3429000Y-1205484D02*
G01*
X3429000Y-1132586D01*
X3429000Y-1205484D02*
G01*
X3404870Y-1205484D01*
X3394456Y-1201928D01*
X3387343Y-1195070D01*
X3384041Y-1187957D01*
X3380486Y-1177797D01*
X3380486Y-1160271D01*
X3384041Y-1149857D01*
X3387343Y-1143000D01*
X3394456Y-1136142D01*
X3404870Y-1132586D01*
X3429000Y-1132586D01*
X3340354Y-1205484D02*
G01*
X3350768Y-1201928D01*
X3354070Y-1195070D01*
X3354070Y-1187957D01*
X3350768Y-1181100D01*
X3343909Y-1177797D01*
X3329940Y-1174242D01*
X3319525Y-1170686D01*
X3312668Y-1163828D01*
X3309111Y-1156970D01*
X3309111Y-1146555D01*
X3312668Y-1139697D01*
X3315970Y-1136142D01*
X3326384Y-1132586D01*
X3340354Y-1132586D01*
X3350768Y-1136142D01*
X3354070Y-1139697D01*
X3357625Y-1146555D01*
X3357625Y-1156970D01*
X3354070Y-1163828D01*
X3347211Y-1170686D01*
X3336797Y-1174242D01*
X3323081Y-1177797D01*
X3315970Y-1181100D01*
X3312668Y-1187957D01*
X3312668Y-1195070D01*
X3315970Y-1201928D01*
X3326384Y-1205484D01*
X3340354Y-1205484D01*
X3422141Y-951484D02*
G01*
X3384041Y-951484D01*
X3404870Y-923797D01*
X3394456Y-923797D01*
X3387343Y-920242D01*
X3384041Y-916686D01*
X3380486Y-906271D01*
X3380486Y-899413D01*
X3384041Y-889000D01*
X3390900Y-882142D01*
X3401313Y-878586D01*
X3411727Y-878586D01*
X3422141Y-882142D01*
X3425443Y-885697D01*
X3429000Y-892555D01*
X3357625Y-951484D02*
G01*
X3329940Y-878586D01*
X3302254Y-951484D02*
G01*
X3329940Y-878586D01*
X3272536Y-951484D02*
G01*
X3234436Y-951484D01*
X3255009Y-923797D01*
X3244850Y-923797D01*
X3237738Y-920242D01*
X3234436Y-916686D01*
X3230879Y-906271D01*
X3230879Y-899413D01*
X3234436Y-889000D01*
X3241293Y-882142D01*
X3251708Y-878586D01*
X3262122Y-878586D01*
X3272536Y-882142D01*
X3275838Y-885697D01*
X3279393Y-892555D01*
X1634743Y-960628D02*
G01*
X1669541Y-960628D01*
X1672843Y-929386D01*
X1669541Y-932942D01*
X1659127Y-936244D01*
X1648713Y-936244D01*
X1638300Y-932942D01*
X1631441Y-925829D01*
X1627886Y-915415D01*
X1627886Y-908557D01*
X1631441Y-898144D01*
X1638300Y-891286D01*
X1648713Y-887729D01*
X1659127Y-887729D01*
X1669541Y-891286D01*
X1672843Y-894842D01*
X1676400Y-901700D01*
X1605025Y-960628D02*
G01*
X1577340Y-887729D01*
X1549654Y-960628D02*
G01*
X1577340Y-887729D01*
X1713237Y-1243337D02*
G01*
X1716793Y-1250449D01*
X1723651Y-1257307D01*
X1730763Y-1260863D01*
X1744479Y-1260863D01*
X1751337Y-1257307D01*
X1758449Y-1250449D01*
X1761751Y-1243337D01*
X1765307Y-1233177D01*
X1765307Y-1215651D01*
X1761751Y-1205237D01*
X1758449Y-1198379D01*
X1751337Y-1191521D01*
X1744479Y-1187965D01*
X1730763Y-1187965D01*
X1723651Y-1191521D01*
X1716793Y-1198379D01*
X1713237Y-1205237D01*
X1713237Y-1215651D01*
X1730763Y-1215651D02*
G01*
X1713237Y-1215651D01*
X1690377Y-1260863D02*
G01*
X1690377Y-1187965D01*
X1690377Y-1260863D02*
G01*
X1642117Y-1187965D01*
X1642117Y-1260863D02*
G01*
X1642117Y-1187965D01*
X1619257Y-1260863D02*
G01*
X1619257Y-1187965D01*
X1619257Y-1260863D02*
G01*
X1594873Y-1260863D01*
X1584459Y-1257307D01*
X1577601Y-1250449D01*
X1574045Y-1243337D01*
X1570743Y-1233177D01*
X1570743Y-1215651D01*
X1574045Y-1205237D01*
X1577601Y-1198379D01*
X1584459Y-1191521D01*
X1594873Y-1187965D01*
X1619257Y-1187965D01*
X1676400Y-1468628D02*
G01*
X1676400Y-1395729D01*
X1676400Y-1468628D02*
G01*
X1652270Y-1468628D01*
X1641856Y-1465071D01*
X1634743Y-1458213D01*
X1631441Y-1451102D01*
X1627886Y-1440942D01*
X1627886Y-1423415D01*
X1631441Y-1413002D01*
X1634743Y-1406144D01*
X1641856Y-1399286D01*
X1652270Y-1395729D01*
X1676400Y-1395729D01*
X1570481Y-1468628D02*
G01*
X1605025Y-1420113D01*
X1553209Y-1420113D01*
X1570481Y-1468628D02*
G01*
X1570481Y-1395729D01*
X1676400Y-1722628D02*
G01*
X1676400Y-1649729D01*
X1676400Y-1722628D02*
G01*
X1652270Y-1722628D01*
X1641856Y-1719071D01*
X1634743Y-1712213D01*
X1631441Y-1705102D01*
X1627886Y-1694942D01*
X1627886Y-1677415D01*
X1631441Y-1667002D01*
X1634743Y-1660144D01*
X1641856Y-1653286D01*
X1652270Y-1649729D01*
X1676400Y-1649729D01*
X1598168Y-1722628D02*
G01*
X1560068Y-1722628D01*
X1580895Y-1694942D01*
X1570481Y-1694942D01*
X1563370Y-1691386D01*
X1560068Y-1687829D01*
X1556511Y-1677415D01*
X1556511Y-1670557D01*
X1560068Y-1660144D01*
X1566925Y-1653286D01*
X1577340Y-1649729D01*
X1587754Y-1649729D01*
X1598168Y-1653286D01*
X1601470Y-1656842D01*
X1605025Y-1663700D01*
X1676400Y-1976628D02*
G01*
X1676400Y-1903729D01*
X1676400Y-1976628D02*
G01*
X1652270Y-1976628D01*
X1641856Y-1973071D01*
X1634743Y-1966213D01*
X1631441Y-1959102D01*
X1627886Y-1948942D01*
X1627886Y-1931415D01*
X1631441Y-1921002D01*
X1634743Y-1914144D01*
X1641856Y-1907286D01*
X1652270Y-1903729D01*
X1676400Y-1903729D01*
X1601470Y-1959102D02*
G01*
X1601470Y-1962657D01*
X1598168Y-1969515D01*
X1594611Y-1973071D01*
X1587754Y-1976628D01*
X1573784Y-1976628D01*
X1566925Y-1973071D01*
X1563370Y-1969515D01*
X1560068Y-1962657D01*
X1560068Y-1955800D01*
X1563370Y-1948942D01*
X1570481Y-1938528D01*
X1605025Y-1903729D01*
X1556511Y-1903729D01*
X1651000Y-2230628D02*
G01*
X1651000Y-2157729D01*
X1651000Y-2230628D02*
G01*
X1626870Y-2230628D01*
X1616456Y-2227071D01*
X1609343Y-2220213D01*
X1606041Y-2213102D01*
X1602486Y-2202942D01*
X1602486Y-2185415D01*
X1606041Y-2175002D01*
X1609343Y-2168144D01*
X1616456Y-2161286D01*
X1626870Y-2157729D01*
X1651000Y-2157729D01*
X1579625Y-2216657D02*
G01*
X1572768Y-2220213D01*
X1562354Y-2230628D01*
X1562354Y-2157729D01*
X1676400Y-2484628D02*
G01*
X1676400Y-2411729D01*
X1676400Y-2484628D02*
G01*
X1645158Y-2484628D01*
X1634743Y-2481071D01*
X1631441Y-2477515D01*
X1627886Y-2470657D01*
X1627886Y-2463800D01*
X1631441Y-2456942D01*
X1634743Y-2453386D01*
X1645158Y-2449829D01*
X1676400Y-2449829D01*
X1652270Y-2449829D02*
G01*
X1627886Y-2411729D01*
X1605025Y-2484628D02*
G01*
X1556511Y-2411729D01*
X1556511Y-2484628D02*
G01*
X1605025Y-2411729D01*
X1652270Y-2738628D02*
G01*
X1652270Y-2665729D01*
X1676400Y-2738628D02*
G01*
X1627886Y-2738628D01*
X1605025Y-2738628D02*
G01*
X1556511Y-2665729D01*
X1556511Y-2738628D02*
G01*
X1605025Y-2665729D01*
X2807970Y-3200400D02*
G01*
X2844800Y-3103371D01*
X2807970Y-3200400D02*
G01*
X2770886Y-3103371D01*
X2830829Y-3135884D02*
G01*
X2784856Y-3135884D01*
X2740406Y-3200400D02*
G01*
X2740406Y-3103371D01*
X2740406Y-3200400D02*
G01*
X2675890Y-3103371D01*
X2675890Y-3200400D02*
G01*
X2675890Y-3103371D01*
X2612897Y-3200400D02*
G01*
X2612897Y-3103371D01*
X2645409Y-3200400D02*
G01*
X2580640Y-3200400D01*
X2550159Y-3200400D02*
G01*
X2550159Y-3103371D01*
X2550159Y-3200400D02*
G01*
X2490215Y-3200400D01*
X2550159Y-3154171D02*
G01*
X2513329Y-3154171D01*
X2550159Y-3103371D02*
G01*
X2490215Y-3103371D01*
X2459736Y-3200400D02*
G01*
X2459736Y-3103371D01*
X2459736Y-3200400D02*
G01*
X2394965Y-3103371D01*
X2394965Y-3200400D02*
G01*
X2394965Y-3103371D01*
X2364486Y-3200400D02*
G01*
X2364486Y-3103371D01*
X2364486Y-3200400D02*
G01*
X2299970Y-3103371D01*
X2299970Y-3200400D02*
G01*
X2299970Y-3103371D01*
X2232406Y-3200400D02*
G01*
X2269490Y-3103371D01*
X2232406Y-3200400D02*
G01*
X2195575Y-3103371D01*
X2255520Y-3135884D02*
G01*
X2209291Y-3135884D01*
X2768600Y-304800D02*
G01*
X2768600Y-252729D01*
X2765043Y-242315D01*
X2758186Y-235457D01*
X2747772Y-231902D01*
X2740913Y-231902D01*
X2730500Y-235457D01*
X2723641Y-242315D01*
X2720086Y-252729D01*
X2720086Y-304800D01*
X2648711Y-294386D02*
G01*
X2655570Y-301244D01*
X2665984Y-304800D01*
X2679954Y-304800D01*
X2690368Y-301244D01*
X2697225Y-294386D01*
X2697225Y-287273D01*
X2693670Y-280415D01*
X2690368Y-277113D01*
X2683509Y-273557D01*
X2662681Y-266700D01*
X2655570Y-263144D01*
X2652268Y-259587D01*
X2648711Y-252729D01*
X2648711Y-242315D01*
X2655570Y-235457D01*
X2665984Y-231902D01*
X2679954Y-231902D01*
X2690368Y-235457D01*
X2697225Y-242315D01*
X2625852Y-304800D02*
G01*
X2625852Y-231902D01*
X2625852Y-304800D02*
G01*
X2594609Y-304800D01*
X2584450Y-301244D01*
X2580893Y-297687D01*
X2577338Y-290829D01*
X2577338Y-283971D01*
X2580893Y-277113D01*
X2584450Y-273557D01*
X2594609Y-270002D01*
X2625852Y-270002D02*
G01*
X2594609Y-270002D01*
X2584450Y-266700D01*
X2580893Y-263144D01*
X2577338Y-256286D01*
X2577338Y-245871D01*
X2580893Y-239013D01*
X2584450Y-235457D01*
X2594609Y-231902D01*
X2625852Y-231902D01*
X2501138Y-304800D02*
G01*
X2501138Y-231902D01*
X2501138Y-304800D02*
G01*
X2473452Y-231902D01*
X2445765Y-304800D02*
G01*
X2473452Y-231902D01*
X2445765Y-304800D02*
G01*
X2445765Y-231902D01*
X2422906Y-304800D02*
G01*
X2422906Y-231902D01*
X2348229Y-287273D02*
G01*
X2351531Y-294386D01*
X2358390Y-301244D01*
X2365502Y-304800D01*
X2379218Y-304800D01*
X2386329Y-301244D01*
X2393188Y-294386D01*
X2396490Y-287273D01*
X2400045Y-277113D01*
X2400045Y-259587D01*
X2396490Y-249173D01*
X2393188Y-242315D01*
X2386329Y-235457D01*
X2379218Y-231902D01*
X2365502Y-231902D01*
X2358390Y-235457D01*
X2351531Y-242315D01*
X2348229Y-249173D01*
X2325370Y-304800D02*
G01*
X2325370Y-231902D01*
X2325370Y-304800D02*
G01*
X2294127Y-304800D01*
X2283713Y-301244D01*
X2280158Y-297687D01*
X2276856Y-290829D01*
X2276856Y-283971D01*
X2280158Y-277113D01*
X2283713Y-273557D01*
X2294127Y-270002D01*
X2325370Y-270002D01*
X2300986Y-270002D02*
G01*
X2276856Y-231902D01*
X2233168Y-304800D02*
G01*
X2240025Y-301244D01*
X2246884Y-294386D01*
X2250440Y-287273D01*
X2253995Y-277113D01*
X2253995Y-259587D01*
X2250440Y-249173D01*
X2246884Y-242315D01*
X2240025Y-235457D01*
X2233168Y-231902D01*
X2219197Y-231902D01*
X2212340Y-235457D01*
X2205481Y-242315D01*
X2201925Y-249173D01*
X2198370Y-259587D01*
X2198370Y-277113D01*
X2201925Y-287273D01*
X2205481Y-294386D01*
X2212340Y-301244D01*
X2219197Y-304800D01*
X2233168Y-304800D01*
X3581400Y-228600D02*
G01*
X3508502Y-228600D01*
X3581400Y-228600D02*
G01*
X3581400Y-259842D01*
X3577843Y-270255D01*
X3574288Y-273557D01*
X3567429Y-277113D01*
X3560572Y-277113D01*
X3553713Y-273557D01*
X3550158Y-270255D01*
X3546602Y-259842D01*
X3546602Y-228600D01*
X3546602Y-252729D02*
G01*
X3508502Y-277113D01*
X3581400Y-299973D02*
G01*
X3508502Y-299973D01*
X3581400Y-299973D02*
G01*
X3581400Y-344931D01*
X3546602Y-299973D02*
G01*
X3546602Y-327660D01*
X3508502Y-299973D02*
G01*
X3508502Y-344931D01*
X3570986Y-416305D02*
G01*
X3577843Y-409447D01*
X3581400Y-399034D01*
X3581400Y-385063D01*
X3577843Y-374650D01*
X3570986Y-367792D01*
X3563874Y-367792D01*
X3557015Y-371347D01*
X3553713Y-374650D01*
X3550158Y-381762D01*
X3543300Y-402589D01*
X3539743Y-409447D01*
X3536188Y-412750D01*
X3529329Y-416305D01*
X3518915Y-416305D01*
X3512058Y-409447D01*
X3508502Y-399034D01*
X3508502Y-385063D01*
X3512058Y-374650D01*
X3518915Y-367792D01*
X3581400Y-439165D02*
G01*
X3508502Y-439165D01*
X3581400Y-439165D02*
G01*
X3581400Y-484123D01*
X3546602Y-439165D02*
G01*
X3546602Y-466852D01*
X3508502Y-439165D02*
G01*
X3508502Y-484123D01*
X3581400Y-531368D02*
G01*
X3508502Y-531368D01*
X3581400Y-506984D02*
G01*
X3581400Y-555497D01*
X3393186Y-277113D02*
G01*
X3400043Y-270255D01*
X3403600Y-259842D01*
X3403600Y-245871D01*
X3400043Y-235457D01*
X3393186Y-228600D01*
X3386074Y-228600D01*
X3379215Y-232155D01*
X3375913Y-235457D01*
X3372358Y-242570D01*
X3365500Y-263144D01*
X3361943Y-270255D01*
X3358388Y-273557D01*
X3351529Y-277113D01*
X3341115Y-277113D01*
X3334258Y-270255D01*
X3330702Y-259842D01*
X3330702Y-245871D01*
X3334258Y-235457D01*
X3341115Y-228600D01*
X3403600Y-299973D02*
G01*
X3330702Y-317245D01*
X3403600Y-334518D02*
G01*
X3330702Y-317245D01*
X3403600Y-334518D02*
G01*
X3330702Y-351789D01*
X3403600Y-369315D02*
G01*
X3330702Y-351789D01*
X3403600Y-392176D02*
G01*
X3330702Y-392176D01*
X3403600Y-439165D02*
G01*
X3330702Y-439165D01*
X3403600Y-415036D02*
G01*
X3403600Y-463550D01*
X3386074Y-538226D02*
G01*
X3393186Y-534670D01*
X3400043Y-527812D01*
X3403600Y-520954D01*
X3403600Y-506984D01*
X3400043Y-500126D01*
X3393186Y-493268D01*
X3386074Y-489712D01*
X3375913Y-486410D01*
X3358388Y-486410D01*
X3347974Y-489712D01*
X3341115Y-493268D01*
X3334258Y-500126D01*
X3330702Y-506984D01*
X3330702Y-520954D01*
X3334258Y-527812D01*
X3341115Y-534670D01*
X3347974Y-538226D01*
X3403600Y-561086D02*
G01*
X3330702Y-561086D01*
X3403600Y-609600D02*
G01*
X3330702Y-609600D01*
X3368802Y-561086D02*
G01*
X3368802Y-609600D01*
X3847084Y-1803384D02*
G01*
X3956050Y-1803384D01*
X3847084Y-1730740D02*
G01*
X3956050Y-1730740D01*
X3898900Y-1803384D02*
G01*
X3898900Y-1730740D01*
X3872991Y-1691116D02*
G01*
X3867911Y-1691116D01*
X3857497Y-1686036D01*
X3852163Y-1680702D01*
X3847084Y-1670288D01*
X3847084Y-1649714D01*
X3852163Y-1639300D01*
X3857497Y-1633966D01*
X3867911Y-1628886D01*
X3878325Y-1628886D01*
X3888740Y-1633966D01*
X3904234Y-1644380D01*
X3956050Y-1696450D01*
X3956050Y-1623552D01*
X1652000Y-4343400D02*
G01*
X1543034Y-4343400D01*
X1652000Y-4343400D02*
G01*
X1652000Y-4379721D01*
X1646920Y-4395470D01*
X1636506Y-4405629D01*
X1626092Y-4410963D01*
X1610344Y-4416044D01*
X1584436Y-4416044D01*
X1568942Y-4410963D01*
X1558528Y-4405629D01*
X1548114Y-4395470D01*
X1543034Y-4379721D01*
X1543034Y-4343400D01*
X1652000Y-4460747D02*
G01*
X1652000Y-4517897D01*
X1610344Y-4486910D01*
X1610344Y-4502404D01*
X1605264Y-4512818D01*
X1600184Y-4517897D01*
X1584436Y-4523231D01*
X1574022Y-4523231D01*
X1558528Y-4517897D01*
X1548114Y-4507484D01*
X1543034Y-4491989D01*
X1543034Y-4476495D01*
X1548114Y-4460747D01*
X1553194Y-4455668D01*
X1563608Y-4450334D01*
X3753749Y-5123063D02*
G01*
X3748415Y-5112649D01*
X3738001Y-5102235D01*
X3727841Y-5097155D01*
X3707013Y-5097155D01*
X3696599Y-5102235D01*
X3686185Y-5112649D01*
X3680851Y-5123063D01*
X3675771Y-5138811D01*
X3675771Y-5164719D01*
X3680851Y-5180213D01*
X3686185Y-5190627D01*
X3696599Y-5201041D01*
X3707013Y-5206121D01*
X3727841Y-5206121D01*
X3738001Y-5201041D01*
X3748415Y-5190627D01*
X3753749Y-5180213D01*
X3860683Y-5097155D02*
G01*
X3808867Y-5206121D01*
X3788039Y-5097155D02*
G01*
X3860683Y-5097155D01*
X4293092Y-4218178D02*
G01*
X4303506Y-4212844D01*
X4313920Y-4202429D01*
X4319000Y-4192270D01*
X4319000Y-4171442D01*
X4313920Y-4161028D01*
X4303506Y-4150613D01*
X4293092Y-4145279D01*
X4277344Y-4140200D01*
X4251436Y-4140200D01*
X4235942Y-4145279D01*
X4225528Y-4150613D01*
X4215114Y-4161028D01*
X4210034Y-4171442D01*
X4210034Y-4192270D01*
X4215114Y-4202429D01*
X4225528Y-4212844D01*
X4235942Y-4218178D01*
X4319000Y-4278376D02*
G01*
X4313920Y-4262881D01*
X4303506Y-4257547D01*
X4293092Y-4257547D01*
X4282678Y-4262881D01*
X4277344Y-4273295D01*
X4272264Y-4293870D01*
X4267184Y-4309618D01*
X4256770Y-4320031D01*
X4246356Y-4325112D01*
X4230608Y-4325112D01*
X4220194Y-4320031D01*
X4215114Y-4314697D01*
X4210034Y-4299204D01*
X4210034Y-4278376D01*
X4215114Y-4262881D01*
X4220194Y-4257547D01*
X4230608Y-4252468D01*
X4246356Y-4252468D01*
X4256770Y-4257547D01*
X4267184Y-4267962D01*
X4272264Y-4283710D01*
X4277344Y-4304284D01*
X4282678Y-4314697D01*
X4293092Y-4320031D01*
X4303506Y-4320031D01*
X4313920Y-4314697D01*
X4319000Y-4299204D01*
X4319000Y-4278376D01*
X607763Y-3894777D02*
G01*
X602429Y-3884363D01*
X592015Y-3873949D01*
X581855Y-3868869D01*
X561027Y-3868869D01*
X550613Y-3873949D01*
X540199Y-3884363D01*
X534865Y-3894777D01*
X529785Y-3910525D01*
X529785Y-3936433D01*
X534865Y-3951927D01*
X540199Y-3962341D01*
X550613Y-3972755D01*
X561027Y-3977835D01*
X581855Y-3977835D01*
X592015Y-3972755D01*
X602429Y-3962341D01*
X607763Y-3951927D01*
X709617Y-3905191D02*
G01*
X704283Y-3920685D01*
X693869Y-3931099D01*
X678375Y-3936433D01*
X673295Y-3936433D01*
X657547Y-3931099D01*
X647133Y-3920685D01*
X642053Y-3905191D01*
X642053Y-3900111D01*
X647133Y-3884363D01*
X657547Y-3873949D01*
X673295Y-3868869D01*
X678375Y-3868869D01*
X693869Y-3873949D01*
X704283Y-3884363D01*
X709617Y-3905191D01*
X709617Y-3931099D01*
X704283Y-3957261D01*
X693869Y-3972755D01*
X678375Y-3977835D01*
X667961Y-3977835D01*
X652467Y-3972755D01*
X647133Y-3962341D01*
X693092Y-4657778D02*
G01*
X698426Y-4668192D01*
X708840Y-4678606D01*
X719000Y-4683686D01*
X739828Y-4683686D01*
X750242Y-4678606D01*
X760656Y-4668192D01*
X765990Y-4657778D01*
X771070Y-4642030D01*
X771070Y-4616122D01*
X765990Y-4600628D01*
X760656Y-4590214D01*
X750242Y-4579800D01*
X739828Y-4574720D01*
X719000Y-4574720D01*
X708840Y-4579800D01*
X698426Y-4590214D01*
X693092Y-4600628D01*
X658802Y-4662858D02*
G01*
X648388Y-4668192D01*
X632894Y-4683686D01*
X632894Y-4574720D01*
X567362Y-4683686D02*
G01*
X583110Y-4678606D01*
X593270Y-4662858D01*
X598604Y-4636950D01*
X598604Y-4621456D01*
X593270Y-4595294D01*
X583110Y-4579800D01*
X567362Y-4574720D01*
X556948Y-4574720D01*
X541454Y-4579800D01*
X531040Y-4595294D01*
X525960Y-4621456D01*
X525960Y-4636950D01*
X531040Y-4662858D01*
X541454Y-4678606D01*
X556948Y-4683686D01*
X567362Y-4683686D01*
X887984Y-3327384D02*
G01*
X996950Y-3327384D01*
X887984Y-3327384D02*
G01*
X887984Y-3280648D01*
X893063Y-3265154D01*
X898397Y-3259820D01*
X908811Y-3254740D01*
X924306Y-3254740D01*
X934720Y-3259820D01*
X939800Y-3265154D01*
X945134Y-3280648D01*
X945134Y-3327384D01*
X913891Y-3215116D02*
G01*
X908811Y-3215116D01*
X898397Y-3210036D01*
X893063Y-3204702D01*
X887984Y-3194288D01*
X887984Y-3173714D01*
X893063Y-3163300D01*
X898397Y-3157966D01*
X908811Y-3152886D01*
X919225Y-3152886D01*
X929640Y-3157966D01*
X945134Y-3168380D01*
X996950Y-3220450D01*
X996950Y-3147552D01*
G36*
X3321913Y-4673701D02*
G01*
X3471926Y-4783683D01*
X3601923Y-4833670D01*
X3721912Y-4843678D01*
X3921912Y-4833670D01*
X4091889Y-4773676D01*
X4201922Y-4673701D01*
G37*
G36*
X990600Y-4368800D02*
G01*
X990600Y-5080000D01*
X1066800Y-4978400D01*
X1117600Y-4826000D01*
X1143000Y-4673600D01*
X1117600Y-4572000D01*
G37*
D12*
X2010001Y-5285000D02*
G01*
X3069998Y-5285000D01*
X3069998Y-4941999D02*
G01*
X2010001Y-4941999D01*
X2010001Y-4801999D02*
G01*
X2010001Y-5285000D01*
X3069998Y-4801999D02*
G01*
X2010001Y-4801999D01*
X3069998Y-5285000D02*
G01*
X3069998Y-4801999D01*
D13*
X3759200Y-3195828D02*
G01*
X3759200Y-782828D01*
X1219200Y-3195828D02*
G01*
X1219200Y-20828D01*
X3632200Y-20828D01*
X3759200Y-782828D02*
G01*
X3632200Y-655828D01*
X3632200Y-20828D01*
X1803400Y-2743197D02*
G01*
X1803400Y-3454397D01*
X3175000Y-2743197D02*
G01*
X3175000Y-3454397D01*
X3175000Y-2743197D02*
G01*
X1803400Y-2743197D01*
X1803400Y-1092197D01*
X3175000Y-1092197D01*
X3175000Y-2743197D01*
X3251200Y-660397D02*
G01*
X3632200Y-660397D01*
X3632200Y-152397D01*
X3251200Y-152397D01*
X3251200Y-660397D01*
X2870200Y-25397D02*
G01*
X2108200Y-25397D01*
X2108200Y-533397D01*
X2870200Y-533397D01*
X2870200Y-25397D01*
X3505200Y-3454397D02*
G01*
X1473200Y-3454397D01*
D11*
X3987800Y-762000D02*
G01*
X4241800Y-762000D01*
X4241800Y-2794000D01*
X3987800Y-2794000D01*
X3987800Y-2603500D01*
D14*
X3987800Y-762000D02*
G01*
X3987800Y-2603500D01*
D13*
X1758198Y-3928800D02*
G01*
X1758198Y-4808799D01*
X1188199Y-4808799D01*
X1188199Y-3928800D01*
X1758198Y-3928800D01*
X1743199Y-4078571D02*
G01*
X1203200Y-4078571D01*
X1743199Y-4119211D02*
G01*
X1219200Y-4119211D01*
X3999196Y-5290802D02*
G01*
X3519200Y-5290802D01*
X3519203Y-4970797D02*
G01*
X3999199Y-4970797D01*
X3999199Y-4970797D02*
G01*
X3999199Y-5018557D01*
X3999199Y-5243042D02*
G01*
X3999199Y-5290802D01*
X3519200Y-5290802D02*
G01*
X3519200Y-5243042D01*
X3519200Y-5018557D02*
G01*
X3519200Y-4970797D01*
X3991889Y-3773563D02*
G01*
X3991889Y-3953573D01*
X4081881Y-3863555D02*
G01*
X3901897Y-3863555D01*
X177800Y-4724400D02*
G01*
X279400Y-4724400D01*
X228600Y-4648200D02*
G01*
X228600Y-4800600D01*
X880003Y-4109298D02*
G01*
X389996Y-4109298D01*
X389996Y-3739301D02*
G01*
X880003Y-3739301D01*
X389996Y-3811544D02*
G01*
X389996Y-3739301D01*
X880003Y-3739301D02*
G01*
X880003Y-3811544D01*
X880003Y-4037055D02*
G01*
X880003Y-4109298D01*
X389996Y-4109298D02*
G01*
X389996Y-4037055D01*
X373697Y-3481687D02*
G01*
X373697Y-2141684D01*
X1048702Y-2141684D01*
X1048702Y-3481687D01*
X373697Y-3481687D01*
G75*
G01*
X3759197Y-3200397D02*
G02*
X3505197Y-3454397I-253999J-1D01*
G75*
G01*
X1473203Y-3454397D02*
G02*
X1219203Y-3200397I-1J253999D01*
G75*
G01
X2058993Y-5339987D02*
G03X2058993Y-5339987I-16002J0D01*
G75*
G01
X3025691Y-4152892D02*
G03X3025691Y-4152892I-599999J0D01*
G75*
G01
X4421904Y-4203565D02*
G03X4421904Y-4203565I-650011J0D01*
G75*
G01
X1134991Y-4724392D02*
G03X1134991Y-4724392I-499999J0D01*
M02*
